<svg width="512" height="512" viewBox="0 0 512 512" xmlns="http://www.w3.org/2000/svg"><mask id="satori_om-id"><rect x="0" y="0" width="512" height="512" fill="#fff"/></mask><path x="0" y="0" width="512" height="512" fill="#0a0b0a" d="M80,0 h352 a80,80 0 0 1 80,80 v352 a80,80 0 0 1 -80,80 h-352 a80,80 0 0 1 -80,-80 v-352 a80,80 0 0 1 80,-80"/><mask id="satori_om-id-0"><rect x="165" y="84" width="183" height="320" fill="#fff"/></mask><mask id="satori_om-id-0-0"><rect x="165" y="84" width="79" height="320" fill="#fff"/></mask><g  ><path fill="#f4f7f5" d="M180.9 364.7L180.9 185.3L243.8 185.3L243.8 365.9Q243.8 388.9 234.1 401.8Q224.5 414.7 207.2 420Q189.8 425.3 166.9 425.3L166.9 425.3L154.1 425.3L154.1 379.1L161.3 379.1Q172.7 379.1 176.8 375.6Q180.9 372.2 180.9 364.7L180.9 364.7ZM212.3 167.5L212.3 167.5Q199.5 167.5 190.5 159.1Q181.4 150.6 181.4 138.8L181.4 138.8Q181.4 126.7 190.5 118.4Q199.5 110 212.3 110L212.3 110Q225.2 110 234.2 118.4Q243.3 126.7 243.3 138.8L243.3 138.8Q243.3 150.6 234.2 159.1Q225.2 167.5 212.3 167.5Z "/></g><mask id="satori_om-id-0-1"><rect x="244" y="84" width="104" height="320" fill="#fff"/></mask><g  ><path fill="#00ff41" d="M326.7 231.3L280.4 231.3L274.6 127.2L332.4 127.2L326.7 231.3Z "/></g></svg>