<svg xmlns="http://www.w3.org/2000/svg" width="1280" height="640" viewBox="0 0 1280 640" role="img" aria-label="jackin❯ by tailrocks">
  <rect width="1280" height="640" fill="#0a0a0a"/>
  <g font-family="JetBrains Mono, ui-monospace, SFMono-Regular, Menlo, Consolas, monospace" font-size="22" font-weight="600" text-anchor="middle">
    <text x="88.0" y="19.2" fill="rgb(0,140,30)" opacity="0.9">r</text>
    <text x="184.0" y="19.2" fill="rgb(0,140,30)" opacity="0.9">o</text>
    <text x="216.0" y="19.2" fill="rgb(255,255,255)" opacity="0.9">}</text>
    <text x="264.0" y="19.2" fill="rgb(0,140,30)" opacity="0.9">O</text>
    <text x="296.0" y="19.2" fill="rgb(0,200,50)" opacity="0.9">9</text>
    <text x="312.0" y="19.2" fill="rgb(255,255,255)" opacity="0.9">d</text>
    <text x="360.0" y="19.2" fill="rgb(180,255,180)" opacity="0.9">7</text>
    <text x="456.0" y="19.2" fill="rgb(0,200,50)" opacity="0.9">a</text>
    <text x="616.0" y="19.2" fill="rgb(0,80,18)" opacity="0.9">]</text>
    <text x="728.0" y="19.2" fill="rgb(0,80,18)" opacity="0.9">d</text>
    <text x="1080.0" y="19.2" fill="rgb(0,140,30)" opacity="0.9">L</text>
    <text x="1160.0" y="19.2" fill="rgb(0,140,30)" opacity="0.9">S</text>
    <text x="1208.0" y="19.2" fill="rgb(0,255,65)" opacity="0.9">$</text>
    <text x="88.0" y="45.9" fill="rgb(255,255,255)" opacity="0.9">}</text>
    <text x="184.0" y="45.9" fill="rgb(0,200,50)" opacity="0.9">r</text>
    <text x="264.0" y="45.9" fill="rgb(0,200,50)" opacity="0.9">#</text>
    <text x="296.0" y="45.9" fill="rgb(0,255,65)" opacity="0.9">l</text>
    <text x="360.0" y="45.9" fill="rgb(255,255,255)" opacity="0.9">b</text>
    <text x="408.0" y="45.9" fill="rgb(0,80,18)" opacity="0.9">q</text>
    <text x="456.0" y="45.9" fill="rgb(255,255,255)" opacity="0.9">S</text>
    <text x="504.0" y="45.9" fill="rgb(0,80,18)" opacity="0.9">b</text>
    <text x="616.0" y="45.9" fill="rgb(0,140,30)" opacity="0.9">A</text>
    <text x="632.0" y="45.9" fill="rgb(0,80,18)" opacity="0.9">v</text>
    <text x="664.0" y="45.9" fill="rgb(0,80,18)" opacity="0.9">#</text>
    <text x="728.0" y="45.9" fill="rgb(0,80,18)" opacity="0.9">i</text>
    <text x="1080.0" y="45.9" fill="rgb(0,140,30)" opacity="0.9">l</text>
    <text x="1160.0" y="45.9" fill="rgb(0,200,50)" opacity="0.9">W</text>
    <text x="1208.0" y="45.9" fill="rgb(0,255,65)" opacity="0.9">[</text>
    <text x="1256.0" y="45.9" fill="rgb(0,80,18)" opacity="0.9">p</text>
    <text x="184.0" y="72.5" fill="rgb(0,255,65)" opacity="0.9">Z</text>
    <text x="264.0" y="72.5" fill="rgb(255,255,255)" opacity="0.9">B</text>
    <text x="296.0" y="72.5" fill="rgb(180,255,180)" opacity="0.9">q</text>
    <text x="408.0" y="72.5" fill="rgb(0,80,18)" opacity="0.9">s</text>
    <text x="504.0" y="72.5" fill="rgb(0,80,18)" opacity="0.9">v</text>
    <text x="616.0" y="72.5" fill="rgb(0,200,50)" opacity="0.9">O</text>
    <text x="632.0" y="72.5" fill="rgb(0,140,30)" opacity="0.9">F</text>
    <text x="664.0" y="72.5" fill="rgb(0,80,18)" opacity="0.9">C</text>
    <text x="728.0" y="72.5" fill="rgb(0,80,18)" opacity="0.9">6</text>
    <text x="808.0" y="72.5" fill="rgb(0,80,18)" opacity="0.9">I</text>
    <text x="1080.0" y="72.5" fill="rgb(0,200,50)" opacity="0.9">R</text>
    <text x="1160.0" y="72.5" fill="rgb(255,255,255)" opacity="0.9">r</text>
    <text x="1208.0" y="72.5" fill="rgb(180,255,180)" opacity="0.9">F</text>
    <text x="1224.0" y="72.5" fill="rgb(0,80,18)" opacity="0.9">Q</text>
    <text x="1240.0" y="72.5" fill="rgb(0,80,18)" opacity="0.9">7</text>
    <text x="1256.0" y="72.5" fill="rgb(0,80,18)" opacity="0.9">P</text>
    <text x="104.0" y="99.2" fill="rgb(0,80,18)" opacity="0.9">b</text>
    <text x="184.0" y="99.2" fill="rgb(255,255,255)" opacity="0.9">2</text>
    <text x="280.0" y="99.2" fill="rgb(0,80,18)" opacity="0.9">K</text>
    <text x="296.0" y="99.2" fill="rgb(255,255,255)" opacity="0.9">I</text>
    <text x="408.0" y="99.2" fill="rgb(0,80,18)" opacity="0.9">R</text>
    <text x="504.0" y="99.2" fill="rgb(0,140,30)" opacity="0.9">F</text>
    <text x="536.0" y="99.2" fill="rgb(0,80,18)" opacity="0.9">[</text>
    <text x="616.0" y="99.2" fill="rgb(255,255,255)" opacity="0.9">N</text>
    <text x="632.0" y="99.2" fill="rgb(255,255,255)" opacity="0.9">{</text>
    <text x="664.0" y="99.2" fill="rgb(0,140,30)" opacity="0.9">9</text>
    <text x="728.0" y="99.2" fill="rgb(0,140,30)" opacity="0.9">/</text>
    <text x="808.0" y="99.2" fill="rgb(0,140,30)" opacity="0.9">z</text>
    <text x="1080.0" y="99.2" fill="rgb(0,255,65)" opacity="0.9">Q</text>
    <text x="1208.0" y="99.2" fill="rgb(180,255,180)" opacity="0.9">[</text>
    <text x="1224.0" y="99.2" fill="rgb(0,80,18)" opacity="0.9">}</text>
    <text x="1240.0" y="99.2" fill="rgb(0,140,30)" opacity="0.9">h</text>
    <text x="1256.0" y="99.2" fill="rgb(0,140,30)" opacity="0.9">L</text>
    <text x="72.0" y="125.9" fill="rgb(0,80,18)" opacity="0.9">V</text>
    <text x="104.0" y="125.9" fill="rgb(0,80,18)" opacity="0.9">r</text>
    <text x="280.0" y="125.9" fill="rgb(0,80,18)" opacity="0.9">c</text>
    <text x="408.0" y="125.9" fill="rgb(0,80,18)" opacity="0.9">n</text>
    <text x="504.0" y="125.9" fill="rgb(0,140,30)" opacity="0.9">]</text>
    <text x="536.0" y="125.9" fill="rgb(0,140,30)" opacity="0.9">|</text>
    <text x="664.0" y="125.9" fill="rgb(0,200,50)" opacity="0.9">F</text>
    <text x="728.0" y="125.9" fill="rgb(0,140,30)" opacity="0.9">/</text>
    <text x="808.0" y="125.9" fill="rgb(255,255,255)" opacity="0.9">0</text>
    <text x="1080.0" y="125.9" fill="rgb(255,255,255)" opacity="0.9">&lt;</text>
    <text x="1208.0" y="125.9" fill="rgb(255,255,255)" opacity="0.9">J</text>
    <text x="1224.0" y="125.9" fill="rgb(0,80,18)" opacity="0.9">C</text>
    <text x="1240.0" y="125.9" fill="rgb(0,200,50)" opacity="0.9">F</text>
    <text x="1256.0" y="125.9" fill="rgb(0,140,30)" opacity="0.9">B</text>
    <text x="72.0" y="152.5" fill="rgb(0,140,30)" opacity="0.9">O</text>
    <text x="104.0" y="152.5" fill="rgb(0,80,18)" opacity="0.9">x</text>
    <text x="280.0" y="152.5" fill="rgb(0,140,30)" opacity="0.9">1</text>
    <text x="408.0" y="152.5" fill="rgb(0,140,30)" opacity="0.9">|</text>
    <text x="504.0" y="152.5" fill="rgb(0,140,30)" opacity="0.9">~</text>
    <text x="536.0" y="152.5" fill="rgb(255,255,255)" opacity="0.9">X</text>
    <text x="664.0" y="152.5" fill="rgb(255,255,255)" opacity="0.9">z</text>
    <text x="728.0" y="152.5" fill="rgb(0,200,50)" opacity="0.9">$</text>
    <text x="1096.0" y="152.5" fill="rgb(0,80,18)" opacity="0.9">&lt;</text>
    <text x="1224.0" y="152.5" fill="rgb(0,80,18)" opacity="0.9">6</text>
    <text x="1240.0" y="152.5" fill="rgb(255,255,255)" opacity="0.9">S</text>
    <text x="1256.0" y="152.5" fill="rgb(0,200,50)" opacity="0.9">N</text>
    <text x="72.0" y="179.2" fill="rgb(255,255,255)" opacity="0.9">k</text>
    <text x="104.0" y="179.2" fill="rgb(0,140,30)" opacity="0.9">[</text>
    <text x="232.0" y="179.2" fill="rgb(0,80,18)" opacity="0.9">T</text>
    <text x="280.0" y="179.2" fill="rgb(0,140,30)" opacity="0.9">T</text>
    <text x="408.0" y="179.2" fill="rgb(0,140,30)" opacity="0.9">E</text>
    <text x="504.0" y="179.2" fill="rgb(0,200,50)" opacity="0.9">T</text>
    <text x="648.0" y="179.2" fill="rgb(0,80,18)" opacity="0.9">@</text>
    <text x="712.0" y="179.2" fill="rgb(0,80,18)" opacity="0.9">h</text>
    <text x="728.0" y="179.2" fill="rgb(0,255,65)" opacity="0.9">w</text>
    <text x="792.0" y="179.2" fill="rgb(0,80,18)" opacity="0.9">{</text>
    <text x="1096.0" y="179.2" fill="rgb(0,140,30)" opacity="0.9">%</text>
    <text x="1224.0" y="179.2" fill="rgb(0,140,30)" opacity="0.9">]</text>
    <text x="1256.0" y="179.2" fill="rgb(0,255,65)" opacity="0.9">Z</text>
    <text x="56.0" y="205.9" fill="rgb(0,80,18)" opacity="0.9">z</text>
    <text x="104.0" y="205.9" fill="rgb(0,140,30)" opacity="0.9">O</text>
    <text x="200.0" y="205.9" fill="rgb(0,80,18)" opacity="0.9">N</text>
    <text x="232.0" y="205.9" fill="rgb(0,140,30)" opacity="0.9">2</text>
    <text x="280.0" y="205.9" fill="rgb(0,200,50)" opacity="0.9">H</text>
    <text x="408.0" y="205.9" fill="rgb(0,140,30)" opacity="0.9">D</text>
    <text x="504.0" y="205.9" fill="rgb(0,200,50)" opacity="0.12">&gt;</text>
    <text x="648.0" y="205.9" fill="rgb(0,140,30)" opacity="0.12">a</text>
    <text x="712.0" y="205.9" fill="rgb(0,80,18)" opacity="0.12">p</text>
    <text x="728.0" y="205.9" fill="rgb(180,255,180)" opacity="0.12">t</text>
    <text x="792.0" y="205.9" fill="rgb(0,80,18)" opacity="0.12">H</text>
    <text x="1096.0" y="205.9" fill="rgb(0,200,50)" opacity="0.9">D</text>
    <text x="1224.0" y="205.9" fill="rgb(0,140,30)" opacity="0.9">t</text>
    <text x="1256.0" y="205.9" fill="rgb(255,255,255)" opacity="0.9">w</text>
    <text x="56.0" y="232.5" fill="rgb(0,80,18)" opacity="0.9">x</text>
    <text x="104.0" y="232.5" fill="rgb(0,200,50)" opacity="0.9">2</text>
    <text x="200.0" y="232.5" fill="rgb(0,80,18)" opacity="0.9">&lt;</text>
    <text x="232.0" y="232.5" fill="rgb(255,255,255)" opacity="0.9">{</text>
    <text x="280.0" y="232.5" fill="rgb(0,255,65)" opacity="0.9">H</text>
    <text x="408.0" y="232.5" fill="rgb(0,200,50)" opacity="0.9">q</text>
    <text x="504.0" y="232.5" fill="rgb(0,200,50)" opacity="0.12">&amp;</text>
    <text x="648.0" y="232.5" fill="rgb(0,200,50)" opacity="0.12">W</text>
    <text x="712.0" y="232.5" fill="rgb(0,140,30)" opacity="0.12">h</text>
    <text x="728.0" y="232.5" fill="rgb(255,255,255)" opacity="0.12">L</text>
    <text x="744.0" y="232.5" fill="rgb(0,80,18)" opacity="0.12">N</text>
    <text x="776.0" y="232.5" fill="rgb(0,80,18)" opacity="0.12">A</text>
    <text x="792.0" y="232.5" fill="rgb(0,140,30)" opacity="0.12">v</text>
    <text x="936.0" y="232.5" fill="rgb(0,80,18)" opacity="0.12">#</text>
    <text x="1096.0" y="232.5" fill="rgb(255,255,255)" opacity="0.9">r</text>
    <text x="1224.0" y="232.5" fill="rgb(0,140,30)" opacity="0.9">E</text>
    <text x="56.0" y="259.2" fill="rgb(0,140,30)" opacity="0.9">K</text>
    <text x="104.0" y="259.2" fill="rgb(0,200,50)" opacity="0.9">}</text>
    <text x="200.0" y="259.2" fill="rgb(0,80,18)" opacity="0.9">#</text>
    <text x="248.0" y="259.2" fill="rgb(0,80,18)" opacity="0.9">2</text>
    <text x="280.0" y="259.2" fill="rgb(255,255,255)" opacity="0.9">b</text>
    <text x="408.0" y="259.2" fill="rgb(0,200,50)" opacity="0.9">5</text>
    <text x="504.0" y="259.2" fill="rgb(0,255,65)" opacity="0.12">w</text>
    <text x="648.0" y="259.2" fill="rgb(255,255,255)" opacity="0.12">s</text>
    <text x="696.0" y="259.2" fill="rgb(0,80,18)" opacity="0.12">h</text>
    <text x="712.0" y="259.2" fill="rgb(0,200,50)" opacity="0.12">x</text>
    <text x="744.0" y="259.2" fill="rgb(0,140,30)" opacity="0.12">a</text>
    <text x="776.0" y="259.2" fill="rgb(0,140,30)" opacity="0.12">c</text>
    <text x="792.0" y="259.2" fill="rgb(0,140,30)" opacity="0.12">7</text>
    <text x="936.0" y="259.2" fill="rgb(0,80,18)" opacity="0.12">]</text>
    <text x="1224.0" y="259.2" fill="rgb(0,200,50)" opacity="0.9">6</text>
    <text x="56.0" y="285.9" fill="rgb(0,140,30)" opacity="0.9">7</text>
    <text x="104.0" y="285.9" fill="rgb(0,255,65)" opacity="0.9">V</text>
    <text x="200.0" y="285.9" fill="rgb(0,140,30)" opacity="0.9">N</text>
    <text x="248.0" y="285.9" fill="rgb(0,140,30)" opacity="0.9">w</text>
    <text x="408.0" y="285.9" fill="rgb(0,200,50)" opacity="0.9">u</text>
    <text x="504.0" y="285.9" fill="rgb(180,255,180)" opacity="0.12">&lt;</text>
    <text x="600.0" y="285.9" fill="rgb(0,80,18)" opacity="0.12">x</text>
    <text x="696.0" y="285.9" fill="rgb(0,80,18)" opacity="0.12">0</text>
    <text x="712.0" y="285.9" fill="rgb(255,255,255)" opacity="0.12">2</text>
    <text x="744.0" y="285.9" fill="rgb(0,200,50)" opacity="0.12">C</text>
    <text x="760.0" y="285.9" fill="rgb(0,80,18)" opacity="0.12">&lt;</text>
    <text x="776.0" y="285.9" fill="rgb(0,200,50)" opacity="0.12">v</text>
    <text x="792.0" y="285.9" fill="rgb(0,200,50)" opacity="0.12">V</text>
    <text x="936.0" y="285.9" fill="rgb(0,140,30)" opacity="0.12">5</text>
    <text x="984.0" y="285.9" fill="rgb(0,80,18)" opacity="0.12">d</text>
    <text x="1224.0" y="285.9" fill="rgb(0,200,50)" opacity="0.9">9</text>
    <text x="56.0" y="312.5" fill="rgb(0,200,50)" opacity="0.9">|</text>
    <text x="104.0" y="312.5" fill="rgb(255,255,255)" opacity="0.9">z</text>
    <text x="200.0" y="312.5" fill="rgb(0,140,30)" opacity="0.9">4</text>
    <text x="248.0" y="312.5" fill="rgb(255,255,255)" opacity="0.9">}</text>
    <text x="408.0" y="312.5" fill="rgb(0,255,65)" opacity="0.9">q</text>
    <text x="440.0" y="312.5" fill="rgb(0,80,18)" opacity="0.9">&amp;</text>
    <text x="472.0" y="312.5" fill="rgb(0,80,18)" opacity="0.12">i</text>
    <text x="504.0" y="312.5" fill="rgb(255,255,255)" opacity="0.12">*</text>
    <text x="584.0" y="312.5" fill="rgb(0,80,18)" opacity="0.12">6</text>
    <text x="600.0" y="312.5" fill="rgb(0,80,18)" opacity="0.12">K</text>
    <text x="696.0" y="312.5" fill="rgb(0,80,18)" opacity="0.12">$</text>
    <text x="744.0" y="312.5" fill="rgb(0,255,65)" opacity="0.12">\</text>
    <text x="760.0" y="312.5" fill="rgb(0,80,18)" opacity="0.12">B</text>
    <text x="776.0" y="312.5" fill="rgb(0,255,65)" opacity="0.12">$</text>
    <text x="792.0" y="312.5" fill="rgb(0,255,65)" opacity="0.12">#</text>
    <text x="888.0" y="312.5" fill="rgb(0,80,18)" opacity="0.12">n</text>
    <text x="936.0" y="312.5" fill="rgb(0,140,30)" opacity="0.12">9</text>
    <text x="984.0" y="312.5" fill="rgb(0,80,18)" opacity="0.12">K</text>
    <text x="1144.0" y="312.5" fill="rgb(0,80,18)" opacity="0.9">O</text>
    <text x="1224.0" y="312.5" fill="rgb(0,200,50)" opacity="0.9">x</text>
    <text x="56.0" y="339.2" fill="rgb(0,255,65)" opacity="0.9">Q</text>
    <text x="152.0" y="339.2" fill="rgb(0,80,18)" opacity="0.9">%</text>
    <text x="200.0" y="339.2" fill="rgb(0,200,50)" opacity="0.9">8</text>
    <text x="408.0" y="339.2" fill="rgb(180,255,180)" opacity="0.9">t</text>
    <text x="440.0" y="339.2" fill="rgb(0,140,30)" opacity="0.9">$</text>
    <text x="472.0" y="339.2" fill="rgb(0,80,18)" opacity="0.12">7</text>
    <text x="520.0" y="339.2" fill="rgb(0,80,18)" opacity="0.12">m</text>
    <text x="584.0" y="339.2" fill="rgb(0,140,30)" opacity="0.12">g</text>
    <text x="600.0" y="339.2" fill="rgb(0,140,30)" opacity="0.12">O</text>
    <text x="696.0" y="339.2" fill="rgb(0,140,30)" opacity="0.12">$</text>
    <text x="744.0" y="339.2" fill="rgb(255,255,255)" opacity="0.12">L</text>
    <text x="760.0" y="339.2" fill="rgb(0,80,18)" opacity="0.12">C</text>
    <text x="776.0" y="339.2" fill="rgb(255,255,255)" opacity="0.12">&gt;</text>
    <text x="792.0" y="339.2" fill="rgb(255,255,255)" opacity="0.12">@</text>
    <text x="856.0" y="339.2" fill="rgb(0,80,18)" opacity="0.12">H</text>
    <text x="888.0" y="339.2" fill="rgb(0,140,30)" opacity="0.12">e</text>
    <text x="936.0" y="339.2" fill="rgb(0,200,50)" opacity="0.12">5</text>
    <text x="984.0" y="339.2" fill="rgb(0,140,30)" opacity="0.12">{</text>
    <text x="1144.0" y="339.2" fill="rgb(0,80,18)" opacity="0.9">i</text>
    <text x="1224.0" y="339.2" fill="rgb(0,255,65)" opacity="0.9">5</text>
    <text x="56.0" y="365.9" fill="rgb(255,255,255)" opacity="0.9">d</text>
    <text x="152.0" y="365.9" fill="rgb(0,80,18)" opacity="0.9">l</text>
    <text x="200.0" y="365.9" fill="rgb(0,255,65)" opacity="0.9">&gt;</text>
    <text x="376.0" y="365.9" fill="rgb(0,80,18)" opacity="0.9">|</text>
    <text x="408.0" y="365.9" fill="rgb(255,255,255)" opacity="0.9">Y</text>
    <text x="440.0" y="365.9" fill="rgb(255,255,255)" opacity="0.9">b</text>
    <text x="472.0" y="365.9" fill="rgb(0,140,30)" opacity="0.12">7</text>
    <text x="520.0" y="365.9" fill="rgb(0,140,30)" opacity="0.12">U</text>
    <text x="568.0" y="365.9" fill="rgb(0,80,18)" opacity="0.12">i</text>
    <text x="584.0" y="365.9" fill="rgb(0,200,50)" opacity="0.12">T</text>
    <text x="600.0" y="365.9" fill="rgb(0,140,30)" opacity="0.12">1</text>
    <text x="696.0" y="365.9" fill="rgb(0,140,30)" opacity="0.12">C</text>
    <text x="760.0" y="365.9" fill="rgb(0,80,18)" opacity="0.12">L</text>
    <text x="856.0" y="365.9" fill="rgb(0,80,18)" opacity="0.12">8</text>
    <text x="888.0" y="365.9" fill="rgb(0,200,50)" opacity="0.12">8</text>
    <text x="936.0" y="365.9" fill="rgb(0,255,65)" opacity="0.12">Z</text>
    <text x="984.0" y="365.9" fill="rgb(0,200,50)" opacity="0.12">K</text>
    <text x="1144.0" y="365.9" fill="rgb(0,80,18)" opacity="0.9">I</text>
    <text x="1224.0" y="365.9" fill="rgb(180,255,180)" opacity="0.9">L</text>
    <text x="152.0" y="392.5" fill="rgb(0,80,18)" opacity="0.9">\</text>
    <text x="200.0" y="392.5" fill="rgb(180,255,180)" opacity="0.9">V</text>
    <text x="376.0" y="392.5" fill="rgb(0,140,30)" opacity="0.9">Y</text>
    <text x="424.0" y="392.5" fill="rgb(0,80,18)" opacity="0.9">V</text>
    <text x="472.0" y="392.5" fill="rgb(0,140,30)" opacity="0.12">]</text>
    <text x="520.0" y="392.5" fill="rgb(0,200,50)" opacity="0.12">N</text>
    <text x="568.0" y="392.5" fill="rgb(0,80,18)" opacity="0.12">r</text>
    <text x="584.0" y="392.5" fill="rgb(255,255,255)" opacity="0.12">y</text>
    <text x="600.0" y="392.5" fill="rgb(0,200,50)" opacity="0.12">\</text>
    <text x="696.0" y="392.5" fill="rgb(0,200,50)" opacity="0.12">k</text>
    <text x="760.0" y="392.5" fill="rgb(0,140,30)" opacity="0.12">7</text>
    <text x="856.0" y="392.5" fill="rgb(0,140,30)" opacity="0.12">h</text>
    <text x="888.0" y="392.5" fill="rgb(255,255,255)" opacity="0.12">0</text>
    <text x="936.0" y="392.5" fill="rgb(255,255,255)" opacity="0.12">\</text>
    <text x="952.0" y="392.5" fill="rgb(0,80,18)" opacity="0.12">C</text>
    <text x="984.0" y="392.5" fill="rgb(255,255,255)" opacity="0.12">k</text>
    <text x="1144.0" y="392.5" fill="rgb(0,80,18)" opacity="0.9">\</text>
    <text x="1176.0" y="392.5" fill="rgb(0,80,18)" opacity="0.9">5</text>
    <text x="1224.0" y="392.5" fill="rgb(255,255,255)" opacity="0.9">E</text>
    <text x="8.0" y="419.2" fill="rgb(0,80,18)" opacity="0.9">J</text>
    <text x="40.0" y="419.2" fill="rgb(0,80,18)" opacity="0.9">Y</text>
    <text x="152.0" y="419.2" fill="rgb(0,80,18)" opacity="0.9">L</text>
    <text x="200.0" y="419.2" fill="rgb(255,255,255)" opacity="0.9">%</text>
    <text x="376.0" y="419.2" fill="rgb(0,200,50)" opacity="0.9">{</text>
    <text x="424.0" y="419.2" fill="rgb(0,140,30)" opacity="0.9">%</text>
    <text x="472.0" y="419.2" fill="rgb(0,200,50)" opacity="0.12">U</text>
    <text x="520.0" y="419.2" fill="rgb(255,255,255)" opacity="0.12">E</text>
    <text x="568.0" y="419.2" fill="rgb(0,80,18)" opacity="0.12">}</text>
    <text x="600.0" y="419.2" fill="rgb(0,255,65)" opacity="0.12">N</text>
    <text x="696.0" y="419.2" fill="rgb(0,255,65)" opacity="0.12">}</text>
    <text x="760.0" y="419.2" fill="rgb(0,140,30)" opacity="0.12">]</text>
    <text x="856.0" y="419.2" fill="rgb(0,140,30)" opacity="0.12">}</text>
    <text x="952.0" y="419.2" fill="rgb(0,80,18)" opacity="0.12">q</text>
    <text x="1064.0" y="419.2" fill="rgb(0,80,18)" opacity="0.9">R</text>
    <text x="1112.0" y="419.2" fill="rgb(0,80,18)" opacity="0.9">W</text>
    <text x="1144.0" y="419.2" fill="rgb(0,140,30)" opacity="0.9">n</text>
    <text x="1176.0" y="419.2" fill="rgb(0,140,30)" opacity="0.9">t</text>
    <text x="8.0" y="445.9" fill="rgb(0,140,30)" opacity="0.9">h</text>
    <text x="40.0" y="445.9" fill="rgb(0,140,30)" opacity="0.9">@</text>
    <text x="152.0" y="445.9" fill="rgb(0,80,18)" opacity="0.9">2</text>
    <text x="376.0" y="445.9" fill="rgb(255,255,255)" opacity="0.9">6</text>
    <text x="424.0" y="445.9" fill="rgb(0,200,50)" opacity="0.9">O</text>
    <text x="472.0" y="445.9" fill="rgb(0,255,65)" opacity="0.12">2</text>
    <text x="568.0" y="445.9" fill="rgb(0,140,30)" opacity="0.12">{</text>
    <text x="600.0" y="445.9" fill="rgb(255,255,255)" opacity="0.12">T</text>
    <text x="696.0" y="445.9" fill="rgb(180,255,180)" opacity="0.12">{</text>
    <text x="760.0" y="445.9" fill="rgb(0,140,30)" opacity="0.12">3</text>
    <text x="824.0" y="445.9" fill="rgb(0,80,18)" opacity="0.12">f</text>
    <text x="856.0" y="445.9" fill="rgb(0,200,50)" opacity="0.12">f</text>
    <text x="952.0" y="445.9" fill="rgb(0,80,18)" opacity="0.12">~</text>
    <text x="1064.0" y="445.9" fill="rgb(0,140,30)" opacity="0.9">Y</text>
    <text x="1112.0" y="445.9" fill="rgb(0,140,30)" opacity="0.9">&amp;</text>
    <text x="1144.0" y="445.9" fill="rgb(0,140,30)" opacity="0.9">H</text>
    <text x="1176.0" y="445.9" fill="rgb(0,200,50)" opacity="0.9">J</text>
    <text x="8.0" y="472.5" fill="rgb(0,200,50)" opacity="0.9">r</text>
    <text x="40.0" y="472.5" fill="rgb(255,255,255)" opacity="0.9">0</text>
    <text x="152.0" y="472.5" fill="rgb(0,80,18)" opacity="0.9">j</text>
    <text x="168.0" y="472.5" fill="rgb(0,80,18)" opacity="0.9">J</text>
    <text x="392.0" y="472.5" fill="rgb(0,80,18)" opacity="0.9">C</text>
    <text x="424.0" y="472.5" fill="rgb(255,255,255)" opacity="0.9">H</text>
    <text x="472.0" y="472.5" fill="rgb(255,255,255)" opacity="0.9">1</text>
    <text x="552.0" y="472.5" fill="rgb(0,80,18)" opacity="0.9">e</text>
    <text x="568.0" y="472.5" fill="rgb(0,140,30)" opacity="0.9">~</text>
    <text x="696.0" y="472.5" fill="rgb(255,255,255)" opacity="0.9">g</text>
    <text x="760.0" y="472.5" fill="rgb(0,200,50)" opacity="0.9">X</text>
    <text x="824.0" y="472.5" fill="rgb(0,80,18)" opacity="0.9">W</text>
    <text x="856.0" y="472.5" fill="rgb(0,255,65)" opacity="0.9">F</text>
    <text x="952.0" y="472.5" fill="rgb(0,140,30)" opacity="0.9">1</text>
    <text x="1064.0" y="472.5" fill="rgb(0,200,50)" opacity="0.9">{</text>
    <text x="1112.0" y="472.5" fill="rgb(0,200,50)" opacity="0.9">M</text>
    <text x="1128.0" y="472.5" fill="rgb(0,80,18)" opacity="0.9">4</text>
    <text x="1144.0" y="472.5" fill="rgb(0,140,30)" opacity="0.9">w</text>
    <text x="1176.0" y="472.5" fill="rgb(255,255,255)" opacity="0.9">O</text>
    <text x="8.0" y="499.2" fill="rgb(255,255,255)" opacity="0.9">k</text>
    <text x="152.0" y="499.2" fill="rgb(0,80,18)" opacity="0.9">m</text>
    <text x="168.0" y="499.2" fill="rgb(0,140,30)" opacity="0.9">x</text>
    <text x="392.0" y="499.2" fill="rgb(0,140,30)" opacity="0.9">v</text>
    <text x="552.0" y="499.2" fill="rgb(0,80,18)" opacity="0.9">X</text>
    <text x="568.0" y="499.2" fill="rgb(0,200,50)" opacity="0.9">l</text>
    <text x="760.0" y="499.2" fill="rgb(0,200,50)" opacity="0.9">\</text>
    <text x="824.0" y="499.2" fill="rgb(0,80,18)" opacity="0.9">I</text>
    <text x="856.0" y="499.2" fill="rgb(255,255,255)" opacity="0.9">}</text>
    <text x="952.0" y="499.2" fill="rgb(0,140,30)" opacity="0.9">&gt;</text>
    <text x="1064.0" y="499.2" fill="rgb(255,255,255)" opacity="0.9">i</text>
    <text x="1112.0" y="499.2" fill="rgb(255,255,255)" opacity="0.9">A</text>
    <text x="1128.0" y="499.2" fill="rgb(0,80,18)" opacity="0.9">8</text>
    <text x="1144.0" y="499.2" fill="rgb(0,200,50)" opacity="0.9">A</text>
    <text x="152.0" y="525.9" fill="rgb(0,80,18)" opacity="0.9">3</text>
    <text x="168.0" y="525.9" fill="rgb(0,200,50)" opacity="0.9">y</text>
    <text x="392.0" y="525.9" fill="rgb(0,200,50)" opacity="0.9">f</text>
    <text x="552.0" y="525.9" fill="rgb(0,80,18)" opacity="0.9">I</text>
    <text x="568.0" y="525.9" fill="rgb(0,200,50)" opacity="0.9">}</text>
    <text x="760.0" y="525.9" fill="rgb(0,200,50)" opacity="0.9">V</text>
    <text x="824.0" y="525.9" fill="rgb(0,140,30)" opacity="0.9">0</text>
    <text x="952.0" y="525.9" fill="rgb(0,200,50)" opacity="0.9">/</text>
    <text x="1128.0" y="525.9" fill="rgb(0,80,18)" opacity="0.9">g</text>
    <text x="1144.0" y="525.9" fill="rgb(0,200,50)" opacity="0.9">7</text>
    <text x="1192.0" y="525.9" fill="rgb(0,80,18)" opacity="0.9">1</text>
    <text x="120.0" y="552.5" fill="rgb(0,80,18)" opacity="0.9">d</text>
    <text x="152.0" y="552.5" fill="rgb(0,140,30)" opacity="0.9">#</text>
    <text x="168.0" y="552.5" fill="rgb(255,255,255)" opacity="0.9">Z</text>
    <text x="392.0" y="552.5" fill="rgb(0,255,65)" opacity="0.9">5</text>
    <text x="552.0" y="552.5" fill="rgb(0,140,30)" opacity="0.9">w</text>
    <text x="568.0" y="552.5" fill="rgb(0,255,65)" opacity="0.9">V</text>
    <text x="680.0" y="552.5" fill="rgb(0,80,18)" opacity="0.9">Y</text>
    <text x="760.0" y="552.5" fill="rgb(0,255,65)" opacity="0.9">X</text>
    <text x="824.0" y="552.5" fill="rgb(0,140,30)" opacity="0.9">S</text>
    <text x="952.0" y="552.5" fill="rgb(0,255,65)" opacity="0.9">l</text>
    <text x="1128.0" y="552.5" fill="rgb(0,140,30)" opacity="0.9">/</text>
    <text x="1144.0" y="552.5" fill="rgb(0,200,50)" opacity="0.9">q</text>
    <text x="1192.0" y="552.5" fill="rgb(0,80,18)" opacity="0.9">n</text>
    <text x="120.0" y="579.2" fill="rgb(0,140,30)" opacity="0.9">1</text>
    <text x="152.0" y="579.2" fill="rgb(0,140,30)" opacity="0.9">G</text>
    <text x="392.0" y="579.2" fill="rgb(255,255,255)" opacity="0.9">f</text>
    <text x="552.0" y="579.2" fill="rgb(0,140,30)" opacity="0.9">p</text>
    <text x="568.0" y="579.2" fill="rgb(255,255,255)" opacity="0.9">Q</text>
    <text x="680.0" y="579.2" fill="rgb(0,140,30)" opacity="0.9">}</text>
    <text x="760.0" y="579.2" fill="rgb(180,255,180)" opacity="0.9">w</text>
    <text x="824.0" y="579.2" fill="rgb(0,200,50)" opacity="0.9">#</text>
    <text x="840.0" y="579.2" fill="rgb(0,80,18)" opacity="0.9">w</text>
    <text x="952.0" y="579.2" fill="rgb(180,255,180)" opacity="0.9">|</text>
    <text x="1128.0" y="579.2" fill="rgb(0,140,30)" opacity="0.9">F</text>
    <text x="1144.0" y="579.2" fill="rgb(0,255,65)" opacity="0.9">M</text>
    <text x="1192.0" y="579.2" fill="rgb(0,80,18)" opacity="0.9">s</text>
    <text x="120.0" y="605.9" fill="rgb(0,200,50)" opacity="0.9">&gt;</text>
    <text x="152.0" y="605.9" fill="rgb(0,140,30)" opacity="0.9">x</text>
    <text x="552.0" y="605.9" fill="rgb(0,200,50)" opacity="0.9">v</text>
    <text x="680.0" y="605.9" fill="rgb(0,200,50)" opacity="0.9">W</text>
    <text x="760.0" y="605.9" fill="rgb(255,255,255)" opacity="0.9">V</text>
    <text x="824.0" y="605.9" fill="rgb(0,255,65)" opacity="0.9">q</text>
    <text x="840.0" y="605.9" fill="rgb(0,140,30)" opacity="0.9">8</text>
    <text x="952.0" y="605.9" fill="rgb(255,255,255)" opacity="0.9">t</text>
    <text x="1032.0" y="605.9" fill="rgb(0,80,18)" opacity="0.9">r</text>
    <text x="1128.0" y="605.9" fill="rgb(0,200,50)" opacity="0.9">q</text>
    <text x="1144.0" y="605.9" fill="rgb(180,255,180)" opacity="0.9">@</text>
    <text x="1192.0" y="605.9" fill="rgb(0,80,18)" opacity="0.9">v</text>
    <text x="120.0" y="632.5" fill="rgb(0,255,65)" opacity="0.9">C</text>
    <text x="152.0" y="632.5" fill="rgb(0,140,30)" opacity="0.9">]</text>
    <text x="344.0" y="632.5" fill="rgb(0,80,18)" opacity="0.9">t</text>
    <text x="552.0" y="632.5" fill="rgb(0,255,65)" opacity="0.9">9</text>
    <text x="680.0" y="632.5" fill="rgb(255,255,255)" opacity="0.9">J</text>
    <text x="824.0" y="632.5" fill="rgb(180,255,180)" opacity="0.9">C</text>
    <text x="840.0" y="632.5" fill="rgb(0,200,50)" opacity="0.9">N</text>
    <text x="904.0" y="632.5" fill="rgb(0,80,18)" opacity="0.9">0</text>
    <text x="920.0" y="632.5" fill="rgb(0,80,18)" opacity="0.9">w</text>
    <text x="1032.0" y="632.5" fill="rgb(0,140,30)" opacity="0.9">E</text>
    <text x="1048.0" y="632.5" fill="rgb(0,80,18)" opacity="0.9">p</text>
    <text x="1128.0" y="632.5" fill="rgb(0,255,65)" opacity="0.9">X</text>
    <text x="1144.0" y="632.5" fill="rgb(255,255,255)" opacity="0.9">H</text>
    <text x="1192.0" y="632.5" fill="rgb(0,140,30)" opacity="0.9">X</text>
  </g>
  <g font-family="JetBrains Mono, ui-monospace, SFMono-Regular, Menlo, Consolas, monospace" text-anchor="middle">
    <text x="586" y="338" font-size="138" font-weight="600" fill="#ffffff">jackin</text>
    <path d="M842 240 L916 314 L842 388" fill="none" stroke="#5cf07a" stroke-width="24" stroke-linecap="square" stroke-linejoin="miter"/>
    <text x="626" y="446" font-size="26" font-weight="500" fill="#9ca8a1">by tailrocks</text>
  </g>
</svg>
