<svg xmlns="http://www.w3.org/2000/svg" viewBox="0 0 851.8 193.2" role="img" aria-label="jackin❯" preserveAspectRatio="xMinYMid meet">
  <g fill="#ffffff" transform="translate(0 157.2) scale(0.2 -0.2)"><path transform="translate(0 0)" d="M82 -180L82 -64L229 -64Q279 -64 306 -37Q333 -10 333 39L333 434L112 434L112 550L458 550L458 36Q458 -64 398 -122Q338 -180 236 -180ZM391 642Q353 642 331 661.5Q309 681 309 714Q309 747 331 766.5Q353 786 391 786Q429 786 451 766.5Q473 747 473 714Q473 681 451 661.5Q429 642 391 642Z"/><path transform="translate(600 0)" d="M239 -10Q154 -10 105 35Q56 80 56 156Q56 237 110 281Q164 325 263 325L400 325L400 372Q400 412 374 434.5Q348 457 303 457Q262 457 235 439Q208 421 203 390L81 390Q90 468 151 514Q212 560 307 560Q408 560 466.5 509.5Q525 459 525 373L525 0L404 0L404 96L402 96Q394 54 359 26Q314 -10 239 -10ZM280 84Q333 84 366.5 111Q400 138 400 181L400 248L265 248Q227 248 204 226Q181 204 181 168Q181 129 207.5 106.5Q234 84 280 84Z"/><path transform="translate(1200 0)" d="M303 -10Q233 -10 180.5 16.5Q128 43 99 91.5Q70 140 70 206L70 344Q70 411 99 459Q128 507 180.5 533.5Q233 560 303 560Q407 560 469 506.5Q531 453 534 361L409 361Q406 404 378.5 427.5Q351 451 303 451Q253 451 224 423.5Q195 396 195 345L195 206Q195 155 224 127Q253 99 303 99Q351 99 378.5 122.5Q406 146 409 189L534 189Q531 97 469 43.5Q407 -10 303 -10Z"/><path transform="translate(1800 0)" d="M80 0L80 730L205 730L205 334L292 334L426 550L566 550L400 284L569 0L426 0L292 228L205 228L205 0Z"/><path transform="translate(2400 0)" d="M76 0L76 114L268 114L268 437L101 437L101 550L388 550L388 114L558 114L558 0ZM318 642Q280 642 258 661.5Q236 681 236 714Q236 747 258 766.5Q280 786 318 786Q356 786 378 766.5Q400 747 400 714Q400 681 378 661.5Q356 642 318 642Z"/><path transform="translate(3000 0)" d="M77 0L77 550L199 550L199 445L201 445Q208 493 239 522Q278 560 347 560Q428 560 476.5 506Q525 452 525 361L525 0L400 0L400 348Q400 398 374 425Q348 452 301 452Q255 452 228.5 424Q202 396 202 344L202 0Z"/></g>
  <path d="M752 188.2 L812.32 96.2 L752 4.2 L792.61 4.2 L851.8 96.2 L792.61 188.2 Z" fill="#5cf07a"/>
</svg>
