<svg xmlns="http://www.w3.org/2000/svg" viewBox="0 0 230.11 193.2" role="img" aria-label="j❯" preserveAspectRatio="xMinYMid meet">
  <g fill="#ffffff" transform="translate(0 157.2) scale(0.2 -0.2)"><path transform="translate(0 0)" d="M82 -180L82 -64L229 -64Q279 -64 306 -37Q333 -10 333 39L333 434L112 434L112 550L458 550L458 36Q458 -64 398 -122Q338 -180 236 -180ZM391 642Q353 642 331 661.5Q309 681 309 714Q309 747 331 766.5Q353 786 391 786Q429 786 451 766.5Q473 747 473 714Q473 681 451 661.5Q429 642 391 642Z"/></g>
  <path d="M152 156.2 L199.2 84.2 L152 12.2 L183.78 12.2 L230.11 84.2 L183.78 156.2 Z" fill="#5cf07a"/>
</svg>
