<svg xmlns="http://www.w3.org/2000/svg" viewBox="0 0 851.8 221.31" role="img" aria-label="jackin❯ by tailrocks" preserveAspectRatio="xMinYMid meet">
  <g fill="#15181c" transform="translate(0 157.2) scale(0.2 -0.2)"><path transform="translate(0 0)" d="M82 -180L82 -64L229 -64Q279 -64 306 -37Q333 -10 333 39L333 434L112 434L112 550L458 550L458 36Q458 -64 398 -122Q338 -180 236 -180ZM391 642Q353 642 331 661.5Q309 681 309 714Q309 747 331 766.5Q353 786 391 786Q429 786 451 766.5Q473 747 473 714Q473 681 451 661.5Q429 642 391 642Z"/><path transform="translate(600 0)" d="M239 -10Q154 -10 105 35Q56 80 56 156Q56 237 110 281Q164 325 263 325L400 325L400 372Q400 412 374 434.5Q348 457 303 457Q262 457 235 439Q208 421 203 390L81 390Q90 468 151 514Q212 560 307 560Q408 560 466.5 509.5Q525 459 525 373L525 0L404 0L404 96L402 96Q394 54 359 26Q314 -10 239 -10ZM280 84Q333 84 366.5 111Q400 138 400 181L400 248L265 248Q227 248 204 226Q181 204 181 168Q181 129 207.5 106.5Q234 84 280 84Z"/><path transform="translate(1200 0)" d="M303 -10Q233 -10 180.5 16.5Q128 43 99 91.5Q70 140 70 206L70 344Q70 411 99 459Q128 507 180.5 533.5Q233 560 303 560Q407 560 469 506.5Q531 453 534 361L409 361Q406 404 378.5 427.5Q351 451 303 451Q253 451 224 423.5Q195 396 195 345L195 206Q195 155 224 127Q253 99 303 99Q351 99 378.5 122.5Q406 146 409 189L534 189Q531 97 469 43.5Q407 -10 303 -10Z"/><path transform="translate(1800 0)" d="M80 0L80 730L205 730L205 334L292 334L426 550L566 550L400 284L569 0L426 0L292 228L205 228L205 0Z"/><path transform="translate(2400 0)" d="M76 0L76 114L268 114L268 437L101 437L101 550L388 550L388 114L558 114L558 0ZM318 642Q280 642 258 661.5Q236 681 236 714Q236 747 258 766.5Q280 786 318 786Q356 786 378 766.5Q400 747 400 714Q400 681 378 661.5Q356 642 318 642Z"/><path transform="translate(3000 0)" d="M77 0L77 550L199 550L199 445L201 445Q208 493 239 522Q278 560 347 560Q428 560 476.5 506Q525 452 525 361L525 0L400 0L400 348Q400 398 374 425Q348 452 301 452Q255 452 228.5 424Q202 396 202 344L202 0Z"/></g>
  <path d="M752 188.2 L812.32 96.2 L752 4.2 L792.61 4.2 L851.8 96.2 L792.61 188.2 Z" fill="#5cf07a"/>
  <g fill="#5d6460" transform="translate(397.44 209.66) scale(0.027344 -0.027344)"><path transform="translate(0 0)" d="M703 -22Q602 -22 537.5 12.5Q473 47 436.5 93Q400 139 380 175L362 175L362 0L148 0L148 1490L368 1490L368 936L380 936Q400 971 435.5 1017Q471 1063 534.5 1097.5Q598 1132 703 1132Q837 1132 942.5 1064Q1048 996 1109 867Q1170 738 1170 556Q1170 376 1110 246.5Q1050 117 944.5 47.5Q839 -22 703 -22ZM654 165Q750 165 815 217Q880 269 912.5 358Q945 447 945 558Q945 668 912.5 755.5Q880 843 815.5 894Q751 945 654 945Q560 945 495 896.5Q430 848 397 761.5Q364 675 364 558Q364 442 397.5 353.5Q431 265 496 215Q561 165 654 165Z"/><path transform="translate(1266 0)" d="M133 -402L187 -223L212 -229Q269 -244 314.5 -237Q360 -230 393.5 -194.5Q427 -159 447 -87L471 -5L46 1118L284 1118L505 483Q542 377 567 272Q576 231 586 190Q597 231 608 273Q634 378 671 483L896 1118L1132 1118L646 -155Q612 -245 562.5 -305Q513 -365 445 -395.5Q377 -426 287 -426Q235 -426 194 -418.5Q153 -411 133 -402Z"/><path transform="translate(2990 0)" d="M626 1118L626 939L403 939L403 302Q403 235 431.5 203.5Q460 172 525 172Q542 172 570 176Q598 180 618 184L657 8Q622 -4 582 -9.5Q542 -15 503 -15Q351 -15 267 63.5Q183 142 183 284L183 939L20 939L20 1118L183 1118L183 1384L403 1384L403 1118Z"/><path transform="translate(3687 0)" d="M461 -25Q355 -25 269 14.5Q183 54 133 130Q83 206 83 316Q83 411 119.5 472Q156 533 218.5 569Q281 605 357.5 623Q434 641 513 650Q612 662 674 669.5Q736 677 765.5 694.5Q795 712 795 751L795 757Q795 820 771 863Q747 906 699.5 929.5Q652 953 581 953Q508 953 455.5 930.5Q403 908 370.5 873Q338 838 322 800L115 854Q153 954 224 1015Q295 1076 387 1104Q479 1132 577 1132Q645 1132 721 1116Q797 1100 864 1058Q931 1016 973 940Q1015 864 1015 742L1015 0L802 0L802 153L791 153Q769 110 726 69Q683 28 617.5 1.5Q552 -25 461 -25ZM510 152Q600 152 664 187Q728 222 762 280Q796 338 796 403L796 546Q784 534 750.5 524.5Q717 515 674 507.5Q631 500 591 495Q551 490 525 487Q463 479 411.5 460Q360 441 329.5 406Q299 371 299 313Q299 260 326.5 224Q354 188 401 170Q448 152 510 152Z"/><path transform="translate(4850 0)" d="M148 0L148 1118L368 1118L368 0ZM259 1289Q202 1289 161.5 1327Q121 1365 121 1419Q121 1474 161.5 1512Q202 1550 259 1550Q316 1550 357 1512Q398 1474 398 1419Q398 1365 357 1327Q316 1289 259 1289Z"/><path transform="translate(5366 0)" d="M368 1490L368 0L148 0L148 1490Z"/><path transform="translate(5882 0)" d="M148 0L148 1118L361 1118L361 938L373 938Q404 1030 481 1082Q558 1134 656 1134Q677 1134 704 1132.5Q731 1131 749 1128L749 918Q737 922 703 926Q669 930 634 930Q558 930 497 898Q436 866 402 809.5Q368 753 368 679L368 0Z"/><path transform="translate(6674 0)" d="M618 -23Q461 -23 343.5 49Q226 121 161 251Q96 381 96 553Q96 727 161 857.5Q226 988 343.5 1060Q461 1132 618 1132Q776 1132 893.5 1060Q1011 988 1076 857.5Q1141 727 1141 553Q1141 381 1076 251Q1011 121 893.5 49Q776 -23 618 -23ZM618 163Q720 163 786.5 216.5Q853 270 885.5 358.5Q918 447 918 553Q918 660 885.5 749.5Q853 839 786.5 892.5Q720 946 618 946Q517 946 451 892.5Q385 839 352.5 750Q320 661 320 553Q320 447 352.5 358.5Q385 270 451 216.5Q517 163 618 163Z"/><path transform="translate(7911 0)" d="M618 -23Q460 -23 343 49Q226 121 161 251Q96 381 96 553Q96 727 161 857.5Q226 988 343 1060Q460 1132 618 1132Q705 1132 781 1109.5Q857 1087 918.5 1044.5Q980 1002 1022.5 940.5Q1065 879 1086 802L877 752Q866 795 843 830.5Q820 866 787.5 892Q755 918 712.5 932Q670 946 619 946Q518 946 451.5 892.5Q385 839 352.5 750Q320 661 320 553Q320 446 352.5 357.5Q385 269 451.5 216Q518 163 619 163Q671 163 714 177.5Q757 192 791 218.5Q825 245 848 282.5Q871 320 881 365L1089 315Q1069 236 1026 173.5Q983 111 921.5 67Q860 23 783 0Q706 -23 618 -23Z"/><path transform="translate(9093 0)" d="M148 0L148 1490L368 1490L368 646L388 646L829 1118L1093 1118L643 636L1124 0L852 0L475 501L368 394L368 0Z"/><path transform="translate(10238 0)" d="M549 -23Q428 -23 333.5 12Q239 47 178.5 115.5Q118 184 98 283L305 326Q328 239 391 197Q454 155 551 155Q657 155 720 199.5Q783 244 783 306Q783 360 744.5 395Q706 430 626 447L438 490Q282 525 206 602Q130 679 130 799Q130 899 186 974Q242 1049 339 1090.5Q436 1132 563 1132Q684 1132 770 1097Q856 1062 909.5 999Q963 936 986 853L789 810Q768 869 716 913.5Q664 958 565 958Q474 958 413 917Q352 876 352 813Q352 757 392.5 722.5Q433 688 525 667L705 627Q860 592 935 517Q1010 442 1010 325Q1010 223 951.5 144.5Q893 66 789.5 21.5Q686 -23 549 -23Z"/></g>
</svg>
