<svg xmlns="http://www.w3.org/2000/svg" viewBox="0 0 830.11 238.78" role="img" aria-label="jackin❯ by tailrocks" preserveAspectRatio="xMinYMid meet">
  <g fill="#ffffff" transform="translate(0 157.2) scale(0.2 -0.2)"><path transform="translate(0 0)" d="M82 -180L82 -64L229 -64Q279 -64 306 -37Q333 -10 333 39L333 434L112 434L112 550L458 550L458 36Q458 -64 398 -122Q338 -180 236 -180ZM391 642Q353 642 331 661.5Q309 681 309 714Q309 747 331 766.5Q353 786 391 786Q429 786 451 766.5Q473 747 473 714Q473 681 451 661.5Q429 642 391 642Z"/><path transform="translate(600 0)" d="M239 -10Q154 -10 105 35Q56 80 56 156Q56 237 110 281Q164 325 263 325L400 325L400 372Q400 412 374 434.5Q348 457 303 457Q262 457 235 439Q208 421 203 390L81 390Q90 468 151 514Q212 560 307 560Q408 560 466.5 509.5Q525 459 525 373L525 0L404 0L404 96L402 96Q394 54 359 26Q314 -10 239 -10ZM280 84Q333 84 366.5 111Q400 138 400 181L400 248L265 248Q227 248 204 226Q181 204 181 168Q181 129 207.5 106.5Q234 84 280 84Z"/><path transform="translate(1200 0)" d="M303 -10Q233 -10 180.5 16.5Q128 43 99 91.5Q70 140 70 206L70 344Q70 411 99 459Q128 507 180.5 533.5Q233 560 303 560Q407 560 469 506.5Q531 453 534 361L409 361Q406 404 378.5 427.5Q351 451 303 451Q253 451 224 423.5Q195 396 195 345L195 206Q195 155 224 127Q253 99 303 99Q351 99 378.5 122.5Q406 146 409 189L534 189Q531 97 469 43.5Q407 -10 303 -10Z"/><path transform="translate(1800 0)" d="M80 0L80 730L205 730L205 334L292 334L426 550L566 550L400 284L569 0L426 0L292 228L205 228L205 0Z"/><path transform="translate(2400 0)" d="M76 0L76 114L268 114L268 437L101 437L101 550L388 550L388 114L558 114L558 0ZM318 642Q280 642 258 661.5Q236 681 236 714Q236 747 258 766.5Q280 786 318 786Q356 786 378 766.5Q400 747 400 714Q400 681 378 661.5Q356 642 318 642Z"/><path transform="translate(3000 0)" d="M77 0L77 550L199 550L199 445L201 445Q208 493 239 522Q278 560 347 560Q428 560 476.5 506Q525 452 525 361L525 0L400 0L400 348Q400 398 374 425Q348 452 301 452Q255 452 228.5 424Q202 396 202 344L202 0Z"/></g>
  <path d="M752 156.2 L799.2 84.2 L752 12.2 L783.78 12.2 L830.11 84.2 L783.78 156.2 Z" fill="#5cf07a"/>
  <g fill="#9ca8a1" transform="translate(0 232.3) scale(0.04 -0.04)"><path transform="translate(0 0)" d="M347 -10Q279 -10 239 29Q208 58 201 105L199 105L199 0L77 0L77 730L202 730L202 576L198 445L201 445Q208 492 239 522Q279 560 347 560Q430 560 480 503Q530 446 530 349L530 200Q530 104 480 47Q430 -10 347 -10ZM303 98Q351 98 378 126Q405 154 405 206L405 344Q405 396 378 424Q351 452 303 452Q256 452 229 423.5Q202 395 202 344L202 206Q202 155 229 126.5Q256 98 303 98Z"/><path transform="translate(600 0)" d="M166 -180L243 30L38 550L175 550L277 269Q285 246 293 213.5Q301 181 305 160Q310 181 318 213.5Q326 246 334 269L430 550L562 550L297 -180Z"/><path transform="translate(1800 0)" d="M360 0Q281 0 236.5 44Q192 88 192 165L192 437L43 437L43 550L192 550L192 705L318 705L318 550L529 550L529 437L318 437L318 165Q318 113 369 113L519 113L519 0Z"/><path transform="translate(2400 0)" d="M239 -10Q154 -10 105 35Q56 80 56 156Q56 237 110 281Q164 325 263 325L400 325L400 372Q400 412 374 434.5Q348 457 303 457Q262 457 235 439Q208 421 203 390L81 390Q90 468 151 514Q212 560 307 560Q408 560 466.5 509.5Q525 459 525 373L525 0L404 0L404 96L402 96Q394 54 359 26Q314 -10 239 -10ZM280 84Q333 84 366.5 111Q400 138 400 181L400 248L265 248Q227 248 204 226Q181 204 181 168Q181 129 207.5 106.5Q234 84 280 84Z"/><path transform="translate(3000 0)" d="M76 0L76 114L268 114L268 437L101 437L101 550L388 550L388 114L558 114L558 0ZM318 642Q280 642 258 661.5Q236 681 236 714Q236 747 258 766.5Q280 786 318 786Q356 786 378 766.5Q400 747 400 714Q400 681 378 661.5Q356 642 318 642Z"/><path transform="translate(3600 0)" d="M384 0Q330 0 289.5 22Q249 44 226 84.5Q203 125 203 178L203 617L27 617L27 730L328 730L328 178Q328 148 345.5 130.5Q363 113 393 113L559 113L559 0Z"/><path transform="translate(4200 0)" d="M94 0L94 550L212 550L212 445L212 445Q222 488 246 515Q286 560 364 560Q453 560 504 505Q555 450 555 353L555 313L424 313L424 344Q424 397 396.5 426Q369 455 321 455Q272 455 245.5 426Q219 397 219 344L219 0Z"/><path transform="translate(4800 0)" d="M300 -9Q230 -9 178.5 17.5Q127 44 98.5 92.5Q70 141 70 207L70 343Q70 409 98.5 457.5Q127 506 178.5 532.5Q230 559 300 559Q371 559 422 532.5Q473 506 501.5 457.5Q530 409 530 344L530 207Q530 141 501.5 92.5Q473 44 422 17.5Q371 -9 300 -9ZM300 100Q350 100 377.5 127.5Q405 155 405 207L405 343Q405 396 377.5 423Q350 450 300 450Q251 450 223 423Q195 396 195 343L195 207Q195 155 223 127.5Q251 100 300 100Z"/><path transform="translate(5400 0)" d="M303 -10Q233 -10 180.5 16.5Q128 43 99 91.5Q70 140 70 206L70 344Q70 411 99 459Q128 507 180.5 533.5Q233 560 303 560Q407 560 469 506.5Q531 453 534 361L409 361Q406 404 378.5 427.5Q351 451 303 451Q253 451 224 423.5Q195 396 195 345L195 206Q195 155 224 127Q253 99 303 99Q351 99 378.5 122.5Q406 146 409 189L534 189Q531 97 469 43.5Q407 -10 303 -10Z"/><path transform="translate(6000 0)" d="M80 0L80 730L205 730L205 334L292 334L426 550L566 550L400 284L569 0L426 0L292 228L205 228L205 0Z"/><path transform="translate(6600 0)" d="M279 -9Q216 -9 169 11Q122 31 95.5 66.5Q69 102 67 150L192 150Q194 124 217.5 108Q241 92 279 92L323 92Q369 92 392 110Q415 128 415 159Q415 188 394.5 204.5Q374 221 331 226L263 236Q169 249 125 286Q81 323 81 397Q81 474 133 516.5Q185 559 286 559L324 559Q416 559 471 518Q526 477 530 408L405 408Q402 430 380.5 444Q359 458 324 458L286 458Q243 458 223.5 442.5Q204 427 204 397Q204 369 221 355.5Q238 342 276 336L347 326Q445 312 491.5 273.5Q538 235 538 160Q538 80 483.5 35.5Q429 -9 323 -9Z"/></g>
</svg>
