<svg xmlns="http://www.w3.org/2000/svg" width="486" height="18" viewBox="0 0 486 18" role="img" aria-label="Brand header" style="background:#000000"><rect width="100%" height="100%" fill="#000000"/><g font-family="ui-monospace, SFMono-Regular, Menlo, Consolas, monospace" font-size="14"><rect x="0" y="0" width="9" height="18" fill="#00ff41"/><rect x="9" y="0" width="9" height="18" fill="#00ff41"/><text x="9" y="14" fill="#000000">j</text><rect x="18" y="0" width="9" height="18" fill="#00ff41"/><text x="18" y="14" fill="#000000">a</text><rect x="27" y="0" width="9" height="18" fill="#00ff41"/><text x="27" y="14" fill="#000000">c</text><rect x="36" y="0" width="9" height="18" fill="#00ff41"/><text x="36" y="14" fill="#000000">k</text><rect x="45" y="0" width="9" height="18" fill="#00ff41"/><text x="45" y="14" fill="#000000">i</text><rect x="54" y="0" width="9" height="18" fill="#00ff41"/><text x="54" y="14" fill="#000000">n</text><rect x="63" y="0" width="9" height="18" fill="#00ff41"/><text x="63" y="14" fill="#000000">'</text><rect x="72" y="0" width="9" height="18" fill="#00ff41"/><text x="90" y="14" fill="#005012">·</text><text x="108" y="14" fill="#008c1e">C</text><text x="117" y="14" fill="#008c1e">o</text><text x="126" y="14" fill="#008c1e">n</text><text x="135" y="14" fill="#008c1e">s</text><text x="144" y="14" fill="#008c1e">o</text><text x="153" y="14" fill="#008c1e">l</text><text x="162" y="14" fill="#008c1e">e</text><text x="180" y="14" fill="#008c1e">·</text><text x="198" y="14" fill="#008c1e">w</text><text x="207" y="14" fill="#008c1e">o</text><text x="216" y="14" fill="#008c1e">r</text><text x="225" y="14" fill="#008c1e">k</text><text x="234" y="14" fill="#008c1e">s</text><text x="243" y="14" fill="#008c1e">p</text><text x="252" y="14" fill="#008c1e">a</text><text x="261" y="14" fill="#008c1e">c</text><text x="270" y="14" fill="#008c1e">e</text><text x="288" y="14" fill="#008c1e">e</text><text x="297" y="14" fill="#008c1e">d</text><text x="306" y="14" fill="#008c1e">i</text><text x="315" y="14" fill="#008c1e">t</text><text x="324" y="14" fill="#008c1e">o</text><text x="333" y="14" fill="#008c1e">r</text></g></svg>
