<svg xmlns="http://www.w3.org/2000/svg" width="486" height="18" viewBox="0 0 486 18" role="img" aria-label="Brand header" style="background:#000000"><rect width="100%" height="100%" fill="#000000"/><g font-family="ui-monospace, SFMono-Regular, Menlo, Consolas, monospace" font-size="14"><rect x="0" y="0" width="9" height="18" fill="#00ff41"/><rect x="9" y="0" width="9" height="18" fill="#00ff41"/><text x="9" y="14" fill="#000000">j</text><rect x="18" y="0" width="9" height="18" fill="#00ff41"/><text x="18" y="14" fill="#000000">a</text><rect x="27" y="0" width="9" height="18" fill="#00ff41"/><text x="27" y="14" fill="#000000">c</text><rect x="36" y="0" width="9" height="18" fill="#00ff41"/><text x="36" y="14" fill="#000000">k</text><rect x="45" y="0" width="9" height="18" fill="#00ff41"/><text x="45" y="14" fill="#000000">i</text><rect x="54" y="0" width="9" height="18" fill="#00ff41"/><text x="54" y="14" fill="#000000">n</text><rect x="63" y="0" width="9" height="18" fill="#00ff41"/><text x="63" y="14" fill="#000000">'</text><rect x="72" y="0" width="9" height="18" fill="#00ff41"/><rect x="81" y="0" width="9" height="18" fill="#ffffff"/><rect x="90" y="0" width="9" height="18" fill="#ffffff"/><text x="90" y="14" fill="#005012">·</text><rect x="99" y="0" width="9" height="18" fill="#ffffff"/><rect x="108" y="0" width="9" height="18" fill="#ffffff"/><text x="108" y="14" fill="#008c1e">C</text><rect x="117" y="0" width="9" height="18" fill="#ffffff"/><text x="117" y="14" fill="#008c1e">o</text><rect x="126" y="0" width="9" height="18" fill="#ffffff"/><text x="126" y="14" fill="#008c1e">n</text><rect x="135" y="0" width="9" height="18" fill="#ffffff"/><text x="135" y="14" fill="#008c1e">s</text><rect x="144" y="0" width="9" height="18" fill="#ffffff"/><text x="144" y="14" fill="#008c1e">o</text><rect x="153" y="0" width="9" height="18" fill="#ffffff"/><text x="153" y="14" fill="#008c1e">l</text><rect x="162" y="0" width="9" height="18" fill="#ffffff"/><text x="162" y="14" fill="#008c1e">e</text><rect x="171" y="0" width="9" height="18" fill="#ffffff"/><rect x="180" y="0" width="9" height="18" fill="#ffffff"/><text x="180" y="14" fill="#008c1e">·</text><rect x="189" y="0" width="9" height="18" fill="#ffffff"/><rect x="198" y="0" width="9" height="18" fill="#ffffff"/><text x="198" y="14" fill="#008c1e">w</text><rect x="207" y="0" width="9" height="18" fill="#ffffff"/><text x="207" y="14" fill="#008c1e">o</text><rect x="216" y="0" width="9" height="18" fill="#ffffff"/><text x="216" y="14" fill="#008c1e">r</text><rect x="225" y="0" width="9" height="18" fill="#ffffff"/><text x="225" y="14" fill="#008c1e">k</text><rect x="234" y="0" width="9" height="18" fill="#ffffff"/><text x="234" y="14" fill="#008c1e">s</text><rect x="243" y="0" width="9" height="18" fill="#ffffff"/><text x="243" y="14" fill="#008c1e">p</text><rect x="252" y="0" width="9" height="18" fill="#ffffff"/><text x="252" y="14" fill="#008c1e">a</text><rect x="261" y="0" width="9" height="18" fill="#ffffff"/><text x="261" y="14" fill="#008c1e">c</text><rect x="270" y="0" width="9" height="18" fill="#ffffff"/><text x="270" y="14" fill="#008c1e">e</text><rect x="279" y="0" width="9" height="18" fill="#ffffff"/><rect x="288" y="0" width="9" height="18" fill="#ffffff"/><text x="288" y="14" fill="#008c1e">e</text><rect x="297" y="0" width="9" height="18" fill="#ffffff"/><text x="297" y="14" fill="#008c1e">d</text><rect x="306" y="0" width="9" height="18" fill="#ffffff"/><text x="306" y="14" fill="#008c1e">i</text><rect x="315" y="0" width="9" height="18" fill="#ffffff"/><text x="315" y="14" fill="#008c1e">t</text><rect x="324" y="0" width="9" height="18" fill="#ffffff"/><text x="324" y="14" fill="#008c1e">o</text><rect x="333" y="0" width="9" height="18" fill="#ffffff"/><text x="333" y="14" fill="#008c1e">r</text><rect x="342" y="0" width="9" height="18" fill="#ffffff"/><rect x="351" y="0" width="9" height="18" fill="#ffffff"/><rect x="360" y="0" width="9" height="18" fill="#ffffff"/><rect x="369" y="0" width="9" height="18" fill="#ffffff"/><rect x="378" y="0" width="9" height="18" fill="#ffffff"/><rect x="387" y="0" width="9" height="18" fill="#ffffff"/><rect x="396" y="0" width="9" height="18" fill="#ffffff"/><rect x="405" y="0" width="9" height="18" fill="#ffffff"/><rect x="414" y="0" width="9" height="18" fill="#ffffff"/><rect x="423" y="0" width="9" height="18" fill="#ffffff"/><rect x="432" y="0" width="9" height="18" fill="#ffffff"/><rect x="441" y="0" width="9" height="18" fill="#ffffff"/><rect x="450" y="0" width="9" height="18" fill="#ffffff"/><rect x="459" y="0" width="9" height="18" fill="#ffffff"/><rect x="468" y="0" width="9" height="18" fill="#ffffff"/><rect x="477" y="0" width="9" height="18" fill="#ffffff"/></g></svg>
