<svg xmlns="http://www.w3.org/2000/svg" width="486" height="54" viewBox="0 0 486 54" role="img" aria-label="Button strip" style="background:#000000"><rect width="100%" height="100%" fill="#000000"/><g font-family="ui-monospace, SFMono-Regular, Menlo, Consolas, monospace" font-size="14"><rect x="18" y="18" width="9" height="18" fill="#ffffff"/><rect x="27" y="18" width="9" height="18" fill="#ffffff"/><rect x="36" y="18" width="9" height="18" fill="#ffffff"/><text x="36" y="32" fill="#000000">S</text><rect x="45" y="18" width="9" height="18" fill="#ffffff"/><text x="45" y="32" fill="#000000">a</text><rect x="54" y="18" width="9" height="18" fill="#ffffff"/><text x="54" y="32" fill="#000000">v</text><rect x="63" y="18" width="9" height="18" fill="#ffffff"/><text x="63" y="32" fill="#000000">e</text><rect x="72" y="18" width="9" height="18" fill="#ffffff"/><rect x="81" y="18" width="9" height="18" fill="#ffffff"/><text x="144" y="32" fill="#00ff41">D</text><text x="153" y="32" fill="#00ff41">i</text><text x="162" y="32" fill="#00ff41">s</text><text x="171" y="32" fill="#00ff41">c</text><text x="180" y="32" fill="#00ff41">a</text><text x="189" y="32" fill="#00ff41">r</text><text x="198" y="32" fill="#00ff41">d</text><text x="279" y="32" fill="#005012">L</text><text x="288" y="32" fill="#005012">a</text><text x="297" y="32" fill="#005012">u</text><text x="306" y="32" fill="#005012">n</text><text x="315" y="32" fill="#005012">c</text><text x="324" y="32" fill="#005012">h</text><text x="405" y="32" fill="#00ff41">C</text><text x="414" y="32" fill="#00ff41">a</text><text x="423" y="32" fill="#00ff41">n</text><text x="432" y="32" fill="#00ff41">c</text><text x="441" y="32" fill="#00ff41">e</text><text x="450" y="32" fill="#00ff41">l</text></g></svg>
