<svg xmlns="http://www.w3.org/2000/svg" width="486" height="54" viewBox="0 0 486 54" role="img" aria-label="Button strip" style="background:#000000"><rect width="100%" height="100%" fill="#000000"/><g font-family="ui-monospace, SFMono-Regular, Menlo, Consolas, monospace" font-size="14"><rect x="0" y="0" width="9" height="18" fill="#ffffff"/><text x="0" y="14" fill="#ffffff">┌</text><rect x="9" y="0" width="9" height="18" fill="#ffffff"/><text x="9" y="14" fill="#ffffff">─</text><rect x="18" y="0" width="9" height="18" fill="#ffffff"/><text x="18" y="14" fill="#ffffff">─</text><rect x="27" y="0" width="9" height="18" fill="#ffffff"/><text x="27" y="14" fill="#ffffff">─</text><rect x="36" y="0" width="9" height="18" fill="#ffffff"/><text x="36" y="14" fill="#ffffff">─</text><rect x="45" y="0" width="9" height="18" fill="#ffffff"/><text x="45" y="14" fill="#ffffff">─</text><rect x="54" y="0" width="9" height="18" fill="#ffffff"/><text x="54" y="14" fill="#ffffff">─</text><rect x="63" y="0" width="9" height="18" fill="#ffffff"/><text x="63" y="14" fill="#ffffff">─</text><rect x="72" y="0" width="9" height="18" fill="#ffffff"/><text x="72" y="14" fill="#ffffff">─</text><rect x="81" y="0" width="9" height="18" fill="#ffffff"/><text x="81" y="14" fill="#ffffff">─</text><rect x="90" y="0" width="9" height="18" fill="#ffffff"/><text x="90" y="14" fill="#ffffff">─</text><rect x="99" y="0" width="9" height="18" fill="#ffffff"/><text x="99" y="14" fill="#ffffff">─</text><rect x="108" y="0" width="9" height="18" fill="#ffffff"/><text x="108" y="14" fill="#ffffff">─</text><rect x="117" y="0" width="9" height="18" fill="#ffffff"/><text x="117" y="14" fill="#ffffff">─</text><rect x="126" y="0" width="9" height="18" fill="#ffffff"/><text x="126" y="14" fill="#ffffff">─</text><rect x="135" y="0" width="9" height="18" fill="#ffffff"/><text x="135" y="14" fill="#ffffff">─</text><rect x="144" y="0" width="9" height="18" fill="#ffffff"/><text x="144" y="14" fill="#ffffff">─</text><rect x="153" y="0" width="9" height="18" fill="#ffffff"/><text x="153" y="14" fill="#ffffff">─</text><rect x="162" y="0" width="9" height="18" fill="#ffffff"/><text x="162" y="14" fill="#ffffff">─</text><rect x="171" y="0" width="9" height="18" fill="#ffffff"/><text x="171" y="14" fill="#ffffff">─</text><rect x="180" y="0" width="9" height="18" fill="#ffffff"/><text x="180" y="14" fill="#ffffff">─</text><rect x="189" y="0" width="9" height="18" fill="#ffffff"/><text x="189" y="14" fill="#ffffff">─</text><rect x="198" y="0" width="9" height="18" fill="#ffffff"/><text x="198" y="14" fill="#ffffff">─</text><rect x="207" y="0" width="9" height="18" fill="#ffffff"/><text x="207" y="14" fill="#ffffff">─</text><rect x="216" y="0" width="9" height="18" fill="#ffffff"/><text x="216" y="14" fill="#ffffff">─</text><rect x="225" y="0" width="9" height="18" fill="#ffffff"/><text x="225" y="14" fill="#ffffff">─</text><rect x="234" y="0" width="9" height="18" fill="#ffffff"/><text x="234" y="14" fill="#ffffff">─</text><rect x="243" y="0" width="9" height="18" fill="#ffffff"/><text x="243" y="14" fill="#ffffff">─</text><rect x="252" y="0" width="9" height="18" fill="#ffffff"/><text x="252" y="14" fill="#ffffff">─</text><rect x="261" y="0" width="9" height="18" fill="#ffffff"/><text x="261" y="14" fill="#ffffff">─</text><rect x="270" y="0" width="9" height="18" fill="#ffffff"/><text x="270" y="14" fill="#ffffff">─</text><rect x="279" y="0" width="9" height="18" fill="#ffffff"/><text x="279" y="14" fill="#ffffff">─</text><rect x="288" y="0" width="9" height="18" fill="#ffffff"/><text x="288" y="14" fill="#ffffff">─</text><rect x="297" y="0" width="9" height="18" fill="#ffffff"/><text x="297" y="14" fill="#ffffff">─</text><rect x="306" y="0" width="9" height="18" fill="#ffffff"/><text x="306" y="14" fill="#ffffff">─</text><rect x="315" y="0" width="9" height="18" fill="#ffffff"/><text x="315" y="14" fill="#ffffff">─</text><rect x="324" y="0" width="9" height="18" fill="#ffffff"/><text x="324" y="14" fill="#ffffff">─</text><rect x="333" y="0" width="9" height="18" fill="#ffffff"/><text x="333" y="14" fill="#ffffff">─</text><rect x="342" y="0" width="9" height="18" fill="#ffffff"/><text x="342" y="14" fill="#ffffff">─</text><rect x="351" y="0" width="9" height="18" fill="#ffffff"/><text x="351" y="14" fill="#ffffff">─</text><rect x="360" y="0" width="9" height="18" fill="#ffffff"/><text x="360" y="14" fill="#ffffff">─</text><rect x="369" y="0" width="9" height="18" fill="#ffffff"/><text x="369" y="14" fill="#ffffff">─</text><rect x="378" y="0" width="9" height="18" fill="#ffffff"/><text x="378" y="14" fill="#ffffff">─</text><rect x="387" y="0" width="9" height="18" fill="#ffffff"/><text x="387" y="14" fill="#ffffff">─</text><rect x="396" y="0" width="9" height="18" fill="#ffffff"/><text x="396" y="14" fill="#ffffff">─</text><rect x="405" y="0" width="9" height="18" fill="#ffffff"/><text x="405" y="14" fill="#ffffff">─</text><rect x="414" y="0" width="9" height="18" fill="#ffffff"/><text x="414" y="14" fill="#ffffff">─</text><rect x="423" y="0" width="9" height="18" fill="#ffffff"/><text x="423" y="14" fill="#ffffff">─</text><rect x="432" y="0" width="9" height="18" fill="#ffffff"/><text x="432" y="14" fill="#ffffff">─</text><rect x="441" y="0" width="9" height="18" fill="#ffffff"/><text x="441" y="14" fill="#ffffff">─</text><rect x="450" y="0" width="9" height="18" fill="#ffffff"/><text x="450" y="14" fill="#ffffff">─</text><rect x="459" y="0" width="9" height="18" fill="#ffffff"/><text x="459" y="14" fill="#ffffff">─</text><rect x="468" y="0" width="9" height="18" fill="#ffffff"/><text x="468" y="14" fill="#ffffff">─</text><rect x="477" y="0" width="9" height="18" fill="#ffffff"/><text x="477" y="14" fill="#ffffff">┐</text><rect x="0" y="18" width="9" height="18" fill="#ffffff"/><text x="0" y="32" fill="#ffffff">│</text><rect x="9" y="18" width="9" height="18" fill="#ffffff"/><rect x="18" y="18" width="9" height="18" fill="#ffffff"/><rect x="27" y="18" width="9" height="18" fill="#ffffff"/><rect x="36" y="18" width="9" height="18" fill="#ffffff"/><text x="36" y="32" fill="#00ff41">S</text><rect x="45" y="18" width="9" height="18" fill="#ffffff"/><text x="45" y="32" fill="#00ff41">a</text><rect x="54" y="18" width="9" height="18" fill="#ffffff"/><text x="54" y="32" fill="#00ff41">v</text><rect x="63" y="18" width="9" height="18" fill="#ffffff"/><text x="63" y="32" fill="#00ff41">e</text><rect x="72" y="18" width="9" height="18" fill="#ffffff"/><rect x="81" y="18" width="9" height="18" fill="#ffffff"/><rect x="90" y="18" width="9" height="18" fill="#ffffff"/><rect x="99" y="18" width="9" height="18" fill="#ffffff"/><rect x="108" y="18" width="9" height="18" fill="#ffffff"/><rect x="117" y="18" width="9" height="18" fill="#ffffff"/><rect x="126" y="18" width="9" height="18" fill="#ffffff"/><rect x="135" y="18" width="9" height="18" fill="#ffffff"/><rect x="144" y="18" width="9" height="18" fill="#ffffff"/><text x="144" y="32" fill="#000000">D</text><rect x="153" y="18" width="9" height="18" fill="#ffffff"/><text x="153" y="32" fill="#000000">i</text><rect x="162" y="18" width="9" height="18" fill="#ffffff"/><text x="162" y="32" fill="#000000">s</text><rect x="171" y="18" width="9" height="18" fill="#ffffff"/><text x="171" y="32" fill="#000000">c</text><rect x="180" y="18" width="9" height="18" fill="#ffffff"/><text x="180" y="32" fill="#000000">a</text><rect x="189" y="18" width="9" height="18" fill="#ffffff"/><text x="189" y="32" fill="#000000">r</text><rect x="198" y="18" width="9" height="18" fill="#ffffff"/><text x="198" y="32" fill="#000000">d</text><rect x="207" y="18" width="9" height="18" fill="#ffffff"/><rect x="216" y="18" width="9" height="18" fill="#ffffff"/><rect x="225" y="18" width="9" height="18" fill="#ffffff"/><rect x="234" y="18" width="9" height="18" fill="#ffffff"/><rect x="243" y="18" width="9" height="18" fill="#ffffff"/><rect x="252" y="18" width="9" height="18" fill="#ffffff"/><rect x="261" y="18" width="9" height="18" fill="#ffffff"/><rect x="270" y="18" width="9" height="18" fill="#ffffff"/><rect x="279" y="18" width="9" height="18" fill="#ffffff"/><text x="279" y="32" fill="#005012">L</text><rect x="288" y="18" width="9" height="18" fill="#ffffff"/><text x="288" y="32" fill="#005012">a</text><rect x="297" y="18" width="9" height="18" fill="#ffffff"/><text x="297" y="32" fill="#005012">u</text><rect x="306" y="18" width="9" height="18" fill="#ffffff"/><text x="306" y="32" fill="#005012">n</text><rect x="315" y="18" width="9" height="18" fill="#ffffff"/><text x="315" y="32" fill="#005012">c</text><rect x="324" y="18" width="9" height="18" fill="#ffffff"/><text x="324" y="32" fill="#005012">h</text><rect x="333" y="18" width="9" height="18" fill="#ffffff"/><rect x="342" y="18" width="9" height="18" fill="#ffffff"/><rect x="351" y="18" width="9" height="18" fill="#ffffff"/><rect x="360" y="18" width="9" height="18" fill="#ffffff"/><rect x="369" y="18" width="9" height="18" fill="#ffffff"/><rect x="378" y="18" width="9" height="18" fill="#ffffff"/><rect x="387" y="18" width="9" height="18" fill="#ffffff"/><rect x="396" y="18" width="9" height="18" fill="#ffffff"/><rect x="405" y="18" width="9" height="18" fill="#ffffff"/><text x="405" y="32" fill="#00ff41">C</text><rect x="414" y="18" width="9" height="18" fill="#ffffff"/><text x="414" y="32" fill="#00ff41">a</text><rect x="423" y="18" width="9" height="18" fill="#ffffff"/><text x="423" y="32" fill="#00ff41">n</text><rect x="432" y="18" width="9" height="18" fill="#ffffff"/><text x="432" y="32" fill="#00ff41">c</text><rect x="441" y="18" width="9" height="18" fill="#ffffff"/><text x="441" y="32" fill="#00ff41">e</text><rect x="450" y="18" width="9" height="18" fill="#ffffff"/><text x="450" y="32" fill="#00ff41">l</text><rect x="459" y="18" width="9" height="18" fill="#ffffff"/><rect x="468" y="18" width="9" height="18" fill="#ffffff"/><rect x="477" y="18" width="9" height="18" fill="#ffffff"/><text x="477" y="32" fill="#ffffff">│</text><rect x="0" y="36" width="9" height="18" fill="#ffffff"/><text x="0" y="50" fill="#ffffff">└</text><rect x="9" y="36" width="9" height="18" fill="#ffffff"/><text x="9" y="50" fill="#ffffff">─</text><rect x="18" y="36" width="9" height="18" fill="#ffffff"/><text x="18" y="50" fill="#ffffff">─</text><rect x="27" y="36" width="9" height="18" fill="#ffffff"/><text x="27" y="50" fill="#ffffff">─</text><rect x="36" y="36" width="9" height="18" fill="#ffffff"/><text x="36" y="50" fill="#ffffff">─</text><rect x="45" y="36" width="9" height="18" fill="#ffffff"/><text x="45" y="50" fill="#ffffff">─</text><rect x="54" y="36" width="9" height="18" fill="#ffffff"/><text x="54" y="50" fill="#ffffff">─</text><rect x="63" y="36" width="9" height="18" fill="#ffffff"/><text x="63" y="50" fill="#ffffff">─</text><rect x="72" y="36" width="9" height="18" fill="#ffffff"/><text x="72" y="50" fill="#ffffff">─</text><rect x="81" y="36" width="9" height="18" fill="#ffffff"/><text x="81" y="50" fill="#ffffff">─</text><rect x="90" y="36" width="9" height="18" fill="#ffffff"/><text x="90" y="50" fill="#ffffff">─</text><rect x="99" y="36" width="9" height="18" fill="#ffffff"/><text x="99" y="50" fill="#ffffff">─</text><rect x="108" y="36" width="9" height="18" fill="#ffffff"/><text x="108" y="50" fill="#ffffff">─</text><rect x="117" y="36" width="9" height="18" fill="#ffffff"/><text x="117" y="50" fill="#ffffff">─</text><rect x="126" y="36" width="9" height="18" fill="#ffffff"/><text x="126" y="50" fill="#ffffff">─</text><rect x="135" y="36" width="9" height="18" fill="#ffffff"/><text x="135" y="50" fill="#ffffff">─</text><rect x="144" y="36" width="9" height="18" fill="#ffffff"/><text x="144" y="50" fill="#ffffff">─</text><rect x="153" y="36" width="9" height="18" fill="#ffffff"/><text x="153" y="50" fill="#ffffff">─</text><rect x="162" y="36" width="9" height="18" fill="#ffffff"/><text x="162" y="50" fill="#ffffff">─</text><rect x="171" y="36" width="9" height="18" fill="#ffffff"/><text x="171" y="50" fill="#ffffff">─</text><rect x="180" y="36" width="9" height="18" fill="#ffffff"/><text x="180" y="50" fill="#ffffff">─</text><rect x="189" y="36" width="9" height="18" fill="#ffffff"/><text x="189" y="50" fill="#ffffff">─</text><rect x="198" y="36" width="9" height="18" fill="#ffffff"/><text x="198" y="50" fill="#ffffff">─</text><rect x="207" y="36" width="9" height="18" fill="#ffffff"/><text x="207" y="50" fill="#ffffff">─</text><rect x="216" y="36" width="9" height="18" fill="#ffffff"/><text x="216" y="50" fill="#ffffff">─</text><rect x="225" y="36" width="9" height="18" fill="#ffffff"/><text x="225" y="50" fill="#ffffff">─</text><rect x="234" y="36" width="9" height="18" fill="#ffffff"/><text x="234" y="50" fill="#ffffff">─</text><rect x="243" y="36" width="9" height="18" fill="#ffffff"/><text x="243" y="50" fill="#ffffff">─</text><rect x="252" y="36" width="9" height="18" fill="#ffffff"/><text x="252" y="50" fill="#ffffff">─</text><rect x="261" y="36" width="9" height="18" fill="#ffffff"/><text x="261" y="50" fill="#ffffff">─</text><rect x="270" y="36" width="9" height="18" fill="#ffffff"/><text x="270" y="50" fill="#ffffff">─</text><rect x="279" y="36" width="9" height="18" fill="#ffffff"/><text x="279" y="50" fill="#ffffff">─</text><rect x="288" y="36" width="9" height="18" fill="#ffffff"/><text x="288" y="50" fill="#ffffff">─</text><rect x="297" y="36" width="9" height="18" fill="#ffffff"/><text x="297" y="50" fill="#ffffff">─</text><rect x="306" y="36" width="9" height="18" fill="#ffffff"/><text x="306" y="50" fill="#ffffff">─</text><rect x="315" y="36" width="9" height="18" fill="#ffffff"/><text x="315" y="50" fill="#ffffff">─</text><rect x="324" y="36" width="9" height="18" fill="#ffffff"/><text x="324" y="50" fill="#ffffff">─</text><rect x="333" y="36" width="9" height="18" fill="#ffffff"/><text x="333" y="50" fill="#ffffff">─</text><rect x="342" y="36" width="9" height="18" fill="#ffffff"/><text x="342" y="50" fill="#ffffff">─</text><rect x="351" y="36" width="9" height="18" fill="#ffffff"/><text x="351" y="50" fill="#ffffff">─</text><rect x="360" y="36" width="9" height="18" fill="#ffffff"/><text x="360" y="50" fill="#ffffff">─</text><rect x="369" y="36" width="9" height="18" fill="#ffffff"/><text x="369" y="50" fill="#ffffff">─</text><rect x="378" y="36" width="9" height="18" fill="#ffffff"/><text x="378" y="50" fill="#ffffff">─</text><rect x="387" y="36" width="9" height="18" fill="#ffffff"/><text x="387" y="50" fill="#ffffff">─</text><rect x="396" y="36" width="9" height="18" fill="#ffffff"/><text x="396" y="50" fill="#ffffff">─</text><rect x="405" y="36" width="9" height="18" fill="#ffffff"/><text x="405" y="50" fill="#ffffff">─</text><rect x="414" y="36" width="9" height="18" fill="#ffffff"/><text x="414" y="50" fill="#ffffff">─</text><rect x="423" y="36" width="9" height="18" fill="#ffffff"/><text x="423" y="50" fill="#ffffff">─</text><rect x="432" y="36" width="9" height="18" fill="#ffffff"/><text x="432" y="50" fill="#ffffff">─</text><rect x="441" y="36" width="9" height="18" fill="#ffffff"/><text x="441" y="50" fill="#ffffff">─</text><rect x="450" y="36" width="9" height="18" fill="#ffffff"/><text x="450" y="50" fill="#ffffff">─</text><rect x="459" y="36" width="9" height="18" fill="#ffffff"/><text x="459" y="50" fill="#ffffff">─</text><rect x="468" y="36" width="9" height="18" fill="#ffffff"/><text x="468" y="50" fill="#ffffff">─</text><rect x="477" y="36" width="9" height="18" fill="#ffffff"/><text x="477" y="50" fill="#ffffff">┘</text></g></svg>
