<svg xmlns="http://www.w3.org/2000/svg" width="630" height="234" viewBox="0 0 630 234" role="img" aria-label="Role trust dialog" style="background:#000000"><rect width="100%" height="100%" fill="#000000"/><g font-family="ui-monospace, SFMono-Regular, Menlo, Consolas, monospace" font-size="14"><text x="0" y="14" fill="#00ff41">┌</text><text x="18" y="14" fill="#ffffff">T</text><text x="27" y="14" fill="#ffffff">r</text><text x="36" y="14" fill="#ffffff">u</text><text x="45" y="14" fill="#ffffff">s</text><text x="54" y="14" fill="#ffffff">t</text><text x="72" y="14" fill="#ffffff">r</text><text x="81" y="14" fill="#ffffff">o</text><text x="90" y="14" fill="#ffffff">l</text><text x="99" y="14" fill="#ffffff">e</text><text x="117" y="14" fill="#ffffff">s</text><text x="126" y="14" fill="#ffffff">o</text><text x="135" y="14" fill="#ffffff">u</text><text x="144" y="14" fill="#ffffff">r</text><text x="153" y="14" fill="#ffffff">c</text><text x="162" y="14" fill="#ffffff">e</text><text x="180" y="14" fill="#00ff41">─</text><text x="189" y="14" fill="#00ff41">─</text><text x="198" y="14" fill="#00ff41">─</text><text x="207" y="14" fill="#00ff41">─</text><text x="216" y="14" fill="#00ff41">─</text><text x="225" y="14" fill="#00ff41">─</text><text x="234" y="14" fill="#00ff41">─</text><text x="243" y="14" fill="#00ff41">─</text><text x="252" y="14" fill="#00ff41">─</text><text x="261" y="14" fill="#00ff41">─</text><text x="270" y="14" fill="#00ff41">─</text><text x="279" y="14" fill="#00ff41">─</text><text x="288" y="14" fill="#00ff41">─</text><text x="297" y="14" fill="#00ff41">─</text><text x="306" y="14" fill="#00ff41">─</text><text x="315" y="14" fill="#00ff41">─</text><text x="324" y="14" fill="#00ff41">─</text><text x="333" y="14" fill="#00ff41">─</text><text x="342" y="14" fill="#00ff41">─</text><text x="351" y="14" fill="#00ff41">─</text><text x="360" y="14" fill="#00ff41">─</text><text x="369" y="14" fill="#00ff41">─</text><text x="378" y="14" fill="#00ff41">─</text><text x="387" y="14" fill="#00ff41">─</text><text x="396" y="14" fill="#00ff41">─</text><text x="405" y="14" fill="#00ff41">─</text><text x="414" y="14" fill="#00ff41">─</text><text x="423" y="14" fill="#00ff41">─</text><text x="432" y="14" fill="#00ff41">─</text><text x="441" y="14" fill="#00ff41">─</text><text x="450" y="14" fill="#00ff41">─</text><text x="459" y="14" fill="#00ff41">─</text><text x="468" y="14" fill="#00ff41">─</text><text x="477" y="14" fill="#00ff41">─</text><text x="486" y="14" fill="#00ff41">─</text><text x="495" y="14" fill="#00ff41">─</text><text x="504" y="14" fill="#00ff41">─</text><text x="513" y="14" fill="#00ff41">─</text><text x="522" y="14" fill="#00ff41">─</text><text x="531" y="14" fill="#00ff41">─</text><text x="540" y="14" fill="#00ff41">─</text><text x="549" y="14" fill="#00ff41">─</text><text x="558" y="14" fill="#00ff41">─</text><text x="567" y="14" fill="#00ff41">─</text><text x="576" y="14" fill="#00ff41">─</text><text x="585" y="14" fill="#00ff41">─</text><text x="594" y="14" fill="#00ff41">─</text><text x="603" y="14" fill="#00ff41">─</text><text x="612" y="14" fill="#00ff41">─</text><text x="621" y="14" fill="#00ff41">┐</text><text x="0" y="32" fill="#00ff41">│</text><text x="621" y="32" fill="#00ff41">│</text><text x="0" y="50" fill="#00ff41">│</text><text x="36" y="50" fill="#ffffff">T</text><text x="45" y="50" fill="#ffffff">r</text><text x="54" y="50" fill="#ffffff">u</text><text x="63" y="50" fill="#ffffff">s</text><text x="72" y="50" fill="#ffffff">t</text><text x="90" y="50" fill="#ffffff">t</text><text x="99" y="50" fill="#ffffff">h</text><text x="108" y="50" fill="#ffffff">i</text><text x="117" y="50" fill="#ffffff">s</text><text x="135" y="50" fill="#ffffff">r</text><text x="144" y="50" fill="#ffffff">o</text><text x="153" y="50" fill="#ffffff">l</text><text x="162" y="50" fill="#ffffff">e</text><text x="180" y="50" fill="#ffffff">s</text><text x="189" y="50" fill="#ffffff">o</text><text x="198" y="50" fill="#ffffff">u</text><text x="207" y="50" fill="#ffffff">r</text><text x="216" y="50" fill="#ffffff">c</text><text x="225" y="50" fill="#ffffff">e</text><text x="234" y="50" fill="#ffffff">?</text><text x="621" y="50" fill="#00ff41">│</text><text x="0" y="68" fill="#00ff41">│</text><text x="621" y="68" fill="#00ff41">│</text><text x="0" y="86" fill="#00ff41">│</text><text x="36" y="86" fill="#ffffff">R</text><text x="45" y="86" fill="#ffffff">o</text><text x="54" y="86" fill="#ffffff">l</text><text x="63" y="86" fill="#ffffff">e</text><text x="72" y="86" fill="#ffffff">:</text><text x="90" y="86" fill="#00ff41">r</text><text x="99" y="86" fill="#00ff41">u</text><text x="108" y="86" fill="#00ff41">s</text><text x="117" y="86" fill="#00ff41">t</text><text x="621" y="86" fill="#00ff41">│</text><text x="0" y="104" fill="#00ff41">│</text><text x="36" y="104" fill="#ffffff">R</text><text x="45" y="104" fill="#ffffff">e</text><text x="54" y="104" fill="#ffffff">p</text><text x="63" y="104" fill="#ffffff">o</text><text x="72" y="104" fill="#ffffff">s</text><text x="81" y="104" fill="#ffffff">i</text><text x="90" y="104" fill="#ffffff">t</text><text x="99" y="104" fill="#ffffff">o</text><text x="108" y="104" fill="#ffffff">r</text><text x="117" y="104" fill="#ffffff">y</text><text x="126" y="104" fill="#ffffff">:</text><text x="144" y="104" fill="#00ff41">h</text><text x="153" y="104" fill="#00ff41">t</text><text x="162" y="104" fill="#00ff41">t</text><text x="171" y="104" fill="#00ff41">p</text><text x="180" y="104" fill="#00ff41">s</text><text x="189" y="104" fill="#00ff41">:</text><text x="198" y="104" fill="#00ff41">/</text><text x="207" y="104" fill="#00ff41">/</text><text x="216" y="104" fill="#00ff41">g</text><text x="225" y="104" fill="#00ff41">i</text><text x="234" y="104" fill="#00ff41">t</text><text x="243" y="104" fill="#00ff41">h</text><text x="252" y="104" fill="#00ff41">u</text><text x="261" y="104" fill="#00ff41">b</text><text x="270" y="104" fill="#00ff41">.</text><text x="279" y="104" fill="#00ff41">c</text><text x="288" y="104" fill="#00ff41">o</text><text x="297" y="104" fill="#00ff41">m</text><text x="306" y="104" fill="#00ff41">/</text><text x="315" y="104" fill="#00ff41">j</text><text x="324" y="104" fill="#00ff41">a</text><text x="333" y="104" fill="#00ff41">c</text><text x="342" y="104" fill="#00ff41">k</text><text x="351" y="104" fill="#00ff41">i</text><text x="360" y="104" fill="#00ff41">n</text><text x="369" y="104" fill="#00ff41">-</text><text x="378" y="104" fill="#00ff41">p</text><text x="387" y="104" fill="#00ff41">r</text><text x="396" y="104" fill="#00ff41">o</text><text x="405" y="104" fill="#00ff41">j</text><text x="414" y="104" fill="#00ff41">e</text><text x="423" y="104" fill="#00ff41">c</text><text x="432" y="104" fill="#00ff41">t</text><text x="441" y="104" fill="#00ff41">/</text><text x="450" y="104" fill="#00ff41">r</text><text x="459" y="104" fill="#00ff41">o</text><text x="468" y="104" fill="#00ff41">l</text><text x="477" y="104" fill="#00ff41">e</text><text x="486" y="104" fill="#00ff41">s</text><text x="621" y="104" fill="#00ff41">│</text><text x="0" y="122" fill="#00ff41">│</text><text x="621" y="122" fill="#00ff41">│</text><text x="0" y="140" fill="#00ff41">│</text><text x="36" y="140" fill="#ffd85e">!</text><text x="54" y="140" fill="#008c1e">D</text><text x="63" y="140" fill="#008c1e">o</text><text x="72" y="140" fill="#008c1e">c</text><text x="81" y="140" fill="#008c1e">k</text><text x="90" y="140" fill="#008c1e">e</text><text x="99" y="140" fill="#008c1e">r</text><text x="108" y="140" fill="#008c1e">f</text><text x="117" y="140" fill="#008c1e">i</text><text x="126" y="140" fill="#008c1e">l</text><text x="135" y="140" fill="#008c1e">e</text><text x="153" y="140" fill="#008c1e">c</text><text x="162" y="140" fill="#008c1e">a</text><text x="171" y="140" fill="#008c1e">n</text><text x="189" y="140" fill="#008c1e">r</text><text x="198" y="140" fill="#008c1e">u</text><text x="207" y="140" fill="#008c1e">n</text><text x="225" y="140" fill="#008c1e">d</text><text x="234" y="140" fill="#008c1e">u</text><text x="243" y="140" fill="#008c1e">r</text><text x="252" y="140" fill="#008c1e">i</text><text x="261" y="140" fill="#008c1e">n</text><text x="270" y="140" fill="#008c1e">g</text><text x="288" y="140" fill="#008c1e">i</text><text x="297" y="140" fill="#008c1e">m</text><text x="306" y="140" fill="#008c1e">a</text><text x="315" y="140" fill="#008c1e">g</text><text x="324" y="140" fill="#008c1e">e</text><text x="342" y="140" fill="#008c1e">b</text><text x="351" y="140" fill="#008c1e">u</text><text x="360" y="140" fill="#008c1e">i</text><text x="369" y="140" fill="#008c1e">l</text><text x="378" y="140" fill="#008c1e">d</text><text x="387" y="140" fill="#008c1e">s</text><text x="396" y="140" fill="#008c1e">.</text><text x="621" y="140" fill="#00ff41">│</text><text x="0" y="158" fill="#00ff41">│</text><text x="36" y="158" fill="#ffd85e">!</text><text x="54" y="158" fill="#008c1e">T</text><text x="63" y="158" fill="#008c1e">h</text><text x="72" y="158" fill="#008c1e">e</text><text x="90" y="158" fill="#008c1e">r</text><text x="99" y="158" fill="#008c1e">o</text><text x="108" y="158" fill="#008c1e">l</text><text x="117" y="158" fill="#008c1e">e</text><text x="135" y="158" fill="#008c1e">c</text><text x="144" y="158" fill="#008c1e">a</text><text x="153" y="158" fill="#008c1e">n</text><text x="171" y="158" fill="#008c1e">a</text><text x="180" y="158" fill="#008c1e">c</text><text x="189" y="158" fill="#008c1e">c</text><text x="198" y="158" fill="#008c1e">e</text><text x="207" y="158" fill="#008c1e">s</text><text x="216" y="158" fill="#008c1e">s</text><text x="234" y="158" fill="#008c1e">m</text><text x="243" y="158" fill="#008c1e">o</text><text x="252" y="158" fill="#008c1e">u</text><text x="261" y="158" fill="#008c1e">n</text><text x="270" y="158" fill="#008c1e">t</text><text x="279" y="158" fill="#008c1e">e</text><text x="288" y="158" fill="#008c1e">d</text><text x="306" y="158" fill="#008c1e">w</text><text x="315" y="158" fill="#008c1e">o</text><text x="324" y="158" fill="#008c1e">r</text><text x="333" y="158" fill="#008c1e">k</text><text x="342" y="158" fill="#008c1e">s</text><text x="351" y="158" fill="#008c1e">p</text><text x="360" y="158" fill="#008c1e">a</text><text x="369" y="158" fill="#008c1e">c</text><text x="378" y="158" fill="#008c1e">e</text><text x="396" y="158" fill="#008c1e">f</text><text x="405" y="158" fill="#008c1e">i</text><text x="414" y="158" fill="#008c1e">l</text><text x="423" y="158" fill="#008c1e">e</text><text x="432" y="158" fill="#008c1e">s</text><text x="441" y="158" fill="#008c1e">.</text><text x="621" y="158" fill="#00ff41">│</text><text x="0" y="176" fill="#00ff41">│</text><text x="621" y="176" fill="#00ff41">│</text><text x="0" y="194" fill="#00ff41">│</text><text x="261" y="194" fill="#00ff41">Y</text><text x="270" y="194" fill="#00ff41">e</text><text x="279" y="194" fill="#00ff41">s</text><rect x="342" y="180" width="9" height="18" fill="#ffffff"/><rect x="351" y="180" width="9" height="18" fill="#ffffff"/><rect x="360" y="180" width="9" height="18" fill="#ffffff"/><text x="360" y="194" fill="#000000">N</text><rect x="369" y="180" width="9" height="18" fill="#ffffff"/><text x="369" y="194" fill="#000000">o</text><rect x="378" y="180" width="9" height="18" fill="#ffffff"/><rect x="387" y="180" width="9" height="18" fill="#ffffff"/><text x="621" y="194" fill="#00ff41">│</text><text x="0" y="212" fill="#00ff41">│</text><text x="621" y="212" fill="#00ff41">│</text><text x="0" y="230" fill="#00ff41">└</text><text x="9" y="230" fill="#00ff41">─</text><text x="18" y="230" fill="#00ff41">─</text><text x="27" y="230" fill="#00ff41">─</text><text x="36" y="230" fill="#00ff41">─</text><text x="45" y="230" fill="#00ff41">─</text><text x="54" y="230" fill="#00ff41">─</text><text x="63" y="230" fill="#00ff41">─</text><text x="72" y="230" fill="#00ff41">─</text><text x="81" y="230" fill="#00ff41">─</text><text x="90" y="230" fill="#00ff41">─</text><text x="99" y="230" fill="#00ff41">─</text><text x="108" y="230" fill="#00ff41">─</text><text x="117" y="230" fill="#00ff41">─</text><text x="126" y="230" fill="#00ff41">─</text><text x="135" y="230" fill="#00ff41">─</text><text x="144" y="230" fill="#00ff41">─</text><text x="153" y="230" fill="#00ff41">─</text><text x="162" y="230" fill="#00ff41">─</text><text x="171" y="230" fill="#00ff41">─</text><text x="180" y="230" fill="#00ff41">─</text><text x="189" y="230" fill="#00ff41">─</text><text x="198" y="230" fill="#00ff41">─</text><text x="207" y="230" fill="#00ff41">─</text><text x="216" y="230" fill="#00ff41">─</text><text x="225" y="230" fill="#00ff41">─</text><text x="234" y="230" fill="#00ff41">─</text><text x="243" y="230" fill="#00ff41">─</text><text x="252" y="230" fill="#00ff41">─</text><text x="261" y="230" fill="#00ff41">─</text><text x="270" y="230" fill="#00ff41">─</text><text x="279" y="230" fill="#00ff41">─</text><text x="288" y="230" fill="#00ff41">─</text><text x="297" y="230" fill="#00ff41">─</text><text x="306" y="230" fill="#00ff41">─</text><text x="315" y="230" fill="#00ff41">─</text><text x="324" y="230" fill="#00ff41">─</text><text x="333" y="230" fill="#00ff41">─</text><text x="342" y="230" fill="#00ff41">─</text><text x="351" y="230" fill="#00ff41">─</text><text x="360" y="230" fill="#00ff41">─</text><text x="369" y="230" fill="#00ff41">─</text><text x="378" y="230" fill="#00ff41">─</text><text x="387" y="230" fill="#00ff41">─</text><text x="396" y="230" fill="#00ff41">─</text><text x="405" y="230" fill="#00ff41">─</text><text x="414" y="230" fill="#00ff41">─</text><text x="423" y="230" fill="#00ff41">─</text><text x="432" y="230" fill="#00ff41">─</text><text x="441" y="230" fill="#00ff41">─</text><text x="450" y="230" fill="#00ff41">─</text><text x="459" y="230" fill="#00ff41">─</text><text x="468" y="230" fill="#00ff41">─</text><text x="477" y="230" fill="#00ff41">─</text><text x="486" y="230" fill="#00ff41">─</text><text x="495" y="230" fill="#00ff41">─</text><text x="504" y="230" fill="#00ff41">─</text><text x="513" y="230" fill="#00ff41">─</text><text x="522" y="230" fill="#00ff41">─</text><text x="531" y="230" fill="#00ff41">─</text><text x="540" y="230" fill="#00ff41">─</text><text x="549" y="230" fill="#00ff41">─</text><text x="558" y="230" fill="#00ff41">─</text><text x="567" y="230" fill="#00ff41">─</text><text x="576" y="230" fill="#00ff41">─</text><text x="585" y="230" fill="#00ff41">─</text><text x="594" y="230" fill="#00ff41">─</text><text x="603" y="230" fill="#00ff41">─</text><text x="612" y="230" fill="#00ff41">─</text><text x="621" y="230" fill="#00ff41">┘</text></g></svg>
