<svg xmlns="http://www.w3.org/2000/svg" width="432" height="126" viewBox="0 0 432 126" role="img" aria-label="Confirm dialog"><rect width="100%" height="100%" fill="#000000"/><g font-family="ui-monospace, SFMono-Regular, Menlo, Consolas, monospace" font-size="14"><rect x="0" y="0" width="9" height="18" fill="#ffffff"/><text x="0" y="14" fill="#005012">┌</text><rect x="9" y="0" width="9" height="18" fill="#ffffff"/><rect x="18" y="0" width="9" height="18" fill="#ffffff"/><text x="18" y="14" fill="#ffffff">C</text><rect x="27" y="0" width="9" height="18" fill="#ffffff"/><text x="27" y="14" fill="#ffffff">o</text><rect x="36" y="0" width="9" height="18" fill="#ffffff"/><text x="36" y="14" fill="#ffffff">n</text><rect x="45" y="0" width="9" height="18" fill="#ffffff"/><text x="45" y="14" fill="#ffffff">f</text><rect x="54" y="0" width="9" height="18" fill="#ffffff"/><text x="54" y="14" fill="#ffffff">i</text><rect x="63" y="0" width="9" height="18" fill="#ffffff"/><text x="63" y="14" fill="#ffffff">r</text><rect x="72" y="0" width="9" height="18" fill="#ffffff"/><text x="72" y="14" fill="#ffffff">m</text><rect x="81" y="0" width="9" height="18" fill="#ffffff"/><rect x="90" y="0" width="9" height="18" fill="#ffffff"/><text x="90" y="14" fill="#005012">─</text><rect x="99" y="0" width="9" height="18" fill="#ffffff"/><text x="99" y="14" fill="#005012">─</text><rect x="108" y="0" width="9" height="18" fill="#ffffff"/><text x="108" y="14" fill="#005012">─</text><rect x="117" y="0" width="9" height="18" fill="#ffffff"/><text x="117" y="14" fill="#005012">─</text><rect x="126" y="0" width="9" height="18" fill="#ffffff"/><text x="126" y="14" fill="#005012">─</text><rect x="135" y="0" width="9" height="18" fill="#ffffff"/><text x="135" y="14" fill="#005012">─</text><rect x="144" y="0" width="9" height="18" fill="#ffffff"/><text x="144" y="14" fill="#005012">─</text><rect x="153" y="0" width="9" height="18" fill="#ffffff"/><text x="153" y="14" fill="#005012">─</text><rect x="162" y="0" width="9" height="18" fill="#ffffff"/><text x="162" y="14" fill="#005012">─</text><rect x="171" y="0" width="9" height="18" fill="#ffffff"/><text x="171" y="14" fill="#005012">─</text><rect x="180" y="0" width="9" height="18" fill="#ffffff"/><text x="180" y="14" fill="#005012">─</text><rect x="189" y="0" width="9" height="18" fill="#ffffff"/><text x="189" y="14" fill="#005012">─</text><rect x="198" y="0" width="9" height="18" fill="#ffffff"/><text x="198" y="14" fill="#005012">─</text><rect x="207" y="0" width="9" height="18" fill="#ffffff"/><text x="207" y="14" fill="#005012">─</text><rect x="216" y="0" width="9" height="18" fill="#ffffff"/><text x="216" y="14" fill="#005012">─</text><rect x="225" y="0" width="9" height="18" fill="#ffffff"/><text x="225" y="14" fill="#005012">─</text><rect x="234" y="0" width="9" height="18" fill="#ffffff"/><text x="234" y="14" fill="#005012">─</text><rect x="243" y="0" width="9" height="18" fill="#ffffff"/><text x="243" y="14" fill="#005012">─</text><rect x="252" y="0" width="9" height="18" fill="#ffffff"/><text x="252" y="14" fill="#005012">─</text><rect x="261" y="0" width="9" height="18" fill="#ffffff"/><text x="261" y="14" fill="#005012">─</text><rect x="270" y="0" width="9" height="18" fill="#ffffff"/><text x="270" y="14" fill="#005012">─</text><rect x="279" y="0" width="9" height="18" fill="#ffffff"/><text x="279" y="14" fill="#005012">─</text><rect x="288" y="0" width="9" height="18" fill="#ffffff"/><text x="288" y="14" fill="#005012">─</text><rect x="297" y="0" width="9" height="18" fill="#ffffff"/><text x="297" y="14" fill="#005012">─</text><rect x="306" y="0" width="9" height="18" fill="#ffffff"/><text x="306" y="14" fill="#005012">─</text><rect x="315" y="0" width="9" height="18" fill="#ffffff"/><text x="315" y="14" fill="#005012">─</text><rect x="324" y="0" width="9" height="18" fill="#ffffff"/><text x="324" y="14" fill="#005012">─</text><rect x="333" y="0" width="9" height="18" fill="#ffffff"/><text x="333" y="14" fill="#005012">─</text><rect x="342" y="0" width="9" height="18" fill="#ffffff"/><text x="342" y="14" fill="#005012">─</text><rect x="351" y="0" width="9" height="18" fill="#ffffff"/><text x="351" y="14" fill="#005012">─</text><rect x="360" y="0" width="9" height="18" fill="#ffffff"/><text x="360" y="14" fill="#005012">─</text><rect x="369" y="0" width="9" height="18" fill="#ffffff"/><text x="369" y="14" fill="#005012">─</text><rect x="378" y="0" width="9" height="18" fill="#ffffff"/><text x="378" y="14" fill="#005012">─</text><rect x="387" y="0" width="9" height="18" fill="#ffffff"/><text x="387" y="14" fill="#005012">─</text><rect x="396" y="0" width="9" height="18" fill="#ffffff"/><text x="396" y="14" fill="#005012">─</text><rect x="405" y="0" width="9" height="18" fill="#ffffff"/><text x="405" y="14" fill="#005012">─</text><rect x="414" y="0" width="9" height="18" fill="#ffffff"/><text x="414" y="14" fill="#005012">─</text><rect x="423" y="0" width="9" height="18" fill="#ffffff"/><text x="423" y="14" fill="#005012">┐</text><rect x="0" y="18" width="9" height="18" fill="#ffffff"/><text x="0" y="32" fill="#005012">│</text><rect x="9" y="18" width="9" height="18" fill="#ffffff"/><rect x="18" y="18" width="9" height="18" fill="#ffffff"/><rect x="27" y="18" width="9" height="18" fill="#ffffff"/><rect x="36" y="18" width="9" height="18" fill="#ffffff"/><rect x="45" y="18" width="9" height="18" fill="#ffffff"/><rect x="54" y="18" width="9" height="18" fill="#ffffff"/><rect x="63" y="18" width="9" height="18" fill="#ffffff"/><rect x="72" y="18" width="9" height="18" fill="#ffffff"/><rect x="81" y="18" width="9" height="18" fill="#ffffff"/><rect x="90" y="18" width="9" height="18" fill="#ffffff"/><rect x="99" y="18" width="9" height="18" fill="#ffffff"/><rect x="108" y="18" width="9" height="18" fill="#ffffff"/><rect x="117" y="18" width="9" height="18" fill="#ffffff"/><rect x="126" y="18" width="9" height="18" fill="#ffffff"/><rect x="135" y="18" width="9" height="18" fill="#ffffff"/><rect x="144" y="18" width="9" height="18" fill="#ffffff"/><text x="144" y="32" fill="#ffffff">D</text><rect x="153" y="18" width="9" height="18" fill="#ffffff"/><text x="153" y="32" fill="#ffffff">e</text><rect x="162" y="18" width="9" height="18" fill="#ffffff"/><text x="162" y="32" fill="#ffffff">l</text><rect x="171" y="18" width="9" height="18" fill="#ffffff"/><text x="171" y="32" fill="#ffffff">e</text><rect x="180" y="18" width="9" height="18" fill="#ffffff"/><text x="180" y="32" fill="#ffffff">t</text><rect x="189" y="18" width="9" height="18" fill="#ffffff"/><text x="189" y="32" fill="#ffffff">e</text><rect x="198" y="18" width="9" height="18" fill="#ffffff"/><rect x="207" y="18" width="9" height="18" fill="#ffffff"/><text x="207" y="32" fill="#ffffff">w</text><rect x="216" y="18" width="9" height="18" fill="#ffffff"/><text x="216" y="32" fill="#ffffff">o</text><rect x="225" y="18" width="9" height="18" fill="#ffffff"/><text x="225" y="32" fill="#ffffff">r</text><rect x="234" y="18" width="9" height="18" fill="#ffffff"/><text x="234" y="32" fill="#ffffff">k</text><rect x="243" y="18" width="9" height="18" fill="#ffffff"/><text x="243" y="32" fill="#ffffff">s</text><rect x="252" y="18" width="9" height="18" fill="#ffffff"/><text x="252" y="32" fill="#ffffff">p</text><rect x="261" y="18" width="9" height="18" fill="#ffffff"/><text x="261" y="32" fill="#ffffff">a</text><rect x="270" y="18" width="9" height="18" fill="#ffffff"/><text x="270" y="32" fill="#ffffff">c</text><rect x="279" y="18" width="9" height="18" fill="#ffffff"/><text x="279" y="32" fill="#ffffff">e</text><rect x="288" y="18" width="9" height="18" fill="#ffffff"/><text x="288" y="32" fill="#ffffff">?</text><rect x="297" y="18" width="9" height="18" fill="#ffffff"/><rect x="306" y="18" width="9" height="18" fill="#ffffff"/><rect x="315" y="18" width="9" height="18" fill="#ffffff"/><rect x="324" y="18" width="9" height="18" fill="#ffffff"/><rect x="333" y="18" width="9" height="18" fill="#ffffff"/><rect x="342" y="18" width="9" height="18" fill="#ffffff"/><rect x="351" y="18" width="9" height="18" fill="#ffffff"/><rect x="360" y="18" width="9" height="18" fill="#ffffff"/><rect x="369" y="18" width="9" height="18" fill="#ffffff"/><rect x="378" y="18" width="9" height="18" fill="#ffffff"/><rect x="387" y="18" width="9" height="18" fill="#ffffff"/><rect x="396" y="18" width="9" height="18" fill="#ffffff"/><rect x="405" y="18" width="9" height="18" fill="#ffffff"/><rect x="414" y="18" width="9" height="18" fill="#ffffff"/><rect x="423" y="18" width="9" height="18" fill="#ffffff"/><text x="423" y="32" fill="#005012">│</text><rect x="0" y="36" width="9" height="18" fill="#ffffff"/><text x="0" y="50" fill="#005012">│</text><rect x="9" y="36" width="9" height="18" fill="#ffffff"/><rect x="18" y="36" width="9" height="18" fill="#ffffff"/><rect x="27" y="36" width="9" height="18" fill="#ffffff"/><rect x="36" y="36" width="9" height="18" fill="#ffffff"/><rect x="45" y="36" width="9" height="18" fill="#ffffff"/><rect x="54" y="36" width="9" height="18" fill="#ffffff"/><rect x="63" y="36" width="9" height="18" fill="#ffffff"/><rect x="72" y="36" width="9" height="18" fill="#ffffff"/><rect x="81" y="36" width="9" height="18" fill="#ffffff"/><rect x="90" y="36" width="9" height="18" fill="#ffffff"/><rect x="99" y="36" width="9" height="18" fill="#ffffff"/><rect x="108" y="36" width="9" height="18" fill="#ffffff"/><rect x="117" y="36" width="9" height="18" fill="#ffffff"/><rect x="126" y="36" width="9" height="18" fill="#ffffff"/><rect x="135" y="36" width="9" height="18" fill="#ffffff"/><rect x="144" y="36" width="9" height="18" fill="#ffffff"/><rect x="153" y="36" width="9" height="18" fill="#ffffff"/><rect x="162" y="36" width="9" height="18" fill="#ffffff"/><rect x="171" y="36" width="9" height="18" fill="#ffffff"/><rect x="180" y="36" width="9" height="18" fill="#ffffff"/><rect x="189" y="36" width="9" height="18" fill="#ffffff"/><rect x="198" y="36" width="9" height="18" fill="#ffffff"/><rect x="207" y="36" width="9" height="18" fill="#ffffff"/><rect x="216" y="36" width="9" height="18" fill="#ffffff"/><rect x="225" y="36" width="9" height="18" fill="#ffffff"/><rect x="234" y="36" width="9" height="18" fill="#ffffff"/><rect x="243" y="36" width="9" height="18" fill="#ffffff"/><rect x="252" y="36" width="9" height="18" fill="#ffffff"/><rect x="261" y="36" width="9" height="18" fill="#ffffff"/><rect x="270" y="36" width="9" height="18" fill="#ffffff"/><rect x="279" y="36" width="9" height="18" fill="#ffffff"/><rect x="288" y="36" width="9" height="18" fill="#ffffff"/><rect x="297" y="36" width="9" height="18" fill="#ffffff"/><rect x="306" y="36" width="9" height="18" fill="#ffffff"/><rect x="315" y="36" width="9" height="18" fill="#ffffff"/><rect x="324" y="36" width="9" height="18" fill="#ffffff"/><rect x="333" y="36" width="9" height="18" fill="#ffffff"/><rect x="342" y="36" width="9" height="18" fill="#ffffff"/><rect x="351" y="36" width="9" height="18" fill="#ffffff"/><rect x="360" y="36" width="9" height="18" fill="#ffffff"/><rect x="369" y="36" width="9" height="18" fill="#ffffff"/><rect x="378" y="36" width="9" height="18" fill="#ffffff"/><rect x="387" y="36" width="9" height="18" fill="#ffffff"/><rect x="396" y="36" width="9" height="18" fill="#ffffff"/><rect x="405" y="36" width="9" height="18" fill="#ffffff"/><rect x="414" y="36" width="9" height="18" fill="#ffffff"/><rect x="423" y="36" width="9" height="18" fill="#ffffff"/><text x="423" y="50" fill="#005012">│</text><rect x="0" y="54" width="9" height="18" fill="#ffffff"/><text x="0" y="68" fill="#005012">│</text><rect x="9" y="54" width="9" height="18" fill="#ffffff"/><rect x="18" y="54" width="9" height="18" fill="#ffffff"/><rect x="27" y="54" width="9" height="18" fill="#ffffff"/><rect x="36" y="54" width="9" height="18" fill="#ffffff"/><rect x="45" y="54" width="9" height="18" fill="#ffffff"/><rect x="54" y="54" width="9" height="18" fill="#ffffff"/><rect x="63" y="54" width="9" height="18" fill="#ffffff"/><rect x="72" y="54" width="9" height="18" fill="#ffffff"/><rect x="81" y="54" width="9" height="18" fill="#ffffff"/><rect x="90" y="54" width="9" height="18" fill="#ffffff"/><rect x="99" y="54" width="9" height="18" fill="#ffffff"/><rect x="108" y="54" width="9" height="18" fill="#ffffff"/><rect x="117" y="54" width="9" height="18" fill="#ffffff"/><rect x="126" y="54" width="9" height="18" fill="#ffffff"/><rect x="135" y="54" width="9" height="18" fill="#ffffff"/><rect x="144" y="54" width="9" height="18" fill="#ffffff"/><rect x="153" y="54" width="9" height="18" fill="#ffffff"/><rect x="162" y="54" width="9" height="18" fill="#ffffff"/><text x="162" y="68" fill="#00ff41">Y</text><rect x="171" y="54" width="9" height="18" fill="#ffffff"/><text x="171" y="68" fill="#00ff41">e</text><rect x="180" y="54" width="9" height="18" fill="#ffffff"/><text x="180" y="68" fill="#00ff41">s</text><rect x="189" y="54" width="9" height="18" fill="#ffffff"/><rect x="198" y="54" width="9" height="18" fill="#ffffff"/><rect x="207" y="54" width="9" height="18" fill="#ffffff"/><rect x="216" y="54" width="9" height="18" fill="#ffffff"/><rect x="225" y="54" width="9" height="18" fill="#ffffff"/><rect x="234" y="54" width="9" height="18" fill="#ffffff"/><rect x="243" y="54" width="9" height="18" fill="#ffffff"/><rect x="252" y="54" width="9" height="18" fill="#ffffff"/><rect x="261" y="54" width="9" height="18" fill="#ffffff"/><text x="261" y="68" fill="#000000">N</text><rect x="270" y="54" width="9" height="18" fill="#ffffff"/><text x="270" y="68" fill="#000000">o</text><rect x="279" y="54" width="9" height="18" fill="#ffffff"/><rect x="288" y="54" width="9" height="18" fill="#ffffff"/><rect x="297" y="54" width="9" height="18" fill="#ffffff"/><rect x="306" y="54" width="9" height="18" fill="#ffffff"/><rect x="315" y="54" width="9" height="18" fill="#ffffff"/><rect x="324" y="54" width="9" height="18" fill="#ffffff"/><rect x="333" y="54" width="9" height="18" fill="#ffffff"/><rect x="342" y="54" width="9" height="18" fill="#ffffff"/><rect x="351" y="54" width="9" height="18" fill="#ffffff"/><rect x="360" y="54" width="9" height="18" fill="#ffffff"/><rect x="369" y="54" width="9" height="18" fill="#ffffff"/><rect x="378" y="54" width="9" height="18" fill="#ffffff"/><rect x="387" y="54" width="9" height="18" fill="#ffffff"/><rect x="396" y="54" width="9" height="18" fill="#ffffff"/><rect x="405" y="54" width="9" height="18" fill="#ffffff"/><rect x="414" y="54" width="9" height="18" fill="#ffffff"/><rect x="423" y="54" width="9" height="18" fill="#ffffff"/><text x="423" y="68" fill="#005012">│</text><rect x="0" y="72" width="9" height="18" fill="#ffffff"/><text x="0" y="86" fill="#005012">│</text><rect x="9" y="72" width="9" height="18" fill="#ffffff"/><rect x="18" y="72" width="9" height="18" fill="#ffffff"/><rect x="27" y="72" width="9" height="18" fill="#ffffff"/><rect x="36" y="72" width="9" height="18" fill="#ffffff"/><rect x="45" y="72" width="9" height="18" fill="#ffffff"/><rect x="54" y="72" width="9" height="18" fill="#ffffff"/><rect x="63" y="72" width="9" height="18" fill="#ffffff"/><rect x="72" y="72" width="9" height="18" fill="#ffffff"/><rect x="81" y="72" width="9" height="18" fill="#ffffff"/><rect x="90" y="72" width="9" height="18" fill="#ffffff"/><rect x="99" y="72" width="9" height="18" fill="#ffffff"/><rect x="108" y="72" width="9" height="18" fill="#ffffff"/><rect x="117" y="72" width="9" height="18" fill="#ffffff"/><rect x="126" y="72" width="9" height="18" fill="#ffffff"/><rect x="135" y="72" width="9" height="18" fill="#ffffff"/><rect x="144" y="72" width="9" height="18" fill="#ffffff"/><rect x="153" y="72" width="9" height="18" fill="#ffffff"/><rect x="162" y="72" width="9" height="18" fill="#ffffff"/><rect x="171" y="72" width="9" height="18" fill="#ffffff"/><rect x="180" y="72" width="9" height="18" fill="#ffffff"/><rect x="189" y="72" width="9" height="18" fill="#ffffff"/><rect x="198" y="72" width="9" height="18" fill="#ffffff"/><rect x="207" y="72" width="9" height="18" fill="#ffffff"/><rect x="216" y="72" width="9" height="18" fill="#ffffff"/><rect x="225" y="72" width="9" height="18" fill="#ffffff"/><rect x="234" y="72" width="9" height="18" fill="#ffffff"/><rect x="243" y="72" width="9" height="18" fill="#ffffff"/><rect x="252" y="72" width="9" height="18" fill="#ffffff"/><rect x="261" y="72" width="9" height="18" fill="#ffffff"/><rect x="270" y="72" width="9" height="18" fill="#ffffff"/><rect x="279" y="72" width="9" height="18" fill="#ffffff"/><rect x="288" y="72" width="9" height="18" fill="#ffffff"/><rect x="297" y="72" width="9" height="18" fill="#ffffff"/><rect x="306" y="72" width="9" height="18" fill="#ffffff"/><rect x="315" y="72" width="9" height="18" fill="#ffffff"/><rect x="324" y="72" width="9" height="18" fill="#ffffff"/><rect x="333" y="72" width="9" height="18" fill="#ffffff"/><rect x="342" y="72" width="9" height="18" fill="#ffffff"/><rect x="351" y="72" width="9" height="18" fill="#ffffff"/><rect x="360" y="72" width="9" height="18" fill="#ffffff"/><rect x="369" y="72" width="9" height="18" fill="#ffffff"/><rect x="378" y="72" width="9" height="18" fill="#ffffff"/><rect x="387" y="72" width="9" height="18" fill="#ffffff"/><rect x="396" y="72" width="9" height="18" fill="#ffffff"/><rect x="405" y="72" width="9" height="18" fill="#ffffff"/><rect x="414" y="72" width="9" height="18" fill="#ffffff"/><rect x="423" y="72" width="9" height="18" fill="#ffffff"/><text x="423" y="86" fill="#005012">│</text><rect x="0" y="90" width="9" height="18" fill="#ffffff"/><text x="0" y="104" fill="#005012">│</text><rect x="9" y="90" width="9" height="18" fill="#ffffff"/><rect x="18" y="90" width="9" height="18" fill="#ffffff"/><rect x="27" y="90" width="9" height="18" fill="#ffffff"/><rect x="36" y="90" width="9" height="18" fill="#ffffff"/><rect x="45" y="90" width="9" height="18" fill="#ffffff"/><rect x="54" y="90" width="9" height="18" fill="#ffffff"/><rect x="63" y="90" width="9" height="18" fill="#ffffff"/><rect x="72" y="90" width="9" height="18" fill="#ffffff"/><rect x="81" y="90" width="9" height="18" fill="#ffffff"/><rect x="90" y="90" width="9" height="18" fill="#ffffff"/><rect x="99" y="90" width="9" height="18" fill="#ffffff"/><rect x="108" y="90" width="9" height="18" fill="#ffffff"/><rect x="117" y="90" width="9" height="18" fill="#ffffff"/><rect x="126" y="90" width="9" height="18" fill="#ffffff"/><rect x="135" y="90" width="9" height="18" fill="#ffffff"/><rect x="144" y="90" width="9" height="18" fill="#ffffff"/><rect x="153" y="90" width="9" height="18" fill="#ffffff"/><rect x="162" y="90" width="9" height="18" fill="#ffffff"/><rect x="171" y="90" width="9" height="18" fill="#ffffff"/><rect x="180" y="90" width="9" height="18" fill="#ffffff"/><rect x="189" y="90" width="9" height="18" fill="#ffffff"/><rect x="198" y="90" width="9" height="18" fill="#ffffff"/><rect x="207" y="90" width="9" height="18" fill="#ffffff"/><rect x="216" y="90" width="9" height="18" fill="#ffffff"/><rect x="225" y="90" width="9" height="18" fill="#ffffff"/><rect x="234" y="90" width="9" height="18" fill="#ffffff"/><rect x="243" y="90" width="9" height="18" fill="#ffffff"/><rect x="252" y="90" width="9" height="18" fill="#ffffff"/><rect x="261" y="90" width="9" height="18" fill="#ffffff"/><rect x="270" y="90" width="9" height="18" fill="#ffffff"/><rect x="279" y="90" width="9" height="18" fill="#ffffff"/><rect x="288" y="90" width="9" height="18" fill="#ffffff"/><rect x="297" y="90" width="9" height="18" fill="#ffffff"/><rect x="306" y="90" width="9" height="18" fill="#ffffff"/><rect x="315" y="90" width="9" height="18" fill="#ffffff"/><rect x="324" y="90" width="9" height="18" fill="#ffffff"/><rect x="333" y="90" width="9" height="18" fill="#ffffff"/><rect x="342" y="90" width="9" height="18" fill="#ffffff"/><rect x="351" y="90" width="9" height="18" fill="#ffffff"/><rect x="360" y="90" width="9" height="18" fill="#ffffff"/><rect x="369" y="90" width="9" height="18" fill="#ffffff"/><rect x="378" y="90" width="9" height="18" fill="#ffffff"/><rect x="387" y="90" width="9" height="18" fill="#ffffff"/><rect x="396" y="90" width="9" height="18" fill="#ffffff"/><rect x="405" y="90" width="9" height="18" fill="#ffffff"/><rect x="414" y="90" width="9" height="18" fill="#ffffff"/><rect x="423" y="90" width="9" height="18" fill="#ffffff"/><text x="423" y="104" fill="#005012">│</text><rect x="0" y="108" width="9" height="18" fill="#ffffff"/><text x="0" y="122" fill="#005012">└</text><rect x="9" y="108" width="9" height="18" fill="#ffffff"/><text x="9" y="122" fill="#005012">─</text><rect x="18" y="108" width="9" height="18" fill="#ffffff"/><text x="18" y="122" fill="#005012">─</text><rect x="27" y="108" width="9" height="18" fill="#ffffff"/><text x="27" y="122" fill="#005012">─</text><rect x="36" y="108" width="9" height="18" fill="#ffffff"/><text x="36" y="122" fill="#005012">─</text><rect x="45" y="108" width="9" height="18" fill="#ffffff"/><text x="45" y="122" fill="#005012">─</text><rect x="54" y="108" width="9" height="18" fill="#ffffff"/><text x="54" y="122" fill="#005012">─</text><rect x="63" y="108" width="9" height="18" fill="#ffffff"/><text x="63" y="122" fill="#005012">─</text><rect x="72" y="108" width="9" height="18" fill="#ffffff"/><text x="72" y="122" fill="#005012">─</text><rect x="81" y="108" width="9" height="18" fill="#ffffff"/><text x="81" y="122" fill="#005012">─</text><rect x="90" y="108" width="9" height="18" fill="#ffffff"/><text x="90" y="122" fill="#005012">─</text><rect x="99" y="108" width="9" height="18" fill="#ffffff"/><text x="99" y="122" fill="#005012">─</text><rect x="108" y="108" width="9" height="18" fill="#ffffff"/><text x="108" y="122" fill="#005012">─</text><rect x="117" y="108" width="9" height="18" fill="#ffffff"/><text x="117" y="122" fill="#005012">─</text><rect x="126" y="108" width="9" height="18" fill="#ffffff"/><text x="126" y="122" fill="#005012">─</text><rect x="135" y="108" width="9" height="18" fill="#ffffff"/><text x="135" y="122" fill="#005012">─</text><rect x="144" y="108" width="9" height="18" fill="#ffffff"/><text x="144" y="122" fill="#005012">─</text><rect x="153" y="108" width="9" height="18" fill="#ffffff"/><text x="153" y="122" fill="#005012">─</text><rect x="162" y="108" width="9" height="18" fill="#ffffff"/><text x="162" y="122" fill="#005012">─</text><rect x="171" y="108" width="9" height="18" fill="#ffffff"/><text x="171" y="122" fill="#005012">─</text><rect x="180" y="108" width="9" height="18" fill="#ffffff"/><text x="180" y="122" fill="#005012">─</text><rect x="189" y="108" width="9" height="18" fill="#ffffff"/><text x="189" y="122" fill="#005012">─</text><rect x="198" y="108" width="9" height="18" fill="#ffffff"/><text x="198" y="122" fill="#005012">─</text><rect x="207" y="108" width="9" height="18" fill="#ffffff"/><text x="207" y="122" fill="#005012">─</text><rect x="216" y="108" width="9" height="18" fill="#ffffff"/><text x="216" y="122" fill="#005012">─</text><rect x="225" y="108" width="9" height="18" fill="#ffffff"/><text x="225" y="122" fill="#005012">─</text><rect x="234" y="108" width="9" height="18" fill="#ffffff"/><text x="234" y="122" fill="#005012">─</text><rect x="243" y="108" width="9" height="18" fill="#ffffff"/><text x="243" y="122" fill="#005012">─</text><rect x="252" y="108" width="9" height="18" fill="#ffffff"/><text x="252" y="122" fill="#005012">─</text><rect x="261" y="108" width="9" height="18" fill="#ffffff"/><text x="261" y="122" fill="#005012">─</text><rect x="270" y="108" width="9" height="18" fill="#ffffff"/><text x="270" y="122" fill="#005012">─</text><rect x="279" y="108" width="9" height="18" fill="#ffffff"/><text x="279" y="122" fill="#005012">─</text><rect x="288" y="108" width="9" height="18" fill="#ffffff"/><text x="288" y="122" fill="#005012">─</text><rect x="297" y="108" width="9" height="18" fill="#ffffff"/><text x="297" y="122" fill="#005012">─</text><rect x="306" y="108" width="9" height="18" fill="#ffffff"/><text x="306" y="122" fill="#005012">─</text><rect x="315" y="108" width="9" height="18" fill="#ffffff"/><text x="315" y="122" fill="#005012">─</text><rect x="324" y="108" width="9" height="18" fill="#ffffff"/><text x="324" y="122" fill="#005012">─</text><rect x="333" y="108" width="9" height="18" fill="#ffffff"/><text x="333" y="122" fill="#005012">─</text><rect x="342" y="108" width="9" height="18" fill="#ffffff"/><text x="342" y="122" fill="#005012">─</text><rect x="351" y="108" width="9" height="18" fill="#ffffff"/><text x="351" y="122" fill="#005012">─</text><rect x="360" y="108" width="9" height="18" fill="#ffffff"/><text x="360" y="122" fill="#005012">─</text><rect x="369" y="108" width="9" height="18" fill="#ffffff"/><text x="369" y="122" fill="#005012">─</text><rect x="378" y="108" width="9" height="18" fill="#ffffff"/><text x="378" y="122" fill="#005012">─</text><rect x="387" y="108" width="9" height="18" fill="#ffffff"/><text x="387" y="122" fill="#005012">─</text><rect x="396" y="108" width="9" height="18" fill="#ffffff"/><text x="396" y="122" fill="#005012">─</text><rect x="405" y="108" width="9" height="18" fill="#ffffff"/><text x="405" y="122" fill="#005012">─</text><rect x="414" y="108" width="9" height="18" fill="#ffffff"/><text x="414" y="122" fill="#005012">─</text><rect x="423" y="108" width="9" height="18" fill="#ffffff"/><text x="423" y="122" fill="#005012">┘</text></g></svg>
