<svg xmlns="http://www.w3.org/2000/svg" width="558" height="162" viewBox="0 0 558 162" role="img" aria-label="Error dialog" style="background:#000000"><rect width="100%" height="100%" fill="#000000"/><g font-family="ui-monospace, SFMono-Regular, Menlo, Consolas, monospace" font-size="14"><rect x="0" y="0" width="9" height="18" fill="#ffffff"/><text x="0" y="14" fill="#ff5e7a">┌</text><rect x="9" y="0" width="9" height="18" fill="#ffffff"/><rect x="18" y="0" width="9" height="18" fill="#ffffff"/><text x="18" y="14" fill="#ff5e7a">L</text><rect x="27" y="0" width="9" height="18" fill="#ffffff"/><text x="27" y="14" fill="#ff5e7a">a</text><rect x="36" y="0" width="9" height="18" fill="#ffffff"/><text x="36" y="14" fill="#ff5e7a">u</text><rect x="45" y="0" width="9" height="18" fill="#ffffff"/><text x="45" y="14" fill="#ff5e7a">n</text><rect x="54" y="0" width="9" height="18" fill="#ffffff"/><text x="54" y="14" fill="#ff5e7a">c</text><rect x="63" y="0" width="9" height="18" fill="#ffffff"/><text x="63" y="14" fill="#ff5e7a">h</text><rect x="72" y="0" width="9" height="18" fill="#ffffff"/><rect x="81" y="0" width="9" height="18" fill="#ffffff"/><text x="81" y="14" fill="#ff5e7a">f</text><rect x="90" y="0" width="9" height="18" fill="#ffffff"/><text x="90" y="14" fill="#ff5e7a">a</text><rect x="99" y="0" width="9" height="18" fill="#ffffff"/><text x="99" y="14" fill="#ff5e7a">i</text><rect x="108" y="0" width="9" height="18" fill="#ffffff"/><text x="108" y="14" fill="#ff5e7a">l</text><rect x="117" y="0" width="9" height="18" fill="#ffffff"/><text x="117" y="14" fill="#ff5e7a">e</text><rect x="126" y="0" width="9" height="18" fill="#ffffff"/><text x="126" y="14" fill="#ff5e7a">d</text><rect x="135" y="0" width="9" height="18" fill="#ffffff"/><rect x="144" y="0" width="9" height="18" fill="#ffffff"/><text x="144" y="14" fill="#ff5e7a">─</text><rect x="153" y="0" width="9" height="18" fill="#ffffff"/><text x="153" y="14" fill="#ff5e7a">─</text><rect x="162" y="0" width="9" height="18" fill="#ffffff"/><text x="162" y="14" fill="#ff5e7a">─</text><rect x="171" y="0" width="9" height="18" fill="#ffffff"/><text x="171" y="14" fill="#ff5e7a">─</text><rect x="180" y="0" width="9" height="18" fill="#ffffff"/><text x="180" y="14" fill="#ff5e7a">─</text><rect x="189" y="0" width="9" height="18" fill="#ffffff"/><text x="189" y="14" fill="#ff5e7a">─</text><rect x="198" y="0" width="9" height="18" fill="#ffffff"/><text x="198" y="14" fill="#ff5e7a">─</text><rect x="207" y="0" width="9" height="18" fill="#ffffff"/><text x="207" y="14" fill="#ff5e7a">─</text><rect x="216" y="0" width="9" height="18" fill="#ffffff"/><text x="216" y="14" fill="#ff5e7a">─</text><rect x="225" y="0" width="9" height="18" fill="#ffffff"/><text x="225" y="14" fill="#ff5e7a">─</text><rect x="234" y="0" width="9" height="18" fill="#ffffff"/><text x="234" y="14" fill="#ff5e7a">─</text><rect x="243" y="0" width="9" height="18" fill="#ffffff"/><text x="243" y="14" fill="#ff5e7a">─</text><rect x="252" y="0" width="9" height="18" fill="#ffffff"/><text x="252" y="14" fill="#ff5e7a">─</text><rect x="261" y="0" width="9" height="18" fill="#ffffff"/><text x="261" y="14" fill="#ff5e7a">─</text><rect x="270" y="0" width="9" height="18" fill="#ffffff"/><text x="270" y="14" fill="#ff5e7a">─</text><rect x="279" y="0" width="9" height="18" fill="#ffffff"/><text x="279" y="14" fill="#ff5e7a">─</text><rect x="288" y="0" width="9" height="18" fill="#ffffff"/><text x="288" y="14" fill="#ff5e7a">─</text><rect x="297" y="0" width="9" height="18" fill="#ffffff"/><text x="297" y="14" fill="#ff5e7a">─</text><rect x="306" y="0" width="9" height="18" fill="#ffffff"/><text x="306" y="14" fill="#ff5e7a">─</text><rect x="315" y="0" width="9" height="18" fill="#ffffff"/><text x="315" y="14" fill="#ff5e7a">─</text><rect x="324" y="0" width="9" height="18" fill="#ffffff"/><text x="324" y="14" fill="#ff5e7a">─</text><rect x="333" y="0" width="9" height="18" fill="#ffffff"/><text x="333" y="14" fill="#ff5e7a">─</text><rect x="342" y="0" width="9" height="18" fill="#ffffff"/><text x="342" y="14" fill="#ff5e7a">─</text><rect x="351" y="0" width="9" height="18" fill="#ffffff"/><text x="351" y="14" fill="#ff5e7a">─</text><rect x="360" y="0" width="9" height="18" fill="#ffffff"/><text x="360" y="14" fill="#ff5e7a">─</text><rect x="369" y="0" width="9" height="18" fill="#ffffff"/><text x="369" y="14" fill="#ff5e7a">─</text><rect x="378" y="0" width="9" height="18" fill="#ffffff"/><text x="378" y="14" fill="#ff5e7a">─</text><rect x="387" y="0" width="9" height="18" fill="#ffffff"/><text x="387" y="14" fill="#ff5e7a">─</text><rect x="396" y="0" width="9" height="18" fill="#ffffff"/><text x="396" y="14" fill="#ff5e7a">─</text><rect x="405" y="0" width="9" height="18" fill="#ffffff"/><text x="405" y="14" fill="#ff5e7a">─</text><rect x="414" y="0" width="9" height="18" fill="#ffffff"/><text x="414" y="14" fill="#ff5e7a">─</text><rect x="423" y="0" width="9" height="18" fill="#ffffff"/><text x="423" y="14" fill="#ff5e7a">─</text><rect x="432" y="0" width="9" height="18" fill="#ffffff"/><text x="432" y="14" fill="#ff5e7a">─</text><rect x="441" y="0" width="9" height="18" fill="#ffffff"/><text x="441" y="14" fill="#ff5e7a">─</text><rect x="450" y="0" width="9" height="18" fill="#ffffff"/><text x="450" y="14" fill="#ff5e7a">─</text><rect x="459" y="0" width="9" height="18" fill="#ffffff"/><text x="459" y="14" fill="#ff5e7a">─</text><rect x="468" y="0" width="9" height="18" fill="#ffffff"/><text x="468" y="14" fill="#ff5e7a">─</text><rect x="477" y="0" width="9" height="18" fill="#ffffff"/><text x="477" y="14" fill="#ff5e7a">─</text><rect x="486" y="0" width="9" height="18" fill="#ffffff"/><text x="486" y="14" fill="#ff5e7a">─</text><rect x="495" y="0" width="9" height="18" fill="#ffffff"/><text x="495" y="14" fill="#ff5e7a">─</text><rect x="504" y="0" width="9" height="18" fill="#ffffff"/><text x="504" y="14" fill="#ff5e7a">─</text><rect x="513" y="0" width="9" height="18" fill="#ffffff"/><text x="513" y="14" fill="#ff5e7a">─</text><rect x="522" y="0" width="9" height="18" fill="#ffffff"/><text x="522" y="14" fill="#ff5e7a">─</text><rect x="531" y="0" width="9" height="18" fill="#ffffff"/><text x="531" y="14" fill="#ff5e7a">─</text><rect x="540" y="0" width="9" height="18" fill="#ffffff"/><text x="540" y="14" fill="#ff5e7a">─</text><rect x="549" y="0" width="9" height="18" fill="#ffffff"/><text x="549" y="14" fill="#ff5e7a">┐</text><rect x="0" y="18" width="9" height="18" fill="#ffffff"/><text x="0" y="32" fill="#ff5e7a">│</text><rect x="9" y="18" width="9" height="18" fill="#ffffff"/><rect x="18" y="18" width="9" height="18" fill="#ffffff"/><rect x="27" y="18" width="9" height="18" fill="#ffffff"/><rect x="36" y="18" width="9" height="18" fill="#ffffff"/><rect x="45" y="18" width="9" height="18" fill="#ffffff"/><rect x="54" y="18" width="9" height="18" fill="#ffffff"/><rect x="63" y="18" width="9" height="18" fill="#ffffff"/><rect x="72" y="18" width="9" height="18" fill="#ffffff"/><rect x="81" y="18" width="9" height="18" fill="#ffffff"/><rect x="90" y="18" width="9" height="18" fill="#ffffff"/><rect x="99" y="18" width="9" height="18" fill="#ffffff"/><rect x="108" y="18" width="9" height="18" fill="#ffffff"/><rect x="117" y="18" width="9" height="18" fill="#ffffff"/><rect x="126" y="18" width="9" height="18" fill="#ffffff"/><rect x="135" y="18" width="9" height="18" fill="#ffffff"/><rect x="144" y="18" width="9" height="18" fill="#ffffff"/><rect x="153" y="18" width="9" height="18" fill="#ffffff"/><rect x="162" y="18" width="9" height="18" fill="#ffffff"/><rect x="171" y="18" width="9" height="18" fill="#ffffff"/><rect x="180" y="18" width="9" height="18" fill="#ffffff"/><rect x="189" y="18" width="9" height="18" fill="#ffffff"/><rect x="198" y="18" width="9" height="18" fill="#ffffff"/><rect x="207" y="18" width="9" height="18" fill="#ffffff"/><rect x="216" y="18" width="9" height="18" fill="#ffffff"/><rect x="225" y="18" width="9" height="18" fill="#ffffff"/><rect x="234" y="18" width="9" height="18" fill="#ffffff"/><rect x="243" y="18" width="9" height="18" fill="#ffffff"/><rect x="252" y="18" width="9" height="18" fill="#ffffff"/><rect x="261" y="18" width="9" height="18" fill="#ffffff"/><rect x="270" y="18" width="9" height="18" fill="#ffffff"/><rect x="279" y="18" width="9" height="18" fill="#ffffff"/><rect x="288" y="18" width="9" height="18" fill="#ffffff"/><rect x="297" y="18" width="9" height="18" fill="#ffffff"/><rect x="306" y="18" width="9" height="18" fill="#ffffff"/><rect x="315" y="18" width="9" height="18" fill="#ffffff"/><rect x="324" y="18" width="9" height="18" fill="#ffffff"/><rect x="333" y="18" width="9" height="18" fill="#ffffff"/><rect x="342" y="18" width="9" height="18" fill="#ffffff"/><rect x="351" y="18" width="9" height="18" fill="#ffffff"/><rect x="360" y="18" width="9" height="18" fill="#ffffff"/><rect x="369" y="18" width="9" height="18" fill="#ffffff"/><rect x="378" y="18" width="9" height="18" fill="#ffffff"/><rect x="387" y="18" width="9" height="18" fill="#ffffff"/><rect x="396" y="18" width="9" height="18" fill="#ffffff"/><rect x="405" y="18" width="9" height="18" fill="#ffffff"/><rect x="414" y="18" width="9" height="18" fill="#ffffff"/><rect x="423" y="18" width="9" height="18" fill="#ffffff"/><rect x="432" y="18" width="9" height="18" fill="#ffffff"/><rect x="441" y="18" width="9" height="18" fill="#ffffff"/><rect x="450" y="18" width="9" height="18" fill="#ffffff"/><rect x="459" y="18" width="9" height="18" fill="#ffffff"/><rect x="468" y="18" width="9" height="18" fill="#ffffff"/><rect x="477" y="18" width="9" height="18" fill="#ffffff"/><rect x="486" y="18" width="9" height="18" fill="#ffffff"/><rect x="495" y="18" width="9" height="18" fill="#ffffff"/><rect x="504" y="18" width="9" height="18" fill="#ffffff"/><rect x="513" y="18" width="9" height="18" fill="#ffffff"/><rect x="522" y="18" width="9" height="18" fill="#ffffff"/><rect x="531" y="18" width="9" height="18" fill="#ffffff"/><rect x="540" y="18" width="9" height="18" fill="#ffffff"/><rect x="549" y="18" width="9" height="18" fill="#ffffff"/><text x="549" y="32" fill="#ff5e7a">│</text><rect x="0" y="36" width="9" height="18" fill="#ffffff"/><text x="0" y="50" fill="#ff5e7a">│</text><rect x="9" y="36" width="9" height="18" fill="#ffffff"/><rect x="18" y="36" width="9" height="18" fill="#ffffff"/><rect x="27" y="36" width="9" height="18" fill="#ffffff"/><rect x="36" y="36" width="9" height="18" fill="#ffffff"/><rect x="45" y="36" width="9" height="18" fill="#ffffff"/><rect x="54" y="36" width="9" height="18" fill="#ffffff"/><rect x="63" y="36" width="9" height="18" fill="#ffffff"/><text x="63" y="50" fill="#ffffff">D</text><rect x="72" y="36" width="9" height="18" fill="#ffffff"/><text x="72" y="50" fill="#ffffff">e</text><rect x="81" y="36" width="9" height="18" fill="#ffffff"/><text x="81" y="50" fill="#ffffff">r</text><rect x="90" y="36" width="9" height="18" fill="#ffffff"/><text x="90" y="50" fill="#ffffff">i</text><rect x="99" y="36" width="9" height="18" fill="#ffffff"/><text x="99" y="50" fill="#ffffff">v</text><rect x="108" y="36" width="9" height="18" fill="#ffffff"/><text x="108" y="50" fill="#ffffff">e</text><rect x="117" y="36" width="9" height="18" fill="#ffffff"/><text x="117" y="50" fill="#ffffff">d</text><rect x="126" y="36" width="9" height="18" fill="#ffffff"/><rect x="135" y="36" width="9" height="18" fill="#ffffff"/><text x="135" y="50" fill="#ffffff">i</text><rect x="144" y="36" width="9" height="18" fill="#ffffff"/><text x="144" y="50" fill="#ffffff">m</text><rect x="153" y="36" width="9" height="18" fill="#ffffff"/><text x="153" y="50" fill="#ffffff">a</text><rect x="162" y="36" width="9" height="18" fill="#ffffff"/><text x="162" y="50" fill="#ffffff">g</text><rect x="171" y="36" width="9" height="18" fill="#ffffff"/><text x="171" y="50" fill="#ffffff">e</text><rect x="180" y="36" width="9" height="18" fill="#ffffff"/><rect x="189" y="36" width="9" height="18" fill="#ffffff"/><text x="189" y="50" fill="#ffffff">b</text><rect x="198" y="36" width="9" height="18" fill="#ffffff"/><text x="198" y="50" fill="#ffffff">u</text><rect x="207" y="36" width="9" height="18" fill="#ffffff"/><text x="207" y="50" fill="#ffffff">i</text><rect x="216" y="36" width="9" height="18" fill="#ffffff"/><text x="216" y="50" fill="#ffffff">l</text><rect x="225" y="36" width="9" height="18" fill="#ffffff"/><text x="225" y="50" fill="#ffffff">d</text><rect x="234" y="36" width="9" height="18" fill="#ffffff"/><rect x="243" y="36" width="9" height="18" fill="#ffffff"/><text x="243" y="50" fill="#ffffff">f</text><rect x="252" y="36" width="9" height="18" fill="#ffffff"/><text x="252" y="50" fill="#ffffff">a</text><rect x="261" y="36" width="9" height="18" fill="#ffffff"/><text x="261" y="50" fill="#ffffff">i</text><rect x="270" y="36" width="9" height="18" fill="#ffffff"/><text x="270" y="50" fill="#ffffff">l</text><rect x="279" y="36" width="9" height="18" fill="#ffffff"/><text x="279" y="50" fill="#ffffff">e</text><rect x="288" y="36" width="9" height="18" fill="#ffffff"/><text x="288" y="50" fill="#ffffff">d</text><rect x="297" y="36" width="9" height="18" fill="#ffffff"/><rect x="306" y="36" width="9" height="18" fill="#ffffff"/><text x="306" y="50" fill="#ffffff">w</text><rect x="315" y="36" width="9" height="18" fill="#ffffff"/><text x="315" y="50" fill="#ffffff">h</text><rect x="324" y="36" width="9" height="18" fill="#ffffff"/><text x="324" y="50" fill="#ffffff">i</text><rect x="333" y="36" width="9" height="18" fill="#ffffff"/><text x="333" y="50" fill="#ffffff">l</text><rect x="342" y="36" width="9" height="18" fill="#ffffff"/><text x="342" y="50" fill="#ffffff">e</text><rect x="351" y="36" width="9" height="18" fill="#ffffff"/><rect x="360" y="36" width="9" height="18" fill="#ffffff"/><text x="360" y="50" fill="#ffffff">i</text><rect x="369" y="36" width="9" height="18" fill="#ffffff"/><text x="369" y="50" fill="#ffffff">n</text><rect x="378" y="36" width="9" height="18" fill="#ffffff"/><text x="378" y="50" fill="#ffffff">s</text><rect x="387" y="36" width="9" height="18" fill="#ffffff"/><text x="387" y="50" fill="#ffffff">t</text><rect x="396" y="36" width="9" height="18" fill="#ffffff"/><text x="396" y="50" fill="#ffffff">a</text><rect x="405" y="36" width="9" height="18" fill="#ffffff"/><text x="405" y="50" fill="#ffffff">l</text><rect x="414" y="36" width="9" height="18" fill="#ffffff"/><text x="414" y="50" fill="#ffffff">l</text><rect x="423" y="36" width="9" height="18" fill="#ffffff"/><text x="423" y="50" fill="#ffffff">i</text><rect x="432" y="36" width="9" height="18" fill="#ffffff"/><text x="432" y="50" fill="#ffffff">n</text><rect x="441" y="36" width="9" height="18" fill="#ffffff"/><text x="441" y="50" fill="#ffffff">g</text><rect x="450" y="36" width="9" height="18" fill="#ffffff"/><rect x="459" y="36" width="9" height="18" fill="#ffffff"/><text x="459" y="50" fill="#ffffff">r</text><rect x="468" y="36" width="9" height="18" fill="#ffffff"/><text x="468" y="50" fill="#ffffff">o</text><rect x="477" y="36" width="9" height="18" fill="#ffffff"/><text x="477" y="50" fill="#ffffff">l</text><rect x="486" y="36" width="9" height="18" fill="#ffffff"/><text x="486" y="50" fill="#ffffff">e</text><rect x="495" y="36" width="9" height="18" fill="#ffffff"/><rect x="504" y="36" width="9" height="18" fill="#ffffff"/><rect x="513" y="36" width="9" height="18" fill="#ffffff"/><rect x="522" y="36" width="9" height="18" fill="#ffffff"/><rect x="531" y="36" width="9" height="18" fill="#ffffff"/><rect x="540" y="36" width="9" height="18" fill="#ffffff"/><rect x="549" y="36" width="9" height="18" fill="#ffffff"/><text x="549" y="50" fill="#ff5e7a">│</text><rect x="0" y="54" width="9" height="18" fill="#ffffff"/><text x="0" y="68" fill="#ff5e7a">│</text><rect x="9" y="54" width="9" height="18" fill="#ffffff"/><rect x="18" y="54" width="9" height="18" fill="#ffffff"/><rect x="27" y="54" width="9" height="18" fill="#ffffff"/><rect x="36" y="54" width="9" height="18" fill="#ffffff"/><rect x="45" y="54" width="9" height="18" fill="#ffffff"/><rect x="54" y="54" width="9" height="18" fill="#ffffff"/><rect x="63" y="54" width="9" height="18" fill="#ffffff"/><rect x="72" y="54" width="9" height="18" fill="#ffffff"/><rect x="81" y="54" width="9" height="18" fill="#ffffff"/><rect x="90" y="54" width="9" height="18" fill="#ffffff"/><rect x="99" y="54" width="9" height="18" fill="#ffffff"/><rect x="108" y="54" width="9" height="18" fill="#ffffff"/><rect x="117" y="54" width="9" height="18" fill="#ffffff"/><rect x="126" y="54" width="9" height="18" fill="#ffffff"/><rect x="135" y="54" width="9" height="18" fill="#ffffff"/><rect x="144" y="54" width="9" height="18" fill="#ffffff"/><rect x="153" y="54" width="9" height="18" fill="#ffffff"/><rect x="162" y="54" width="9" height="18" fill="#ffffff"/><rect x="171" y="54" width="9" height="18" fill="#ffffff"/><rect x="180" y="54" width="9" height="18" fill="#ffffff"/><rect x="189" y="54" width="9" height="18" fill="#ffffff"/><rect x="198" y="54" width="9" height="18" fill="#ffffff"/><rect x="207" y="54" width="9" height="18" fill="#ffffff"/><rect x="216" y="54" width="9" height="18" fill="#ffffff"/><rect x="225" y="54" width="9" height="18" fill="#ffffff"/><text x="225" y="68" fill="#ffffff">d</text><rect x="234" y="54" width="9" height="18" fill="#ffffff"/><text x="234" y="68" fill="#ffffff">e</text><rect x="243" y="54" width="9" height="18" fill="#ffffff"/><text x="243" y="68" fill="#ffffff">p</text><rect x="252" y="54" width="9" height="18" fill="#ffffff"/><text x="252" y="68" fill="#ffffff">e</text><rect x="261" y="54" width="9" height="18" fill="#ffffff"/><text x="261" y="68" fill="#ffffff">n</text><rect x="270" y="54" width="9" height="18" fill="#ffffff"/><text x="270" y="68" fill="#ffffff">d</text><rect x="279" y="54" width="9" height="18" fill="#ffffff"/><text x="279" y="68" fill="#ffffff">e</text><rect x="288" y="54" width="9" height="18" fill="#ffffff"/><text x="288" y="68" fill="#ffffff">n</text><rect x="297" y="54" width="9" height="18" fill="#ffffff"/><text x="297" y="68" fill="#ffffff">c</text><rect x="306" y="54" width="9" height="18" fill="#ffffff"/><text x="306" y="68" fill="#ffffff">i</text><rect x="315" y="54" width="9" height="18" fill="#ffffff"/><text x="315" y="68" fill="#ffffff">e</text><rect x="324" y="54" width="9" height="18" fill="#ffffff"/><text x="324" y="68" fill="#ffffff">s</text><rect x="333" y="54" width="9" height="18" fill="#ffffff"/><text x="333" y="68" fill="#ffffff">.</text><rect x="342" y="54" width="9" height="18" fill="#ffffff"/><rect x="351" y="54" width="9" height="18" fill="#ffffff"/><rect x="360" y="54" width="9" height="18" fill="#ffffff"/><rect x="369" y="54" width="9" height="18" fill="#ffffff"/><rect x="378" y="54" width="9" height="18" fill="#ffffff"/><rect x="387" y="54" width="9" height="18" fill="#ffffff"/><rect x="396" y="54" width="9" height="18" fill="#ffffff"/><rect x="405" y="54" width="9" height="18" fill="#ffffff"/><rect x="414" y="54" width="9" height="18" fill="#ffffff"/><rect x="423" y="54" width="9" height="18" fill="#ffffff"/><rect x="432" y="54" width="9" height="18" fill="#ffffff"/><rect x="441" y="54" width="9" height="18" fill="#ffffff"/><rect x="450" y="54" width="9" height="18" fill="#ffffff"/><rect x="459" y="54" width="9" height="18" fill="#ffffff"/><rect x="468" y="54" width="9" height="18" fill="#ffffff"/><rect x="477" y="54" width="9" height="18" fill="#ffffff"/><rect x="486" y="54" width="9" height="18" fill="#ffffff"/><rect x="495" y="54" width="9" height="18" fill="#ffffff"/><rect x="504" y="54" width="9" height="18" fill="#ffffff"/><rect x="513" y="54" width="9" height="18" fill="#ffffff"/><rect x="522" y="54" width="9" height="18" fill="#ffffff"/><rect x="531" y="54" width="9" height="18" fill="#ffffff"/><rect x="540" y="54" width="9" height="18" fill="#ffffff"/><rect x="549" y="54" width="9" height="18" fill="#ffffff"/><text x="549" y="68" fill="#ff5e7a">│</text><rect x="0" y="72" width="9" height="18" fill="#ffffff"/><text x="0" y="86" fill="#ff5e7a">│</text><rect x="9" y="72" width="9" height="18" fill="#ffffff"/><rect x="18" y="72" width="9" height="18" fill="#ffffff"/><rect x="27" y="72" width="9" height="18" fill="#ffffff"/><rect x="36" y="72" width="9" height="18" fill="#ffffff"/><rect x="45" y="72" width="9" height="18" fill="#ffffff"/><text x="45" y="86" fill="#ffffff">O</text><rect x="54" y="72" width="9" height="18" fill="#ffffff"/><text x="54" y="86" fill="#ffffff">p</text><rect x="63" y="72" width="9" height="18" fill="#ffffff"/><text x="63" y="86" fill="#ffffff">e</text><rect x="72" y="72" width="9" height="18" fill="#ffffff"/><text x="72" y="86" fill="#ffffff">n</text><rect x="81" y="72" width="9" height="18" fill="#ffffff"/><rect x="90" y="72" width="9" height="18" fill="#ffffff"/><text x="90" y="86" fill="#ffffff">d</text><rect x="99" y="72" width="9" height="18" fill="#ffffff"/><text x="99" y="86" fill="#ffffff">i</text><rect x="108" y="72" width="9" height="18" fill="#ffffff"/><text x="108" y="86" fill="#ffffff">a</text><rect x="117" y="72" width="9" height="18" fill="#ffffff"/><text x="117" y="86" fill="#ffffff">g</text><rect x="126" y="72" width="9" height="18" fill="#ffffff"/><text x="126" y="86" fill="#ffffff">n</text><rect x="135" y="72" width="9" height="18" fill="#ffffff"/><text x="135" y="86" fill="#ffffff">o</text><rect x="144" y="72" width="9" height="18" fill="#ffffff"/><text x="144" y="86" fill="#ffffff">s</text><rect x="153" y="72" width="9" height="18" fill="#ffffff"/><text x="153" y="86" fill="#ffffff">t</text><rect x="162" y="72" width="9" height="18" fill="#ffffff"/><text x="162" y="86" fill="#ffffff">i</text><rect x="171" y="72" width="9" height="18" fill="#ffffff"/><text x="171" y="86" fill="#ffffff">c</text><rect x="180" y="72" width="9" height="18" fill="#ffffff"/><text x="180" y="86" fill="#ffffff">s</text><rect x="189" y="72" width="9" height="18" fill="#ffffff"/><rect x="198" y="72" width="9" height="18" fill="#ffffff"/><text x="198" y="86" fill="#ffffff">r</text><rect x="207" y="72" width="9" height="18" fill="#ffffff"/><text x="207" y="86" fill="#ffffff">u</text><rect x="216" y="72" width="9" height="18" fill="#ffffff"/><text x="216" y="86" fill="#ffffff">n</text><rect x="225" y="72" width="9" height="18" fill="#ffffff"/><rect x="234" y="72" width="9" height="18" fill="#ffffff"/><text x="234" y="86" fill="#ffffff">j</text><rect x="243" y="72" width="9" height="18" fill="#ffffff"/><text x="243" y="86" fill="#ffffff">k</text><rect x="252" y="72" width="9" height="18" fill="#ffffff"/><text x="252" y="86" fill="#ffffff">-</text><rect x="261" y="72" width="9" height="18" fill="#ffffff"/><text x="261" y="86" fill="#ffffff">r</text><rect x="270" y="72" width="9" height="18" fill="#ffffff"/><text x="270" y="86" fill="#ffffff">u</text><rect x="279" y="72" width="9" height="18" fill="#ffffff"/><text x="279" y="86" fill="#ffffff">n</text><rect x="288" y="72" width="9" height="18" fill="#ffffff"/><text x="288" y="86" fill="#ffffff">-</text><rect x="297" y="72" width="9" height="18" fill="#ffffff"/><text x="297" y="86" fill="#ffffff">3</text><rect x="306" y="72" width="9" height="18" fill="#ffffff"/><text x="306" y="86" fill="#ffffff">d</text><rect x="315" y="72" width="9" height="18" fill="#ffffff"/><text x="315" y="86" fill="#ffffff">7</text><rect x="324" y="72" width="9" height="18" fill="#ffffff"/><text x="324" y="86" fill="#ffffff">e</text><rect x="333" y="72" width="9" height="18" fill="#ffffff"/><text x="333" y="86" fill="#ffffff">2</text><rect x="342" y="72" width="9" height="18" fill="#ffffff"/><text x="342" y="86" fill="#ffffff">3</text><rect x="351" y="72" width="9" height="18" fill="#ffffff"/><rect x="360" y="72" width="9" height="18" fill="#ffffff"/><text x="360" y="86" fill="#ffffff">f</text><rect x="369" y="72" width="9" height="18" fill="#ffffff"/><text x="369" y="86" fill="#ffffff">o</text><rect x="378" y="72" width="9" height="18" fill="#ffffff"/><text x="378" y="86" fill="#ffffff">r</text><rect x="387" y="72" width="9" height="18" fill="#ffffff"/><rect x="396" y="72" width="9" height="18" fill="#ffffff"/><text x="396" y="86" fill="#ffffff">t</text><rect x="405" y="72" width="9" height="18" fill="#ffffff"/><text x="405" y="86" fill="#ffffff">h</text><rect x="414" y="72" width="9" height="18" fill="#ffffff"/><text x="414" y="86" fill="#ffffff">e</text><rect x="423" y="72" width="9" height="18" fill="#ffffff"/><rect x="432" y="72" width="9" height="18" fill="#ffffff"/><text x="432" y="86" fill="#ffffff">f</text><rect x="441" y="72" width="9" height="18" fill="#ffffff"/><text x="441" y="86" fill="#ffffff">u</text><rect x="450" y="72" width="9" height="18" fill="#ffffff"/><text x="450" y="86" fill="#ffffff">l</text><rect x="459" y="72" width="9" height="18" fill="#ffffff"/><text x="459" y="86" fill="#ffffff">l</text><rect x="468" y="72" width="9" height="18" fill="#ffffff"/><rect x="477" y="72" width="9" height="18" fill="#ffffff"/><text x="477" y="86" fill="#ffffff">l</text><rect x="486" y="72" width="9" height="18" fill="#ffffff"/><text x="486" y="86" fill="#ffffff">o</text><rect x="495" y="72" width="9" height="18" fill="#ffffff"/><text x="495" y="86" fill="#ffffff">g</text><rect x="504" y="72" width="9" height="18" fill="#ffffff"/><text x="504" y="86" fill="#ffffff">.</text><rect x="513" y="72" width="9" height="18" fill="#ffffff"/><rect x="522" y="72" width="9" height="18" fill="#ffffff"/><rect x="531" y="72" width="9" height="18" fill="#ffffff"/><rect x="540" y="72" width="9" height="18" fill="#ffffff"/><rect x="549" y="72" width="9" height="18" fill="#ffffff"/><text x="549" y="86" fill="#ff5e7a">│</text><rect x="0" y="90" width="9" height="18" fill="#ffffff"/><text x="0" y="104" fill="#ff5e7a">│</text><rect x="9" y="90" width="9" height="18" fill="#ffffff"/><rect x="18" y="90" width="9" height="18" fill="#ffffff"/><rect x="27" y="90" width="9" height="18" fill="#ffffff"/><rect x="36" y="90" width="9" height="18" fill="#ffffff"/><rect x="45" y="90" width="9" height="18" fill="#ffffff"/><rect x="54" y="90" width="9" height="18" fill="#ffffff"/><rect x="63" y="90" width="9" height="18" fill="#ffffff"/><rect x="72" y="90" width="9" height="18" fill="#ffffff"/><rect x="81" y="90" width="9" height="18" fill="#ffffff"/><rect x="90" y="90" width="9" height="18" fill="#ffffff"/><rect x="99" y="90" width="9" height="18" fill="#ffffff"/><rect x="108" y="90" width="9" height="18" fill="#ffffff"/><rect x="117" y="90" width="9" height="18" fill="#ffffff"/><rect x="126" y="90" width="9" height="18" fill="#ffffff"/><rect x="135" y="90" width="9" height="18" fill="#ffffff"/><rect x="144" y="90" width="9" height="18" fill="#ffffff"/><rect x="153" y="90" width="9" height="18" fill="#ffffff"/><rect x="162" y="90" width="9" height="18" fill="#ffffff"/><rect x="171" y="90" width="9" height="18" fill="#ffffff"/><rect x="180" y="90" width="9" height="18" fill="#ffffff"/><rect x="189" y="90" width="9" height="18" fill="#ffffff"/><rect x="198" y="90" width="9" height="18" fill="#ffffff"/><rect x="207" y="90" width="9" height="18" fill="#ffffff"/><rect x="216" y="90" width="9" height="18" fill="#ffffff"/><rect x="225" y="90" width="9" height="18" fill="#ffffff"/><rect x="234" y="90" width="9" height="18" fill="#ffffff"/><rect x="243" y="90" width="9" height="18" fill="#ffffff"/><rect x="252" y="90" width="9" height="18" fill="#ffffff"/><rect x="261" y="90" width="9" height="18" fill="#ffffff"/><rect x="270" y="90" width="9" height="18" fill="#ffffff"/><rect x="279" y="90" width="9" height="18" fill="#ffffff"/><rect x="288" y="90" width="9" height="18" fill="#ffffff"/><rect x="297" y="90" width="9" height="18" fill="#ffffff"/><rect x="306" y="90" width="9" height="18" fill="#ffffff"/><rect x="315" y="90" width="9" height="18" fill="#ffffff"/><rect x="324" y="90" width="9" height="18" fill="#ffffff"/><rect x="333" y="90" width="9" height="18" fill="#ffffff"/><rect x="342" y="90" width="9" height="18" fill="#ffffff"/><rect x="351" y="90" width="9" height="18" fill="#ffffff"/><rect x="360" y="90" width="9" height="18" fill="#ffffff"/><rect x="369" y="90" width="9" height="18" fill="#ffffff"/><rect x="378" y="90" width="9" height="18" fill="#ffffff"/><rect x="387" y="90" width="9" height="18" fill="#ffffff"/><rect x="396" y="90" width="9" height="18" fill="#ffffff"/><rect x="405" y="90" width="9" height="18" fill="#ffffff"/><rect x="414" y="90" width="9" height="18" fill="#ffffff"/><rect x="423" y="90" width="9" height="18" fill="#ffffff"/><rect x="432" y="90" width="9" height="18" fill="#ffffff"/><rect x="441" y="90" width="9" height="18" fill="#ffffff"/><rect x="450" y="90" width="9" height="18" fill="#ffffff"/><rect x="459" y="90" width="9" height="18" fill="#ffffff"/><rect x="468" y="90" width="9" height="18" fill="#ffffff"/><rect x="477" y="90" width="9" height="18" fill="#ffffff"/><rect x="486" y="90" width="9" height="18" fill="#ffffff"/><rect x="495" y="90" width="9" height="18" fill="#ffffff"/><rect x="504" y="90" width="9" height="18" fill="#ffffff"/><rect x="513" y="90" width="9" height="18" fill="#ffffff"/><rect x="522" y="90" width="9" height="18" fill="#ffffff"/><rect x="531" y="90" width="9" height="18" fill="#ffffff"/><rect x="540" y="90" width="9" height="18" fill="#ffffff"/><rect x="549" y="90" width="9" height="18" fill="#ffffff"/><text x="549" y="104" fill="#ff5e7a">│</text><rect x="0" y="108" width="9" height="18" fill="#ffffff"/><text x="0" y="122" fill="#ff5e7a">│</text><rect x="9" y="108" width="9" height="18" fill="#ffffff"/><rect x="18" y="108" width="9" height="18" fill="#ffffff"/><rect x="27" y="108" width="9" height="18" fill="#ffffff"/><rect x="36" y="108" width="9" height="18" fill="#ffffff"/><rect x="45" y="108" width="9" height="18" fill="#ffffff"/><rect x="54" y="108" width="9" height="18" fill="#ffffff"/><rect x="63" y="108" width="9" height="18" fill="#ffffff"/><rect x="72" y="108" width="9" height="18" fill="#ffffff"/><rect x="81" y="108" width="9" height="18" fill="#ffffff"/><rect x="90" y="108" width="9" height="18" fill="#ffffff"/><rect x="99" y="108" width="9" height="18" fill="#ffffff"/><rect x="108" y="108" width="9" height="18" fill="#ffffff"/><rect x="117" y="108" width="9" height="18" fill="#ffffff"/><rect x="126" y="108" width="9" height="18" fill="#ffffff"/><rect x="135" y="108" width="9" height="18" fill="#ffffff"/><rect x="144" y="108" width="9" height="18" fill="#ffffff"/><rect x="153" y="108" width="9" height="18" fill="#ffffff"/><rect x="162" y="108" width="9" height="18" fill="#ffffff"/><rect x="171" y="108" width="9" height="18" fill="#ffffff"/><rect x="180" y="108" width="9" height="18" fill="#ffffff"/><rect x="189" y="108" width="9" height="18" fill="#ffffff"/><rect x="198" y="108" width="9" height="18" fill="#ffffff"/><rect x="207" y="108" width="9" height="18" fill="#ffffff"/><rect x="216" y="108" width="9" height="18" fill="#ffffff"/><rect x="225" y="108" width="9" height="18" fill="#ffffff"/><rect x="234" y="108" width="9" height="18" fill="#ffffff"/><rect x="243" y="108" width="9" height="18" fill="#ffffff"/><rect x="252" y="108" width="9" height="18" fill="#ffffff"/><rect x="261" y="108" width="9" height="18" fill="#ffffff"/><rect x="270" y="108" width="9" height="18" fill="#ffffff"/><rect x="279" y="108" width="9" height="18" fill="#ffffff"/><rect x="288" y="108" width="9" height="18" fill="#ffffff"/><rect x="297" y="108" width="9" height="18" fill="#ffffff"/><rect x="306" y="108" width="9" height="18" fill="#ffffff"/><rect x="315" y="108" width="9" height="18" fill="#ffffff"/><rect x="324" y="108" width="9" height="18" fill="#ffffff"/><rect x="333" y="108" width="9" height="18" fill="#ffffff"/><rect x="342" y="108" width="9" height="18" fill="#ffffff"/><rect x="351" y="108" width="9" height="18" fill="#ffffff"/><rect x="360" y="108" width="9" height="18" fill="#ffffff"/><rect x="369" y="108" width="9" height="18" fill="#ffffff"/><rect x="378" y="108" width="9" height="18" fill="#ffffff"/><rect x="387" y="108" width="9" height="18" fill="#ffffff"/><rect x="396" y="108" width="9" height="18" fill="#ffffff"/><rect x="405" y="108" width="9" height="18" fill="#ffffff"/><rect x="414" y="108" width="9" height="18" fill="#ffffff"/><rect x="423" y="108" width="9" height="18" fill="#ffffff"/><rect x="432" y="108" width="9" height="18" fill="#ffffff"/><rect x="441" y="108" width="9" height="18" fill="#ffffff"/><rect x="450" y="108" width="9" height="18" fill="#ffffff"/><rect x="459" y="108" width="9" height="18" fill="#ffffff"/><rect x="468" y="108" width="9" height="18" fill="#ffffff"/><rect x="477" y="108" width="9" height="18" fill="#ffffff"/><rect x="486" y="108" width="9" height="18" fill="#ffffff"/><rect x="495" y="108" width="9" height="18" fill="#ffffff"/><rect x="504" y="108" width="9" height="18" fill="#ffffff"/><rect x="513" y="108" width="9" height="18" fill="#ffffff"/><rect x="522" y="108" width="9" height="18" fill="#ffffff"/><rect x="531" y="108" width="9" height="18" fill="#ffffff"/><rect x="540" y="108" width="9" height="18" fill="#ffffff"/><rect x="549" y="108" width="9" height="18" fill="#ffffff"/><text x="549" y="122" fill="#ff5e7a">│</text><rect x="0" y="126" width="9" height="18" fill="#ffffff"/><text x="0" y="140" fill="#ff5e7a">│</text><rect x="9" y="126" width="9" height="18" fill="#ffffff"/><rect x="18" y="126" width="9" height="18" fill="#ffffff"/><rect x="27" y="126" width="9" height="18" fill="#ffffff"/><rect x="36" y="126" width="9" height="18" fill="#ffffff"/><rect x="45" y="126" width="9" height="18" fill="#ffffff"/><rect x="54" y="126" width="9" height="18" fill="#ffffff"/><rect x="63" y="126" width="9" height="18" fill="#ffffff"/><rect x="72" y="126" width="9" height="18" fill="#ffffff"/><rect x="81" y="126" width="9" height="18" fill="#ffffff"/><rect x="90" y="126" width="9" height="18" fill="#ffffff"/><rect x="99" y="126" width="9" height="18" fill="#ffffff"/><rect x="108" y="126" width="9" height="18" fill="#ffffff"/><rect x="117" y="126" width="9" height="18" fill="#ffffff"/><rect x="126" y="126" width="9" height="18" fill="#ffffff"/><rect x="135" y="126" width="9" height="18" fill="#ffffff"/><rect x="144" y="126" width="9" height="18" fill="#ffffff"/><rect x="153" y="126" width="9" height="18" fill="#ffffff"/><rect x="162" y="126" width="9" height="18" fill="#ffffff"/><rect x="171" y="126" width="9" height="18" fill="#ffffff"/><rect x="180" y="126" width="9" height="18" fill="#ffffff"/><rect x="189" y="126" width="9" height="18" fill="#ffffff"/><rect x="198" y="126" width="9" height="18" fill="#ffffff"/><rect x="207" y="126" width="9" height="18" fill="#ffffff"/><rect x="216" y="126" width="9" height="18" fill="#ffffff"/><rect x="225" y="126" width="9" height="18" fill="#ffffff"/><rect x="234" y="126" width="9" height="18" fill="#ffffff"/><rect x="243" y="126" width="9" height="18" fill="#ffffff"/><rect x="252" y="126" width="9" height="18" fill="#ffffff"/><rect x="261" y="126" width="9" height="18" fill="#ffffff"/><rect x="270" y="126" width="9" height="18" fill="#ffffff"/><text x="270" y="140" fill="#000000">O</text><rect x="279" y="126" width="9" height="18" fill="#ffffff"/><text x="279" y="140" fill="#000000">K</text><rect x="288" y="126" width="9" height="18" fill="#ffffff"/><rect x="297" y="126" width="9" height="18" fill="#ffffff"/><rect x="306" y="126" width="9" height="18" fill="#ffffff"/><rect x="315" y="126" width="9" height="18" fill="#ffffff"/><rect x="324" y="126" width="9" height="18" fill="#ffffff"/><rect x="333" y="126" width="9" height="18" fill="#ffffff"/><rect x="342" y="126" width="9" height="18" fill="#ffffff"/><rect x="351" y="126" width="9" height="18" fill="#ffffff"/><rect x="360" y="126" width="9" height="18" fill="#ffffff"/><rect x="369" y="126" width="9" height="18" fill="#ffffff"/><rect x="378" y="126" width="9" height="18" fill="#ffffff"/><rect x="387" y="126" width="9" height="18" fill="#ffffff"/><rect x="396" y="126" width="9" height="18" fill="#ffffff"/><rect x="405" y="126" width="9" height="18" fill="#ffffff"/><rect x="414" y="126" width="9" height="18" fill="#ffffff"/><rect x="423" y="126" width="9" height="18" fill="#ffffff"/><rect x="432" y="126" width="9" height="18" fill="#ffffff"/><rect x="441" y="126" width="9" height="18" fill="#ffffff"/><rect x="450" y="126" width="9" height="18" fill="#ffffff"/><rect x="459" y="126" width="9" height="18" fill="#ffffff"/><rect x="468" y="126" width="9" height="18" fill="#ffffff"/><rect x="477" y="126" width="9" height="18" fill="#ffffff"/><rect x="486" y="126" width="9" height="18" fill="#ffffff"/><rect x="495" y="126" width="9" height="18" fill="#ffffff"/><rect x="504" y="126" width="9" height="18" fill="#ffffff"/><rect x="513" y="126" width="9" height="18" fill="#ffffff"/><rect x="522" y="126" width="9" height="18" fill="#ffffff"/><rect x="531" y="126" width="9" height="18" fill="#ffffff"/><rect x="540" y="126" width="9" height="18" fill="#ffffff"/><rect x="549" y="126" width="9" height="18" fill="#ffffff"/><text x="549" y="140" fill="#ff5e7a">│</text><rect x="0" y="144" width="9" height="18" fill="#ffffff"/><text x="0" y="158" fill="#ff5e7a">└</text><rect x="9" y="144" width="9" height="18" fill="#ffffff"/><text x="9" y="158" fill="#ff5e7a">─</text><rect x="18" y="144" width="9" height="18" fill="#ffffff"/><text x="18" y="158" fill="#ff5e7a">─</text><rect x="27" y="144" width="9" height="18" fill="#ffffff"/><text x="27" y="158" fill="#ff5e7a">─</text><rect x="36" y="144" width="9" height="18" fill="#ffffff"/><text x="36" y="158" fill="#ff5e7a">─</text><rect x="45" y="144" width="9" height="18" fill="#ffffff"/><text x="45" y="158" fill="#ff5e7a">─</text><rect x="54" y="144" width="9" height="18" fill="#ffffff"/><text x="54" y="158" fill="#ff5e7a">─</text><rect x="63" y="144" width="9" height="18" fill="#ffffff"/><text x="63" y="158" fill="#ff5e7a">─</text><rect x="72" y="144" width="9" height="18" fill="#ffffff"/><text x="72" y="158" fill="#ff5e7a">─</text><rect x="81" y="144" width="9" height="18" fill="#ffffff"/><text x="81" y="158" fill="#ff5e7a">─</text><rect x="90" y="144" width="9" height="18" fill="#ffffff"/><text x="90" y="158" fill="#ff5e7a">─</text><rect x="99" y="144" width="9" height="18" fill="#ffffff"/><text x="99" y="158" fill="#ff5e7a">─</text><rect x="108" y="144" width="9" height="18" fill="#ffffff"/><text x="108" y="158" fill="#ff5e7a">─</text><rect x="117" y="144" width="9" height="18" fill="#ffffff"/><text x="117" y="158" fill="#ff5e7a">─</text><rect x="126" y="144" width="9" height="18" fill="#ffffff"/><text x="126" y="158" fill="#ff5e7a">─</text><rect x="135" y="144" width="9" height="18" fill="#ffffff"/><text x="135" y="158" fill="#ff5e7a">─</text><rect x="144" y="144" width="9" height="18" fill="#ffffff"/><text x="144" y="158" fill="#ff5e7a">─</text><rect x="153" y="144" width="9" height="18" fill="#ffffff"/><text x="153" y="158" fill="#ff5e7a">─</text><rect x="162" y="144" width="9" height="18" fill="#ffffff"/><text x="162" y="158" fill="#ff5e7a">─</text><rect x="171" y="144" width="9" height="18" fill="#ffffff"/><text x="171" y="158" fill="#ff5e7a">─</text><rect x="180" y="144" width="9" height="18" fill="#ffffff"/><text x="180" y="158" fill="#ff5e7a">─</text><rect x="189" y="144" width="9" height="18" fill="#ffffff"/><text x="189" y="158" fill="#ff5e7a">─</text><rect x="198" y="144" width="9" height="18" fill="#ffffff"/><text x="198" y="158" fill="#ff5e7a">─</text><rect x="207" y="144" width="9" height="18" fill="#ffffff"/><text x="207" y="158" fill="#ff5e7a">─</text><rect x="216" y="144" width="9" height="18" fill="#ffffff"/><text x="216" y="158" fill="#ff5e7a">─</text><rect x="225" y="144" width="9" height="18" fill="#ffffff"/><text x="225" y="158" fill="#ff5e7a">─</text><rect x="234" y="144" width="9" height="18" fill="#ffffff"/><text x="234" y="158" fill="#ff5e7a">─</text><rect x="243" y="144" width="9" height="18" fill="#ffffff"/><text x="243" y="158" fill="#ff5e7a">─</text><rect x="252" y="144" width="9" height="18" fill="#ffffff"/><text x="252" y="158" fill="#ff5e7a">─</text><rect x="261" y="144" width="9" height="18" fill="#ffffff"/><text x="261" y="158" fill="#ff5e7a">─</text><rect x="270" y="144" width="9" height="18" fill="#ffffff"/><text x="270" y="158" fill="#ff5e7a">─</text><rect x="279" y="144" width="9" height="18" fill="#ffffff"/><text x="279" y="158" fill="#ff5e7a">─</text><rect x="288" y="144" width="9" height="18" fill="#ffffff"/><text x="288" y="158" fill="#ff5e7a">─</text><rect x="297" y="144" width="9" height="18" fill="#ffffff"/><text x="297" y="158" fill="#ff5e7a">─</text><rect x="306" y="144" width="9" height="18" fill="#ffffff"/><text x="306" y="158" fill="#ff5e7a">─</text><rect x="315" y="144" width="9" height="18" fill="#ffffff"/><text x="315" y="158" fill="#ff5e7a">─</text><rect x="324" y="144" width="9" height="18" fill="#ffffff"/><text x="324" y="158" fill="#ff5e7a">─</text><rect x="333" y="144" width="9" height="18" fill="#ffffff"/><text x="333" y="158" fill="#ff5e7a">─</text><rect x="342" y="144" width="9" height="18" fill="#ffffff"/><text x="342" y="158" fill="#ff5e7a">─</text><rect x="351" y="144" width="9" height="18" fill="#ffffff"/><text x="351" y="158" fill="#ff5e7a">─</text><rect x="360" y="144" width="9" height="18" fill="#ffffff"/><text x="360" y="158" fill="#ff5e7a">─</text><rect x="369" y="144" width="9" height="18" fill="#ffffff"/><text x="369" y="158" fill="#ff5e7a">─</text><rect x="378" y="144" width="9" height="18" fill="#ffffff"/><text x="378" y="158" fill="#ff5e7a">─</text><rect x="387" y="144" width="9" height="18" fill="#ffffff"/><text x="387" y="158" fill="#ff5e7a">─</text><rect x="396" y="144" width="9" height="18" fill="#ffffff"/><text x="396" y="158" fill="#ff5e7a">─</text><rect x="405" y="144" width="9" height="18" fill="#ffffff"/><text x="405" y="158" fill="#ff5e7a">─</text><rect x="414" y="144" width="9" height="18" fill="#ffffff"/><text x="414" y="158" fill="#ff5e7a">─</text><rect x="423" y="144" width="9" height="18" fill="#ffffff"/><text x="423" y="158" fill="#ff5e7a">─</text><rect x="432" y="144" width="9" height="18" fill="#ffffff"/><text x="432" y="158" fill="#ff5e7a">─</text><rect x="441" y="144" width="9" height="18" fill="#ffffff"/><text x="441" y="158" fill="#ff5e7a">─</text><rect x="450" y="144" width="9" height="18" fill="#ffffff"/><text x="450" y="158" fill="#ff5e7a">─</text><rect x="459" y="144" width="9" height="18" fill="#ffffff"/><text x="459" y="158" fill="#ff5e7a">─</text><rect x="468" y="144" width="9" height="18" fill="#ffffff"/><text x="468" y="158" fill="#ff5e7a">─</text><rect x="477" y="144" width="9" height="18" fill="#ffffff"/><text x="477" y="158" fill="#ff5e7a">─</text><rect x="486" y="144" width="9" height="18" fill="#ffffff"/><text x="486" y="158" fill="#ff5e7a">─</text><rect x="495" y="144" width="9" height="18" fill="#ffffff"/><text x="495" y="158" fill="#ff5e7a">─</text><rect x="504" y="144" width="9" height="18" fill="#ffffff"/><text x="504" y="158" fill="#ff5e7a">─</text><rect x="513" y="144" width="9" height="18" fill="#ffffff"/><text x="513" y="158" fill="#ff5e7a">─</text><rect x="522" y="144" width="9" height="18" fill="#ffffff"/><text x="522" y="158" fill="#ff5e7a">─</text><rect x="531" y="144" width="9" height="18" fill="#ffffff"/><text x="531" y="158" fill="#ff5e7a">─</text><rect x="540" y="144" width="9" height="18" fill="#ffffff"/><text x="540" y="158" fill="#ff5e7a">─</text><rect x="549" y="144" width="9" height="18" fill="#ffffff"/><text x="549" y="158" fill="#ff5e7a">┘</text></g></svg>
