<svg xmlns="http://www.w3.org/2000/svg" width="378" height="18" viewBox="0 0 378 18" role="img" aria-label="Filter input" style="background:#000000"><rect width="100%" height="100%" fill="#000000"/><g font-family="ui-monospace, SFMono-Regular, Menlo, Consolas, monospace" font-size="14"><rect x="0" y="0" width="9" height="18" fill="#ffffff"/><text x="0" y="14" fill="#008c1e">F</text><rect x="9" y="0" width="9" height="18" fill="#ffffff"/><text x="9" y="14" fill="#008c1e">i</text><rect x="18" y="0" width="9" height="18" fill="#ffffff"/><text x="18" y="14" fill="#008c1e">l</text><rect x="27" y="0" width="9" height="18" fill="#ffffff"/><text x="27" y="14" fill="#008c1e">t</text><rect x="36" y="0" width="9" height="18" fill="#ffffff"/><text x="36" y="14" fill="#008c1e">e</text><rect x="45" y="0" width="9" height="18" fill="#ffffff"/><text x="45" y="14" fill="#008c1e">r</text><rect x="54" y="0" width="9" height="18" fill="#ffffff"/><text x="54" y="14" fill="#008c1e">:</text><rect x="63" y="0" width="9" height="18" fill="#ffffff"/><rect x="72" y="0" width="9" height="18" fill="#ffffff"/><text x="72" y="14" fill="#ffffff">c</text><rect x="81" y="0" width="9" height="18" fill="#ffffff"/><text x="81" y="14" fill="#ffffff">o</text><rect x="90" y="0" width="9" height="18" fill="#ffffff"/><text x="90" y="14" fill="#ffffff">d</text><rect x="99" y="0" width="9" height="18" fill="#ffffff"/><text x="99" y="14" fill="#ffffff">█</text><rect x="108" y="0" width="9" height="18" fill="#ffffff"/><rect x="117" y="0" width="9" height="18" fill="#ffffff"/><rect x="126" y="0" width="9" height="18" fill="#ffffff"/><rect x="135" y="0" width="9" height="18" fill="#ffffff"/><rect x="144" y="0" width="9" height="18" fill="#ffffff"/><rect x="153" y="0" width="9" height="18" fill="#ffffff"/><rect x="162" y="0" width="9" height="18" fill="#ffffff"/><rect x="171" y="0" width="9" height="18" fill="#ffffff"/><rect x="180" y="0" width="9" height="18" fill="#ffffff"/><rect x="189" y="0" width="9" height="18" fill="#ffffff"/><rect x="198" y="0" width="9" height="18" fill="#ffffff"/><rect x="207" y="0" width="9" height="18" fill="#ffffff"/><rect x="216" y="0" width="9" height="18" fill="#ffffff"/><rect x="225" y="0" width="9" height="18" fill="#ffffff"/><rect x="234" y="0" width="9" height="18" fill="#ffffff"/><rect x="243" y="0" width="9" height="18" fill="#ffffff"/><rect x="252" y="0" width="9" height="18" fill="#ffffff"/><rect x="261" y="0" width="9" height="18" fill="#ffffff"/><rect x="270" y="0" width="9" height="18" fill="#ffffff"/><rect x="279" y="0" width="9" height="18" fill="#ffffff"/><rect x="288" y="0" width="9" height="18" fill="#ffffff"/><rect x="297" y="0" width="9" height="18" fill="#ffffff"/><rect x="306" y="0" width="9" height="18" fill="#ffffff"/><rect x="315" y="0" width="9" height="18" fill="#ffffff"/><rect x="324" y="0" width="9" height="18" fill="#ffffff"/><rect x="333" y="0" width="9" height="18" fill="#ffffff"/><rect x="342" y="0" width="9" height="18" fill="#ffffff"/><rect x="351" y="0" width="9" height="18" fill="#ffffff"/><rect x="360" y="0" width="9" height="18" fill="#ffffff"/><rect x="369" y="0" width="9" height="18" fill="#ffffff"/></g></svg>
