<svg xmlns="http://www.w3.org/2000/svg" width="486" height="36" viewBox="0 0 486 36" role="img" aria-label="Hint bar" style="background:#000000"><rect width="100%" height="100%" fill="#000000"/><g font-family="ui-monospace, SFMono-Regular, Menlo, Consolas, monospace" font-size="14"><text x="9" y="14" fill="#ffffff">↑</text><text x="18" y="14" fill="#ffffff">↓</text><text x="36" y="14" fill="#00ff41">s</text><text x="45" y="14" fill="#00ff41">e</text><text x="54" y="14" fill="#00ff41">l</text><text x="63" y="14" fill="#00ff41">e</text><text x="72" y="14" fill="#00ff41">c</text><text x="81" y="14" fill="#00ff41">t</text><text x="99" y="14" fill="#505050">·</text><text x="117" y="14" fill="#ffffff">E</text><text x="126" y="14" fill="#ffffff">n</text><text x="135" y="14" fill="#ffffff">t</text><text x="144" y="14" fill="#ffffff">e</text><text x="153" y="14" fill="#ffffff">r</text><text x="171" y="14" fill="#00ff41">o</text><text x="180" y="14" fill="#00ff41">p</text><text x="189" y="14" fill="#00ff41">e</text><text x="198" y="14" fill="#00ff41">n</text><text x="216" y="14" fill="#505050">·</text><text x="234" y="14" fill="#ffffff">D</text><text x="252" y="14" fill="#00ff41">d</text><text x="261" y="14" fill="#00ff41">e</text><text x="270" y="14" fill="#00ff41">l</text><text x="279" y="14" fill="#00ff41">e</text><text x="288" y="14" fill="#00ff41">t</text><text x="297" y="14" fill="#00ff41">e</text><text x="333" y="14" fill="#ffffff">S</text><text x="351" y="14" fill="#00ff41">s</text><text x="360" y="14" fill="#00ff41">a</text><text x="369" y="14" fill="#00ff41">v</text><text x="378" y="14" fill="#00ff41">e</text><text x="396" y="14" fill="#505050">·</text><text x="414" y="14" fill="#ffffff">E</text><text x="423" y="14" fill="#ffffff">s</text><text x="432" y="14" fill="#ffffff">c</text><text x="450" y="14" fill="#00ff41">b</text><text x="459" y="14" fill="#00ff41">a</text><text x="468" y="14" fill="#00ff41">c</text><text x="477" y="14" fill="#00ff41">k</text></g></svg>
