<svg xmlns="http://www.w3.org/2000/svg" width="486" height="126" viewBox="0 0 486 126" role="img" aria-label="Save/discard dialog" style="background:#000000"><rect width="100%" height="100%" fill="#000000"/><g font-family="ui-monospace, SFMono-Regular, Menlo, Consolas, monospace" font-size="14"><text x="0" y="14" fill="#00ff41">┌</text><text x="18" y="14" fill="#ffffff">U</text><text x="27" y="14" fill="#ffffff">n</text><text x="36" y="14" fill="#ffffff">s</text><text x="45" y="14" fill="#ffffff">a</text><text x="54" y="14" fill="#ffffff">v</text><text x="63" y="14" fill="#ffffff">e</text><text x="72" y="14" fill="#ffffff">d</text><text x="90" y="14" fill="#ffffff">c</text><text x="99" y="14" fill="#ffffff">h</text><text x="108" y="14" fill="#ffffff">a</text><text x="117" y="14" fill="#ffffff">n</text><text x="126" y="14" fill="#ffffff">g</text><text x="135" y="14" fill="#ffffff">e</text><text x="144" y="14" fill="#ffffff">s</text><text x="162" y="14" fill="#00ff41">─</text><text x="171" y="14" fill="#00ff41">─</text><text x="180" y="14" fill="#00ff41">─</text><text x="189" y="14" fill="#00ff41">─</text><text x="198" y="14" fill="#00ff41">─</text><text x="207" y="14" fill="#00ff41">─</text><text x="216" y="14" fill="#00ff41">─</text><text x="225" y="14" fill="#00ff41">─</text><text x="234" y="14" fill="#00ff41">─</text><text x="243" y="14" fill="#00ff41">─</text><text x="252" y="14" fill="#00ff41">─</text><text x="261" y="14" fill="#00ff41">─</text><text x="270" y="14" fill="#00ff41">─</text><text x="279" y="14" fill="#00ff41">─</text><text x="288" y="14" fill="#00ff41">─</text><text x="297" y="14" fill="#00ff41">─</text><text x="306" y="14" fill="#00ff41">─</text><text x="315" y="14" fill="#00ff41">─</text><text x="324" y="14" fill="#00ff41">─</text><text x="333" y="14" fill="#00ff41">─</text><text x="342" y="14" fill="#00ff41">─</text><text x="351" y="14" fill="#00ff41">─</text><text x="360" y="14" fill="#00ff41">─</text><text x="369" y="14" fill="#00ff41">─</text><text x="378" y="14" fill="#00ff41">─</text><text x="387" y="14" fill="#00ff41">─</text><text x="396" y="14" fill="#00ff41">─</text><text x="405" y="14" fill="#00ff41">─</text><text x="414" y="14" fill="#00ff41">─</text><text x="423" y="14" fill="#00ff41">─</text><text x="432" y="14" fill="#00ff41">─</text><text x="441" y="14" fill="#00ff41">─</text><text x="450" y="14" fill="#00ff41">─</text><text x="459" y="14" fill="#00ff41">─</text><text x="468" y="14" fill="#00ff41">─</text><text x="477" y="14" fill="#00ff41">┐</text><text x="0" y="32" fill="#00ff41">│</text><text x="72" y="32" fill="#ffffff">S</text><text x="81" y="32" fill="#ffffff">a</text><text x="90" y="32" fill="#ffffff">v</text><text x="99" y="32" fill="#ffffff">e</text><text x="117" y="32" fill="#ffffff">w</text><text x="126" y="32" fill="#ffffff">o</text><text x="135" y="32" fill="#ffffff">r</text><text x="144" y="32" fill="#ffffff">k</text><text x="153" y="32" fill="#ffffff">s</text><text x="162" y="32" fill="#ffffff">p</text><text x="171" y="32" fill="#ffffff">a</text><text x="180" y="32" fill="#ffffff">c</text><text x="189" y="32" fill="#ffffff">e</text><text x="207" y="32" fill="#ffffff">c</text><text x="216" y="32" fill="#ffffff">h</text><text x="225" y="32" fill="#ffffff">a</text><text x="234" y="32" fill="#ffffff">n</text><text x="243" y="32" fill="#ffffff">g</text><text x="252" y="32" fill="#ffffff">e</text><text x="261" y="32" fill="#ffffff">s</text><text x="279" y="32" fill="#ffffff">b</text><text x="288" y="32" fill="#ffffff">e</text><text x="297" y="32" fill="#ffffff">f</text><text x="306" y="32" fill="#ffffff">o</text><text x="315" y="32" fill="#ffffff">r</text><text x="324" y="32" fill="#ffffff">e</text><text x="342" y="32" fill="#ffffff">l</text><text x="351" y="32" fill="#ffffff">e</text><text x="360" y="32" fill="#ffffff">a</text><text x="369" y="32" fill="#ffffff">v</text><text x="378" y="32" fill="#ffffff">i</text><text x="387" y="32" fill="#ffffff">n</text><text x="396" y="32" fill="#ffffff">g</text><text x="405" y="32" fill="#ffffff">?</text><text x="477" y="32" fill="#00ff41">│</text><text x="0" y="50" fill="#00ff41">│</text><text x="477" y="50" fill="#00ff41">│</text><text x="0" y="68" fill="#00ff41">│</text><text x="99" y="68" fill="#00ff41">S</text><text x="108" y="68" fill="#00ff41">a</text><text x="117" y="68" fill="#00ff41">v</text><text x="126" y="68" fill="#00ff41">e</text><text x="207" y="68" fill="#00ff41">D</text><text x="216" y="68" fill="#00ff41">i</text><text x="225" y="68" fill="#00ff41">s</text><text x="234" y="68" fill="#00ff41">c</text><text x="243" y="68" fill="#00ff41">a</text><text x="252" y="68" fill="#00ff41">r</text><text x="261" y="68" fill="#00ff41">d</text><rect x="324" y="54" width="9" height="18" fill="#ffffff"/><rect x="333" y="54" width="9" height="18" fill="#ffffff"/><rect x="342" y="54" width="9" height="18" fill="#ffffff"/><text x="342" y="68" fill="#000000">C</text><rect x="351" y="54" width="9" height="18" fill="#ffffff"/><text x="351" y="68" fill="#000000">a</text><rect x="360" y="54" width="9" height="18" fill="#ffffff"/><text x="360" y="68" fill="#000000">n</text><rect x="369" y="54" width="9" height="18" fill="#ffffff"/><text x="369" y="68" fill="#000000">c</text><rect x="378" y="54" width="9" height="18" fill="#ffffff"/><text x="378" y="68" fill="#000000">e</text><rect x="387" y="54" width="9" height="18" fill="#ffffff"/><text x="387" y="68" fill="#000000">l</text><rect x="396" y="54" width="9" height="18" fill="#ffffff"/><rect x="405" y="54" width="9" height="18" fill="#ffffff"/><text x="477" y="68" fill="#00ff41">│</text><text x="0" y="86" fill="#00ff41">│</text><text x="477" y="86" fill="#00ff41">│</text><text x="0" y="104" fill="#00ff41">│</text><text x="477" y="104" fill="#00ff41">│</text><text x="0" y="122" fill="#00ff41">└</text><text x="9" y="122" fill="#00ff41">─</text><text x="18" y="122" fill="#00ff41">─</text><text x="27" y="122" fill="#00ff41">─</text><text x="36" y="122" fill="#00ff41">─</text><text x="45" y="122" fill="#00ff41">─</text><text x="54" y="122" fill="#00ff41">─</text><text x="63" y="122" fill="#00ff41">─</text><text x="72" y="122" fill="#00ff41">─</text><text x="81" y="122" fill="#00ff41">─</text><text x="90" y="122" fill="#00ff41">─</text><text x="99" y="122" fill="#00ff41">─</text><text x="108" y="122" fill="#00ff41">─</text><text x="117" y="122" fill="#00ff41">─</text><text x="126" y="122" fill="#00ff41">─</text><text x="135" y="122" fill="#00ff41">─</text><text x="144" y="122" fill="#00ff41">─</text><text x="153" y="122" fill="#00ff41">─</text><text x="162" y="122" fill="#00ff41">─</text><text x="171" y="122" fill="#00ff41">─</text><text x="180" y="122" fill="#00ff41">─</text><text x="189" y="122" fill="#00ff41">─</text><text x="198" y="122" fill="#00ff41">─</text><text x="207" y="122" fill="#00ff41">─</text><text x="216" y="122" fill="#00ff41">─</text><text x="225" y="122" fill="#00ff41">─</text><text x="234" y="122" fill="#00ff41">─</text><text x="243" y="122" fill="#00ff41">─</text><text x="252" y="122" fill="#00ff41">─</text><text x="261" y="122" fill="#00ff41">─</text><text x="270" y="122" fill="#00ff41">─</text><text x="279" y="122" fill="#00ff41">─</text><text x="288" y="122" fill="#00ff41">─</text><text x="297" y="122" fill="#00ff41">─</text><text x="306" y="122" fill="#00ff41">─</text><text x="315" y="122" fill="#00ff41">─</text><text x="324" y="122" fill="#00ff41">─</text><text x="333" y="122" fill="#00ff41">─</text><text x="342" y="122" fill="#00ff41">─</text><text x="351" y="122" fill="#00ff41">─</text><text x="360" y="122" fill="#00ff41">─</text><text x="369" y="122" fill="#00ff41">─</text><text x="378" y="122" fill="#00ff41">─</text><text x="387" y="122" fill="#00ff41">─</text><text x="396" y="122" fill="#00ff41">─</text><text x="405" y="122" fill="#00ff41">─</text><text x="414" y="122" fill="#00ff41">─</text><text x="423" y="122" fill="#00ff41">─</text><text x="432" y="122" fill="#00ff41">─</text><text x="441" y="122" fill="#00ff41">─</text><text x="450" y="122" fill="#00ff41">─</text><text x="459" y="122" fill="#00ff41">─</text><text x="468" y="122" fill="#00ff41">─</text><text x="477" y="122" fill="#00ff41">┘</text></g></svg>
