<svg xmlns="http://www.w3.org/2000/svg" width="432" height="144" viewBox="0 0 432 144" role="img" aria-label="Select list filtered-empty" style="background:#000000"><rect width="100%" height="100%" fill="#000000"/><g font-family="ui-monospace, SFMono-Regular, Menlo, Consolas, monospace" font-size="14"><text x="0" y="14" fill="#00ff41">┌</text><text x="18" y="14" fill="#ffffff">S</text><text x="27" y="14" fill="#ffffff">e</text><text x="36" y="14" fill="#ffffff">l</text><text x="45" y="14" fill="#ffffff">e</text><text x="54" y="14" fill="#ffffff">c</text><text x="63" y="14" fill="#ffffff">t</text><text x="81" y="14" fill="#ffffff">R</text><text x="90" y="14" fill="#ffffff">o</text><text x="99" y="14" fill="#ffffff">l</text><text x="108" y="14" fill="#ffffff">e</text><text x="126" y="14" fill="#00ff41">─</text><text x="135" y="14" fill="#00ff41">─</text><text x="144" y="14" fill="#00ff41">─</text><text x="153" y="14" fill="#00ff41">─</text><text x="162" y="14" fill="#00ff41">─</text><text x="171" y="14" fill="#00ff41">─</text><text x="180" y="14" fill="#00ff41">─</text><text x="189" y="14" fill="#00ff41">─</text><text x="198" y="14" fill="#00ff41">─</text><text x="207" y="14" fill="#00ff41">─</text><text x="216" y="14" fill="#00ff41">─</text><text x="225" y="14" fill="#00ff41">─</text><text x="234" y="14" fill="#00ff41">─</text><text x="243" y="14" fill="#00ff41">─</text><text x="252" y="14" fill="#00ff41">─</text><text x="261" y="14" fill="#00ff41">─</text><text x="270" y="14" fill="#00ff41">─</text><text x="279" y="14" fill="#00ff41">─</text><text x="288" y="14" fill="#00ff41">─</text><text x="297" y="14" fill="#00ff41">─</text><text x="306" y="14" fill="#00ff41">─</text><text x="315" y="14" fill="#00ff41">─</text><text x="324" y="14" fill="#00ff41">─</text><text x="333" y="14" fill="#00ff41">─</text><text x="342" y="14" fill="#00ff41">─</text><text x="351" y="14" fill="#00ff41">─</text><text x="360" y="14" fill="#00ff41">─</text><text x="369" y="14" fill="#00ff41">─</text><text x="378" y="14" fill="#00ff41">─</text><text x="387" y="14" fill="#00ff41">─</text><text x="396" y="14" fill="#00ff41">─</text><text x="405" y="14" fill="#00ff41">─</text><text x="414" y="14" fill="#00ff41">─</text><text x="423" y="14" fill="#00ff41">┐</text><text x="0" y="32" fill="#00ff41">│</text><text x="9" y="32" fill="#008c1e">F</text><text x="18" y="32" fill="#008c1e">i</text><text x="27" y="32" fill="#008c1e">l</text><text x="36" y="32" fill="#008c1e">t</text><text x="45" y="32" fill="#008c1e">e</text><text x="54" y="32" fill="#008c1e">r</text><text x="63" y="32" fill="#008c1e">:</text><text x="81" y="32" fill="#ffffff">x</text><text x="90" y="32" fill="#ffffff">y</text><text x="99" y="32" fill="#ffffff">z</text><text x="108" y="32" fill="#ffffff">█</text><text x="423" y="32" fill="#00ff41">│</text><text x="0" y="50" fill="#00ff41">│</text><text x="423" y="50" fill="#00ff41">│</text><text x="0" y="68" fill="#00ff41">│</text><text x="171" y="68" fill="#008c1e">n</text><text x="180" y="68" fill="#008c1e">o</text><text x="198" y="68" fill="#008c1e">m</text><text x="207" y="68" fill="#008c1e">a</text><text x="216" y="68" fill="#008c1e">t</text><text x="225" y="68" fill="#008c1e">c</text><text x="234" y="68" fill="#008c1e">h</text><text x="243" y="68" fill="#008c1e">e</text><text x="252" y="68" fill="#008c1e">s</text><text x="423" y="68" fill="#00ff41">│</text><text x="0" y="86" fill="#00ff41">│</text><text x="423" y="86" fill="#00ff41">│</text><text x="0" y="104" fill="#00ff41">│</text><text x="423" y="104" fill="#00ff41">│</text><text x="0" y="122" fill="#00ff41">│</text><text x="423" y="122" fill="#00ff41">│</text><text x="0" y="140" fill="#00ff41">└</text><text x="9" y="140" fill="#00ff41">─</text><text x="18" y="140" fill="#00ff41">─</text><text x="27" y="140" fill="#00ff41">─</text><text x="36" y="140" fill="#00ff41">─</text><text x="45" y="140" fill="#00ff41">─</text><text x="54" y="140" fill="#00ff41">─</text><text x="63" y="140" fill="#00ff41">─</text><text x="72" y="140" fill="#00ff41">─</text><text x="81" y="140" fill="#00ff41">─</text><text x="90" y="140" fill="#00ff41">─</text><text x="99" y="140" fill="#00ff41">─</text><text x="108" y="140" fill="#00ff41">─</text><text x="117" y="140" fill="#00ff41">─</text><text x="126" y="140" fill="#00ff41">─</text><text x="135" y="140" fill="#00ff41">─</text><text x="144" y="140" fill="#00ff41">─</text><text x="153" y="140" fill="#00ff41">─</text><text x="162" y="140" fill="#00ff41">─</text><text x="171" y="140" fill="#00ff41">─</text><text x="180" y="140" fill="#00ff41">─</text><text x="189" y="140" fill="#00ff41">─</text><text x="198" y="140" fill="#00ff41">─</text><text x="207" y="140" fill="#00ff41">─</text><text x="216" y="140" fill="#00ff41">─</text><text x="225" y="140" fill="#00ff41">─</text><text x="234" y="140" fill="#00ff41">─</text><text x="243" y="140" fill="#00ff41">─</text><text x="252" y="140" fill="#00ff41">─</text><text x="261" y="140" fill="#00ff41">─</text><text x="270" y="140" fill="#00ff41">─</text><text x="279" y="140" fill="#00ff41">─</text><text x="288" y="140" fill="#00ff41">─</text><text x="297" y="140" fill="#00ff41">─</text><text x="306" y="140" fill="#00ff41">─</text><text x="315" y="140" fill="#00ff41">─</text><text x="324" y="140" fill="#00ff41">─</text><text x="333" y="140" fill="#00ff41">─</text><text x="342" y="140" fill="#00ff41">─</text><text x="351" y="140" fill="#00ff41">─</text><text x="360" y="140" fill="#00ff41">─</text><text x="369" y="140" fill="#00ff41">─</text><text x="378" y="140" fill="#00ff41">─</text><text x="387" y="140" fill="#00ff41">─</text><text x="396" y="140" fill="#00ff41">─</text><text x="405" y="140" fill="#00ff41">─</text><text x="414" y="140" fill="#00ff41">─</text><text x="423" y="140" fill="#00ff41">┘</text></g></svg>
