<svg xmlns="http://www.w3.org/2000/svg" width="522" height="198" viewBox="0 0 522 198" role="img" aria-label="Select list" style="background:#000000"><rect width="100%" height="100%" fill="#000000"/><g font-family="ui-monospace, SFMono-Regular, Menlo, Consolas, monospace" font-size="14"><text x="0" y="14" fill="#00ff41">┌</text><text x="18" y="14" fill="#ffffff">C</text><text x="27" y="14" fill="#ffffff">h</text><text x="36" y="14" fill="#ffffff">o</text><text x="45" y="14" fill="#ffffff">o</text><text x="54" y="14" fill="#ffffff">s</text><text x="63" y="14" fill="#ffffff">e</text><text x="81" y="14" fill="#ffffff">a</text><text x="90" y="14" fill="#ffffff">g</text><text x="99" y="14" fill="#ffffff">e</text><text x="108" y="14" fill="#ffffff">n</text><text x="117" y="14" fill="#ffffff">t</text><text x="135" y="14" fill="#00ff41">─</text><text x="144" y="14" fill="#00ff41">─</text><text x="153" y="14" fill="#00ff41">─</text><text x="162" y="14" fill="#00ff41">─</text><text x="171" y="14" fill="#00ff41">─</text><text x="180" y="14" fill="#00ff41">─</text><text x="189" y="14" fill="#00ff41">─</text><text x="198" y="14" fill="#00ff41">─</text><text x="207" y="14" fill="#00ff41">─</text><text x="216" y="14" fill="#00ff41">─</text><text x="225" y="14" fill="#00ff41">─</text><text x="234" y="14" fill="#00ff41">─</text><text x="243" y="14" fill="#00ff41">─</text><text x="252" y="14" fill="#00ff41">─</text><text x="261" y="14" fill="#00ff41">─</text><text x="270" y="14" fill="#00ff41">─</text><text x="279" y="14" fill="#00ff41">─</text><text x="288" y="14" fill="#00ff41">─</text><text x="297" y="14" fill="#00ff41">─</text><text x="306" y="14" fill="#00ff41">─</text><text x="315" y="14" fill="#00ff41">─</text><text x="324" y="14" fill="#00ff41">─</text><text x="333" y="14" fill="#00ff41">─</text><text x="342" y="14" fill="#00ff41">─</text><text x="351" y="14" fill="#00ff41">─</text><text x="360" y="14" fill="#00ff41">─</text><text x="369" y="14" fill="#00ff41">─</text><text x="378" y="14" fill="#00ff41">─</text><text x="387" y="14" fill="#00ff41">─</text><text x="396" y="14" fill="#00ff41">─</text><text x="405" y="14" fill="#00ff41">─</text><text x="414" y="14" fill="#00ff41">─</text><text x="423" y="14" fill="#00ff41">─</text><text x="432" y="14" fill="#00ff41">─</text><text x="441" y="14" fill="#00ff41">─</text><text x="450" y="14" fill="#00ff41">─</text><text x="459" y="14" fill="#00ff41">─</text><text x="468" y="14" fill="#00ff41">─</text><text x="477" y="14" fill="#00ff41">─</text><text x="486" y="14" fill="#00ff41">─</text><text x="495" y="14" fill="#00ff41">─</text><text x="504" y="14" fill="#00ff41">─</text><text x="513" y="14" fill="#00ff41">┐</text><text x="0" y="32" fill="#00ff41">│</text><text x="9" y="32" fill="#008c1e">F</text><text x="18" y="32" fill="#008c1e">i</text><text x="27" y="32" fill="#008c1e">l</text><text x="36" y="32" fill="#008c1e">t</text><text x="45" y="32" fill="#008c1e">e</text><text x="54" y="32" fill="#008c1e">r</text><text x="63" y="32" fill="#008c1e">:</text><text x="81" y="32" fill="#005012">░</text><text x="90" y="32" fill="#005012">░</text><text x="99" y="32" fill="#005012">░</text><text x="108" y="32" fill="#005012">░</text><text x="117" y="32" fill="#005012">░</text><text x="126" y="32" fill="#005012">░</text><text x="135" y="32" fill="#005012">░</text><text x="144" y="32" fill="#005012">░</text><text x="153" y="32" fill="#005012">░</text><text x="162" y="32" fill="#005012">░</text><text x="171" y="32" fill="#005012">░</text><text x="180" y="32" fill="#005012">░</text><text x="189" y="32" fill="#005012">░</text><text x="198" y="32" fill="#005012">░</text><text x="207" y="32" fill="#005012">░</text><text x="216" y="32" fill="#005012">░</text><text x="225" y="32" fill="#005012">░</text><text x="234" y="32" fill="#005012">░</text><text x="243" y="32" fill="#005012">░</text><text x="252" y="32" fill="#005012">░</text><text x="513" y="32" fill="#00ff41">│</text><text x="0" y="50" fill="#00ff41">│</text><text x="513" y="50" fill="#00ff41">│</text><text x="0" y="68" fill="#00ff41">│</text><text x="9" y="68" fill="#ffffff">W</text><text x="18" y="68" fill="#ffffff">o</text><text x="27" y="68" fill="#ffffff">r</text><text x="36" y="68" fill="#ffffff">k</text><text x="45" y="68" fill="#ffffff">s</text><text x="54" y="68" fill="#ffffff">p</text><text x="63" y="68" fill="#ffffff">a</text><text x="72" y="68" fill="#ffffff">c</text><text x="81" y="68" fill="#ffffff">e</text><text x="90" y="68" fill="#ffffff">:</text><text x="108" y="68" fill="#00ff41">j</text><text x="117" y="68" fill="#00ff41">a</text><text x="126" y="68" fill="#00ff41">c</text><text x="135" y="68" fill="#00ff41">k</text><text x="144" y="68" fill="#00ff41">i</text><text x="153" y="68" fill="#00ff41">n</text><text x="162" y="68" fill="#00ff41">-</text><text x="171" y="68" fill="#00ff41">c</text><text x="180" y="68" fill="#00ff41">o</text><text x="189" y="68" fill="#00ff41">r</text><text x="198" y="68" fill="#00ff41">e</text><text x="513" y="68" fill="#00ff41">│</text><text x="0" y="86" fill="#00ff41">│</text><text x="9" y="86" fill="#ffffff">R</text><text x="18" y="86" fill="#ffffff">o</text><text x="27" y="86" fill="#ffffff">l</text><text x="36" y="86" fill="#ffffff">e</text><text x="45" y="86" fill="#ffffff">:</text><text x="63" y="86" fill="#00ff41">r</text><text x="72" y="86" fill="#00ff41">u</text><text x="81" y="86" fill="#00ff41">s</text><text x="90" y="86" fill="#00ff41">t</text><text x="513" y="86" fill="#00ff41">│</text><text x="0" y="104" fill="#00ff41">│</text><text x="513" y="104" fill="#00ff41">│</text><text x="0" y="122" fill="#00ff41">│</text><text x="27" y="122" fill="#ffffff">c</text><text x="36" y="122" fill="#ffffff">l</text><text x="45" y="122" fill="#ffffff">a</text><text x="54" y="122" fill="#ffffff">u</text><text x="63" y="122" fill="#ffffff">d</text><text x="72" y="122" fill="#ffffff">e</text><text x="504" y="122" fill="#00ff41">█</text><text x="513" y="122" fill="#00ff41">│</text><text x="0" y="140" fill="#00ff41">│</text><rect x="9" y="126" width="9" height="18" fill="#00ff41"/><text x="9" y="140" fill="#005012">▸</text><rect x="18" y="126" width="9" height="18" fill="#00ff41"/><rect x="27" y="126" width="9" height="18" fill="#00ff41"/><text x="27" y="140" fill="#005012">c</text><rect x="36" y="126" width="9" height="18" fill="#00ff41"/><text x="36" y="140" fill="#005012">o</text><rect x="45" y="126" width="9" height="18" fill="#00ff41"/><text x="45" y="140" fill="#005012">d</text><rect x="54" y="126" width="9" height="18" fill="#00ff41"/><text x="54" y="140" fill="#005012">e</text><rect x="63" y="126" width="9" height="18" fill="#00ff41"/><text x="63" y="140" fill="#005012">x</text><rect x="72" y="126" width="9" height="18" fill="#00ff41"/><rect x="81" y="126" width="9" height="18" fill="#00ff41"/><rect x="90" y="126" width="9" height="18" fill="#00ff41"/><rect x="99" y="126" width="9" height="18" fill="#00ff41"/><rect x="108" y="126" width="9" height="18" fill="#00ff41"/><rect x="117" y="126" width="9" height="18" fill="#00ff41"/><rect x="126" y="126" width="9" height="18" fill="#00ff41"/><rect x="135" y="126" width="9" height="18" fill="#00ff41"/><rect x="144" y="126" width="9" height="18" fill="#00ff41"/><rect x="153" y="126" width="9" height="18" fill="#00ff41"/><rect x="162" y="126" width="9" height="18" fill="#00ff41"/><rect x="171" y="126" width="9" height="18" fill="#00ff41"/><rect x="180" y="126" width="9" height="18" fill="#00ff41"/><rect x="189" y="126" width="9" height="18" fill="#00ff41"/><rect x="198" y="126" width="9" height="18" fill="#00ff41"/><rect x="207" y="126" width="9" height="18" fill="#00ff41"/><rect x="216" y="126" width="9" height="18" fill="#00ff41"/><rect x="225" y="126" width="9" height="18" fill="#00ff41"/><rect x="234" y="126" width="9" height="18" fill="#00ff41"/><rect x="243" y="126" width="9" height="18" fill="#00ff41"/><rect x="252" y="126" width="9" height="18" fill="#00ff41"/><rect x="261" y="126" width="9" height="18" fill="#00ff41"/><rect x="270" y="126" width="9" height="18" fill="#00ff41"/><rect x="279" y="126" width="9" height="18" fill="#00ff41"/><rect x="288" y="126" width="9" height="18" fill="#00ff41"/><rect x="297" y="126" width="9" height="18" fill="#00ff41"/><rect x="306" y="126" width="9" height="18" fill="#00ff41"/><rect x="315" y="126" width="9" height="18" fill="#00ff41"/><rect x="324" y="126" width="9" height="18" fill="#00ff41"/><rect x="333" y="126" width="9" height="18" fill="#00ff41"/><rect x="342" y="126" width="9" height="18" fill="#00ff41"/><rect x="351" y="126" width="9" height="18" fill="#00ff41"/><rect x="360" y="126" width="9" height="18" fill="#00ff41"/><rect x="369" y="126" width="9" height="18" fill="#00ff41"/><rect x="378" y="126" width="9" height="18" fill="#00ff41"/><rect x="387" y="126" width="9" height="18" fill="#00ff41"/><rect x="396" y="126" width="9" height="18" fill="#00ff41"/><rect x="405" y="126" width="9" height="18" fill="#00ff41"/><rect x="414" y="126" width="9" height="18" fill="#00ff41"/><rect x="423" y="126" width="9" height="18" fill="#00ff41"/><rect x="432" y="126" width="9" height="18" fill="#00ff41"/><rect x="441" y="126" width="9" height="18" fill="#00ff41"/><rect x="450" y="126" width="9" height="18" fill="#00ff41"/><rect x="459" y="126" width="9" height="18" fill="#00ff41"/><rect x="468" y="126" width="9" height="18" fill="#00ff41"/><rect x="477" y="126" width="9" height="18" fill="#00ff41"/><rect x="486" y="126" width="9" height="18" fill="#00ff41"/><rect x="495" y="126" width="9" height="18" fill="#00ff41"/><rect x="504" y="126" width="9" height="18" fill="#00ff41"/><text x="504" y="140" fill="#00ff41">█</text><text x="513" y="140" fill="#00ff41">│</text><text x="0" y="158" fill="#00ff41">│</text><text x="27" y="158" fill="#ffffff">a</text><text x="36" y="158" fill="#ffffff">m</text><text x="45" y="158" fill="#ffffff">p</text><text x="504" y="158" fill="#00ff41">█</text><text x="513" y="158" fill="#00ff41">│</text><text x="0" y="176" fill="#00ff41">│</text><text x="27" y="176" fill="#ffffff">k</text><text x="36" y="176" fill="#ffffff">i</text><text x="45" y="176" fill="#ffffff">m</text><text x="54" y="176" fill="#ffffff">i</text><text x="504" y="176" fill="#005012">█</text><text x="513" y="176" fill="#00ff41">│</text><text x="0" y="194" fill="#00ff41">└</text><text x="9" y="194" fill="#00ff41">─</text><text x="18" y="194" fill="#00ff41">─</text><text x="27" y="194" fill="#00ff41">─</text><text x="36" y="194" fill="#00ff41">─</text><text x="45" y="194" fill="#00ff41">─</text><text x="54" y="194" fill="#00ff41">─</text><text x="63" y="194" fill="#00ff41">─</text><text x="72" y="194" fill="#00ff41">─</text><text x="81" y="194" fill="#00ff41">─</text><text x="90" y="194" fill="#00ff41">─</text><text x="99" y="194" fill="#00ff41">─</text><text x="108" y="194" fill="#00ff41">─</text><text x="117" y="194" fill="#00ff41">─</text><text x="126" y="194" fill="#00ff41">─</text><text x="135" y="194" fill="#00ff41">─</text><text x="144" y="194" fill="#00ff41">─</text><text x="153" y="194" fill="#00ff41">─</text><text x="162" y="194" fill="#00ff41">─</text><text x="171" y="194" fill="#00ff41">─</text><text x="180" y="194" fill="#00ff41">─</text><text x="189" y="194" fill="#00ff41">─</text><text x="198" y="194" fill="#00ff41">─</text><text x="207" y="194" fill="#00ff41">─</text><text x="216" y="194" fill="#00ff41">─</text><text x="225" y="194" fill="#00ff41">─</text><text x="234" y="194" fill="#00ff41">─</text><text x="243" y="194" fill="#00ff41">─</text><text x="252" y="194" fill="#00ff41">─</text><text x="261" y="194" fill="#00ff41">─</text><text x="270" y="194" fill="#00ff41">─</text><text x="279" y="194" fill="#00ff41">─</text><text x="288" y="194" fill="#00ff41">─</text><text x="297" y="194" fill="#00ff41">─</text><text x="306" y="194" fill="#00ff41">─</text><text x="315" y="194" fill="#00ff41">─</text><text x="324" y="194" fill="#00ff41">─</text><text x="333" y="194" fill="#00ff41">─</text><text x="342" y="194" fill="#00ff41">─</text><text x="351" y="194" fill="#00ff41">─</text><text x="360" y="194" fill="#00ff41">─</text><text x="369" y="194" fill="#00ff41">─</text><text x="378" y="194" fill="#00ff41">─</text><text x="387" y="194" fill="#00ff41">─</text><text x="396" y="194" fill="#00ff41">─</text><text x="405" y="194" fill="#00ff41">─</text><text x="414" y="194" fill="#00ff41">─</text><text x="423" y="194" fill="#00ff41">─</text><text x="432" y="194" fill="#00ff41">─</text><text x="441" y="194" fill="#00ff41">─</text><text x="450" y="194" fill="#00ff41">─</text><text x="459" y="194" fill="#00ff41">─</text><text x="468" y="194" fill="#00ff41">─</text><text x="477" y="194" fill="#00ff41">─</text><text x="486" y="194" fill="#00ff41">─</text><text x="495" y="194" fill="#00ff41">─</text><text x="504" y="194" fill="#00ff41">─</text><text x="513" y="194" fill="#00ff41">┘</text></g></svg>
