<svg xmlns="http://www.w3.org/2000/svg" width="522" height="36" viewBox="0 0 522 36" role="img" aria-label="Tab strip" style="background:#000000"><rect width="100%" height="100%" fill="#000000"/><g font-family="ui-monospace, SFMono-Regular, Menlo, Consolas, monospace" font-size="14"><rect x="0" y="0" width="9" height="18" fill="#ffffff"/><rect x="9" y="0" width="9" height="18" fill="#ffffff"/><text x="9" y="14" fill="#ffffff">G</text><rect x="18" y="0" width="9" height="18" fill="#ffffff"/><text x="18" y="14" fill="#ffffff">e</text><rect x="27" y="0" width="9" height="18" fill="#ffffff"/><text x="27" y="14" fill="#ffffff">n</text><rect x="36" y="0" width="9" height="18" fill="#ffffff"/><text x="36" y="14" fill="#ffffff">e</text><rect x="45" y="0" width="9" height="18" fill="#ffffff"/><text x="45" y="14" fill="#ffffff">r</text><rect x="54" y="0" width="9" height="18" fill="#ffffff"/><text x="54" y="14" fill="#ffffff">a</text><rect x="63" y="0" width="9" height="18" fill="#ffffff"/><text x="63" y="14" fill="#ffffff">l</text><rect x="72" y="0" width="9" height="18" fill="#ffffff"/><rect x="90" y="0" width="9" height="18" fill="#ffffff"/><rect x="99" y="0" width="9" height="18" fill="#ffffff"/><text x="99" y="14" fill="#ffffff">M</text><rect x="108" y="0" width="9" height="18" fill="#ffffff"/><text x="108" y="14" fill="#ffffff">o</text><rect x="117" y="0" width="9" height="18" fill="#ffffff"/><text x="117" y="14" fill="#ffffff">u</text><rect x="126" y="0" width="9" height="18" fill="#ffffff"/><text x="126" y="14" fill="#ffffff">n</text><rect x="135" y="0" width="9" height="18" fill="#ffffff"/><text x="135" y="14" fill="#ffffff">t</text><rect x="144" y="0" width="9" height="18" fill="#ffffff"/><text x="144" y="14" fill="#ffffff">s</text><rect x="153" y="0" width="9" height="18" fill="#ffffff"/><rect x="171" y="0" width="9" height="18" fill="#ffffff"/><rect x="180" y="0" width="9" height="18" fill="#ffffff"/><text x="180" y="14" fill="#ffffff">R</text><rect x="189" y="0" width="9" height="18" fill="#ffffff"/><text x="189" y="14" fill="#ffffff">o</text><rect x="198" y="0" width="9" height="18" fill="#ffffff"/><text x="198" y="14" fill="#ffffff">l</text><rect x="207" y="0" width="9" height="18" fill="#ffffff"/><text x="207" y="14" fill="#ffffff">e</text><rect x="216" y="0" width="9" height="18" fill="#ffffff"/><text x="216" y="14" fill="#ffffff">s</text><rect x="225" y="0" width="9" height="18" fill="#ffffff"/><rect x="243" y="0" width="9" height="18" fill="#ffffff"/><rect x="252" y="0" width="9" height="18" fill="#ffffff"/><text x="252" y="14" fill="#ffffff">S</text><rect x="261" y="0" width="9" height="18" fill="#ffffff"/><text x="261" y="14" fill="#ffffff">e</text><rect x="270" y="0" width="9" height="18" fill="#ffffff"/><text x="270" y="14" fill="#ffffff">c</text><rect x="279" y="0" width="9" height="18" fill="#ffffff"/><text x="279" y="14" fill="#ffffff">r</text><rect x="288" y="0" width="9" height="18" fill="#ffffff"/><text x="288" y="14" fill="#ffffff">e</text><rect x="297" y="0" width="9" height="18" fill="#ffffff"/><text x="297" y="14" fill="#ffffff">t</text><rect x="306" y="0" width="9" height="18" fill="#ffffff"/><text x="306" y="14" fill="#ffffff">s</text><rect x="315" y="0" width="9" height="18" fill="#ffffff"/><text x="0" y="32" fill="#00ff41">━</text><text x="9" y="32" fill="#00ff41">━</text><text x="18" y="32" fill="#00ff41">━</text><text x="27" y="32" fill="#00ff41">━</text><text x="36" y="32" fill="#00ff41">━</text><text x="45" y="32" fill="#00ff41">━</text><text x="54" y="32" fill="#00ff41">━</text><text x="63" y="32" fill="#00ff41">━</text><text x="72" y="32" fill="#00ff41">━</text></g></svg>
