<svg xmlns="http://www.w3.org/2000/svg" width="522" height="36" viewBox="0 0 522 36" role="img" aria-label="Tab strip" style="background:#000000"><rect width="100%" height="100%" fill="#000000"/><g font-family="ui-monospace, SFMono-Regular, Menlo, Consolas, monospace" font-size="14"><rect x="0" y="0" width="9" height="18" fill="#ffffff"/><rect x="9" y="0" width="9" height="18" fill="#ffffff"/><text x="9" y="14" fill="#ffffff">G</text><rect x="18" y="0" width="9" height="18" fill="#ffffff"/><text x="18" y="14" fill="#ffffff">e</text><rect x="27" y="0" width="9" height="18" fill="#ffffff"/><text x="27" y="14" fill="#ffffff">n</text><rect x="36" y="0" width="9" height="18" fill="#ffffff"/><text x="36" y="14" fill="#ffffff">e</text><rect x="45" y="0" width="9" height="18" fill="#ffffff"/><text x="45" y="14" fill="#ffffff">r</text><rect x="54" y="0" width="9" height="18" fill="#ffffff"/><text x="54" y="14" fill="#ffffff">a</text><rect x="63" y="0" width="9" height="18" fill="#ffffff"/><text x="63" y="14" fill="#ffffff">l</text><rect x="72" y="0" width="9" height="18" fill="#ffffff"/><rect x="81" y="0" width="9" height="18" fill="#ffffff"/><rect x="90" y="0" width="9" height="18" fill="#ffffff"/><rect x="99" y="0" width="9" height="18" fill="#ffffff"/><text x="99" y="14" fill="#ffffff">M</text><rect x="108" y="0" width="9" height="18" fill="#ffffff"/><text x="108" y="14" fill="#ffffff">o</text><rect x="117" y="0" width="9" height="18" fill="#ffffff"/><text x="117" y="14" fill="#ffffff">u</text><rect x="126" y="0" width="9" height="18" fill="#ffffff"/><text x="126" y="14" fill="#ffffff">n</text><rect x="135" y="0" width="9" height="18" fill="#ffffff"/><text x="135" y="14" fill="#ffffff">t</text><rect x="144" y="0" width="9" height="18" fill="#ffffff"/><text x="144" y="14" fill="#ffffff">s</text><rect x="153" y="0" width="9" height="18" fill="#ffffff"/><rect x="162" y="0" width="9" height="18" fill="#ffffff"/><rect x="171" y="0" width="9" height="18" fill="#ffffff"/><rect x="180" y="0" width="9" height="18" fill="#ffffff"/><text x="180" y="14" fill="#ffffff">R</text><rect x="189" y="0" width="9" height="18" fill="#ffffff"/><text x="189" y="14" fill="#ffffff">o</text><rect x="198" y="0" width="9" height="18" fill="#ffffff"/><text x="198" y="14" fill="#ffffff">l</text><rect x="207" y="0" width="9" height="18" fill="#ffffff"/><text x="207" y="14" fill="#ffffff">e</text><rect x="216" y="0" width="9" height="18" fill="#ffffff"/><text x="216" y="14" fill="#ffffff">s</text><rect x="225" y="0" width="9" height="18" fill="#ffffff"/><rect x="234" y="0" width="9" height="18" fill="#ffffff"/><rect x="243" y="0" width="9" height="18" fill="#ffffff"/><rect x="252" y="0" width="9" height="18" fill="#ffffff"/><text x="252" y="14" fill="#ffffff">S</text><rect x="261" y="0" width="9" height="18" fill="#ffffff"/><text x="261" y="14" fill="#ffffff">e</text><rect x="270" y="0" width="9" height="18" fill="#ffffff"/><text x="270" y="14" fill="#ffffff">c</text><rect x="279" y="0" width="9" height="18" fill="#ffffff"/><text x="279" y="14" fill="#ffffff">r</text><rect x="288" y="0" width="9" height="18" fill="#ffffff"/><text x="288" y="14" fill="#ffffff">e</text><rect x="297" y="0" width="9" height="18" fill="#ffffff"/><text x="297" y="14" fill="#ffffff">t</text><rect x="306" y="0" width="9" height="18" fill="#ffffff"/><text x="306" y="14" fill="#ffffff">s</text><rect x="315" y="0" width="9" height="18" fill="#ffffff"/><rect x="324" y="0" width="9" height="18" fill="#ffffff"/><rect x="333" y="0" width="9" height="18" fill="#ffffff"/><rect x="342" y="0" width="9" height="18" fill="#ffffff"/><rect x="351" y="0" width="9" height="18" fill="#ffffff"/><rect x="360" y="0" width="9" height="18" fill="#ffffff"/><rect x="369" y="0" width="9" height="18" fill="#ffffff"/><rect x="378" y="0" width="9" height="18" fill="#ffffff"/><rect x="387" y="0" width="9" height="18" fill="#ffffff"/><rect x="396" y="0" width="9" height="18" fill="#ffffff"/><rect x="405" y="0" width="9" height="18" fill="#ffffff"/><rect x="414" y="0" width="9" height="18" fill="#ffffff"/><rect x="423" y="0" width="9" height="18" fill="#ffffff"/><rect x="432" y="0" width="9" height="18" fill="#ffffff"/><rect x="441" y="0" width="9" height="18" fill="#ffffff"/><rect x="450" y="0" width="9" height="18" fill="#ffffff"/><rect x="459" y="0" width="9" height="18" fill="#ffffff"/><rect x="468" y="0" width="9" height="18" fill="#ffffff"/><rect x="477" y="0" width="9" height="18" fill="#ffffff"/><rect x="486" y="0" width="9" height="18" fill="#ffffff"/><rect x="495" y="0" width="9" height="18" fill="#ffffff"/><rect x="504" y="0" width="9" height="18" fill="#ffffff"/><rect x="513" y="0" width="9" height="18" fill="#ffffff"/><rect x="0" y="18" width="9" height="18" fill="#ffffff"/><text x="0" y="32" fill="#ffffff">━</text><rect x="9" y="18" width="9" height="18" fill="#ffffff"/><text x="9" y="32" fill="#ffffff">━</text><rect x="18" y="18" width="9" height="18" fill="#ffffff"/><text x="18" y="32" fill="#ffffff">━</text><rect x="27" y="18" width="9" height="18" fill="#ffffff"/><text x="27" y="32" fill="#ffffff">━</text><rect x="36" y="18" width="9" height="18" fill="#ffffff"/><text x="36" y="32" fill="#ffffff">━</text><rect x="45" y="18" width="9" height="18" fill="#ffffff"/><text x="45" y="32" fill="#ffffff">━</text><rect x="54" y="18" width="9" height="18" fill="#ffffff"/><text x="54" y="32" fill="#ffffff">━</text><rect x="63" y="18" width="9" height="18" fill="#ffffff"/><text x="63" y="32" fill="#ffffff">━</text><rect x="72" y="18" width="9" height="18" fill="#ffffff"/><text x="72" y="32" fill="#ffffff">━</text><rect x="81" y="18" width="9" height="18" fill="#ffffff"/><rect x="90" y="18" width="9" height="18" fill="#ffffff"/><rect x="99" y="18" width="9" height="18" fill="#ffffff"/><rect x="108" y="18" width="9" height="18" fill="#ffffff"/><rect x="117" y="18" width="9" height="18" fill="#ffffff"/><rect x="126" y="18" width="9" height="18" fill="#ffffff"/><rect x="135" y="18" width="9" height="18" fill="#ffffff"/><rect x="144" y="18" width="9" height="18" fill="#ffffff"/><rect x="153" y="18" width="9" height="18" fill="#ffffff"/><rect x="162" y="18" width="9" height="18" fill="#ffffff"/><rect x="171" y="18" width="9" height="18" fill="#ffffff"/><rect x="180" y="18" width="9" height="18" fill="#ffffff"/><rect x="189" y="18" width="9" height="18" fill="#ffffff"/><rect x="198" y="18" width="9" height="18" fill="#ffffff"/><rect x="207" y="18" width="9" height="18" fill="#ffffff"/><rect x="216" y="18" width="9" height="18" fill="#ffffff"/><rect x="225" y="18" width="9" height="18" fill="#ffffff"/><rect x="234" y="18" width="9" height="18" fill="#ffffff"/><rect x="243" y="18" width="9" height="18" fill="#ffffff"/><rect x="252" y="18" width="9" height="18" fill="#ffffff"/><rect x="261" y="18" width="9" height="18" fill="#ffffff"/><rect x="270" y="18" width="9" height="18" fill="#ffffff"/><rect x="279" y="18" width="9" height="18" fill="#ffffff"/><rect x="288" y="18" width="9" height="18" fill="#ffffff"/><rect x="297" y="18" width="9" height="18" fill="#ffffff"/><rect x="306" y="18" width="9" height="18" fill="#ffffff"/><rect x="315" y="18" width="9" height="18" fill="#ffffff"/><rect x="324" y="18" width="9" height="18" fill="#ffffff"/><rect x="333" y="18" width="9" height="18" fill="#ffffff"/><rect x="342" y="18" width="9" height="18" fill="#ffffff"/><rect x="351" y="18" width="9" height="18" fill="#ffffff"/><rect x="360" y="18" width="9" height="18" fill="#ffffff"/><rect x="369" y="18" width="9" height="18" fill="#ffffff"/><rect x="378" y="18" width="9" height="18" fill="#ffffff"/><rect x="387" y="18" width="9" height="18" fill="#ffffff"/><rect x="396" y="18" width="9" height="18" fill="#ffffff"/><rect x="405" y="18" width="9" height="18" fill="#ffffff"/><rect x="414" y="18" width="9" height="18" fill="#ffffff"/><rect x="423" y="18" width="9" height="18" fill="#ffffff"/><rect x="432" y="18" width="9" height="18" fill="#ffffff"/><rect x="441" y="18" width="9" height="18" fill="#ffffff"/><rect x="450" y="18" width="9" height="18" fill="#ffffff"/><rect x="459" y="18" width="9" height="18" fill="#ffffff"/><rect x="468" y="18" width="9" height="18" fill="#ffffff"/><rect x="477" y="18" width="9" height="18" fill="#ffffff"/><rect x="486" y="18" width="9" height="18" fill="#ffffff"/><rect x="495" y="18" width="9" height="18" fill="#ffffff"/><rect x="504" y="18" width="9" height="18" fill="#ffffff"/><rect x="513" y="18" width="9" height="18" fill="#ffffff"/></g></svg>
