<svg xmlns="http://www.w3.org/2000/svg" width="522" height="126" viewBox="0 0 522 126" role="img" aria-label="Text input" style="background:#000000"><rect width="100%" height="100%" fill="#000000"/><g font-family="ui-monospace, SFMono-Regular, Menlo, Consolas, monospace" font-size="14"><text x="0" y="14" fill="#005012">┌</text><text x="18" y="14" fill="#ffffff">W</text><text x="27" y="14" fill="#ffffff">o</text><text x="36" y="14" fill="#ffffff">r</text><text x="45" y="14" fill="#ffffff">k</text><text x="54" y="14" fill="#ffffff">s</text><text x="63" y="14" fill="#ffffff">p</text><text x="72" y="14" fill="#ffffff">a</text><text x="81" y="14" fill="#ffffff">c</text><text x="90" y="14" fill="#ffffff">e</text><text x="108" y="14" fill="#ffffff">n</text><text x="117" y="14" fill="#ffffff">a</text><text x="126" y="14" fill="#ffffff">m</text><text x="135" y="14" fill="#ffffff">e</text><text x="153" y="14" fill="#005012">─</text><text x="162" y="14" fill="#005012">─</text><text x="171" y="14" fill="#005012">─</text><text x="180" y="14" fill="#005012">─</text><text x="189" y="14" fill="#005012">─</text><text x="198" y="14" fill="#005012">─</text><text x="207" y="14" fill="#005012">─</text><text x="216" y="14" fill="#005012">─</text><text x="225" y="14" fill="#005012">─</text><text x="234" y="14" fill="#005012">─</text><text x="243" y="14" fill="#005012">─</text><text x="252" y="14" fill="#005012">─</text><text x="261" y="14" fill="#005012">─</text><text x="270" y="14" fill="#005012">─</text><text x="279" y="14" fill="#005012">─</text><text x="288" y="14" fill="#005012">─</text><text x="297" y="14" fill="#005012">─</text><text x="306" y="14" fill="#005012">─</text><text x="315" y="14" fill="#005012">─</text><text x="324" y="14" fill="#005012">─</text><text x="333" y="14" fill="#005012">─</text><text x="342" y="14" fill="#005012">─</text><text x="351" y="14" fill="#005012">─</text><text x="360" y="14" fill="#005012">─</text><text x="369" y="14" fill="#005012">─</text><text x="378" y="14" fill="#005012">─</text><text x="387" y="14" fill="#005012">─</text><text x="396" y="14" fill="#005012">─</text><text x="405" y="14" fill="#005012">─</text><text x="414" y="14" fill="#005012">─</text><text x="423" y="14" fill="#005012">─</text><text x="432" y="14" fill="#005012">─</text><text x="441" y="14" fill="#005012">─</text><text x="450" y="14" fill="#005012">─</text><text x="459" y="14" fill="#005012">─</text><text x="468" y="14" fill="#005012">─</text><text x="477" y="14" fill="#005012">─</text><text x="486" y="14" fill="#005012">─</text><text x="495" y="14" fill="#005012">─</text><text x="504" y="14" fill="#005012">─</text><text x="513" y="14" fill="#005012">┐</text><text x="0" y="32" fill="#005012">│</text><text x="513" y="32" fill="#005012">│</text><text x="0" y="50" fill="#005012">│</text><rect x="18" y="36" width="9" height="18" fill="#ffffff"/><text x="18" y="50" fill="#00ff41">j</text><rect x="27" y="36" width="9" height="18" fill="#ffffff"/><text x="27" y="50" fill="#00ff41">a</text><rect x="36" y="36" width="9" height="18" fill="#ffffff"/><text x="36" y="50" fill="#00ff41">c</text><rect x="45" y="36" width="9" height="18" fill="#ffffff"/><text x="45" y="50" fill="#00ff41">k</text><rect x="54" y="36" width="9" height="18" fill="#ffffff"/><text x="54" y="50" fill="#00ff41">i</text><rect x="63" y="36" width="9" height="18" fill="#ffffff"/><text x="63" y="50" fill="#00ff41">n</text><rect x="72" y="36" width="9" height="18" fill="#ffffff"/><text x="72" y="50" fill="#00ff41">-</text><rect x="81" y="36" width="9" height="18" fill="#ffffff"/><text x="81" y="50" fill="#00ff41">c</text><rect x="90" y="36" width="9" height="18" fill="#ffffff"/><text x="90" y="50" fill="#00ff41">o</text><rect x="99" y="36" width="9" height="18" fill="#ffffff"/><text x="99" y="50" fill="#00ff41">r</text><rect x="108" y="36" width="9" height="18" fill="#ffffff"/><text x="108" y="50" fill="#00ff41">e</text><rect x="117" y="36" width="9" height="18" fill="#ffffff"/><rect x="126" y="36" width="9" height="18" fill="#ffffff"/><rect x="135" y="36" width="9" height="18" fill="#ffffff"/><rect x="144" y="36" width="9" height="18" fill="#ffffff"/><rect x="153" y="36" width="9" height="18" fill="#ffffff"/><rect x="162" y="36" width="9" height="18" fill="#ffffff"/><rect x="171" y="36" width="9" height="18" fill="#ffffff"/><rect x="180" y="36" width="9" height="18" fill="#ffffff"/><rect x="189" y="36" width="9" height="18" fill="#ffffff"/><rect x="198" y="36" width="9" height="18" fill="#ffffff"/><rect x="207" y="36" width="9" height="18" fill="#ffffff"/><rect x="216" y="36" width="9" height="18" fill="#ffffff"/><rect x="225" y="36" width="9" height="18" fill="#ffffff"/><rect x="234" y="36" width="9" height="18" fill="#ffffff"/><rect x="243" y="36" width="9" height="18" fill="#ffffff"/><rect x="252" y="36" width="9" height="18" fill="#ffffff"/><rect x="261" y="36" width="9" height="18" fill="#ffffff"/><rect x="270" y="36" width="9" height="18" fill="#ffffff"/><rect x="279" y="36" width="9" height="18" fill="#ffffff"/><rect x="288" y="36" width="9" height="18" fill="#ffffff"/><rect x="297" y="36" width="9" height="18" fill="#ffffff"/><rect x="306" y="36" width="9" height="18" fill="#ffffff"/><rect x="315" y="36" width="9" height="18" fill="#ffffff"/><rect x="324" y="36" width="9" height="18" fill="#ffffff"/><rect x="333" y="36" width="9" height="18" fill="#ffffff"/><rect x="342" y="36" width="9" height="18" fill="#ffffff"/><rect x="351" y="36" width="9" height="18" fill="#ffffff"/><rect x="360" y="36" width="9" height="18" fill="#ffffff"/><rect x="369" y="36" width="9" height="18" fill="#ffffff"/><rect x="378" y="36" width="9" height="18" fill="#ffffff"/><rect x="387" y="36" width="9" height="18" fill="#ffffff"/><rect x="396" y="36" width="9" height="18" fill="#ffffff"/><rect x="405" y="36" width="9" height="18" fill="#ffffff"/><rect x="414" y="36" width="9" height="18" fill="#ffffff"/><rect x="423" y="36" width="9" height="18" fill="#ffffff"/><rect x="432" y="36" width="9" height="18" fill="#ffffff"/><rect x="441" y="36" width="9" height="18" fill="#ffffff"/><rect x="450" y="36" width="9" height="18" fill="#ffffff"/><rect x="459" y="36" width="9" height="18" fill="#ffffff"/><rect x="468" y="36" width="9" height="18" fill="#ffffff"/><rect x="477" y="36" width="9" height="18" fill="#ffffff"/><rect x="486" y="36" width="9" height="18" fill="#ffffff"/><rect x="495" y="36" width="9" height="18" fill="#ffffff"/><text x="513" y="50" fill="#005012">│</text><text x="0" y="68" fill="#005012">│</text><rect x="18" y="54" width="9" height="18" fill="#ffffff"/><rect x="27" y="54" width="9" height="18" fill="#ffffff"/><rect x="36" y="54" width="9" height="18" fill="#ffffff"/><rect x="45" y="54" width="9" height="18" fill="#ffffff"/><rect x="54" y="54" width="9" height="18" fill="#ffffff"/><rect x="63" y="54" width="9" height="18" fill="#ffffff"/><rect x="72" y="54" width="9" height="18" fill="#ffffff"/><rect x="81" y="54" width="9" height="18" fill="#ffffff"/><rect x="90" y="54" width="9" height="18" fill="#ffffff"/><rect x="99" y="54" width="9" height="18" fill="#ffffff"/><rect x="108" y="54" width="9" height="18" fill="#ffffff"/><rect x="117" y="54" width="9" height="18" fill="#ffffff"/><rect x="126" y="54" width="9" height="18" fill="#ffffff"/><rect x="135" y="54" width="9" height="18" fill="#ffffff"/><rect x="144" y="54" width="9" height="18" fill="#ffffff"/><rect x="153" y="54" width="9" height="18" fill="#ffffff"/><rect x="162" y="54" width="9" height="18" fill="#ffffff"/><rect x="171" y="54" width="9" height="18" fill="#ffffff"/><rect x="180" y="54" width="9" height="18" fill="#ffffff"/><rect x="189" y="54" width="9" height="18" fill="#ffffff"/><rect x="198" y="54" width="9" height="18" fill="#ffffff"/><rect x="207" y="54" width="9" height="18" fill="#ffffff"/><rect x="216" y="54" width="9" height="18" fill="#ffffff"/><rect x="225" y="54" width="9" height="18" fill="#ffffff"/><rect x="234" y="54" width="9" height="18" fill="#ffffff"/><rect x="243" y="54" width="9" height="18" fill="#ffffff"/><rect x="252" y="54" width="9" height="18" fill="#ffffff"/><rect x="261" y="54" width="9" height="18" fill="#ffffff"/><rect x="270" y="54" width="9" height="18" fill="#ffffff"/><rect x="279" y="54" width="9" height="18" fill="#ffffff"/><rect x="288" y="54" width="9" height="18" fill="#ffffff"/><rect x="297" y="54" width="9" height="18" fill="#ffffff"/><rect x="306" y="54" width="9" height="18" fill="#ffffff"/><rect x="315" y="54" width="9" height="18" fill="#ffffff"/><rect x="324" y="54" width="9" height="18" fill="#ffffff"/><rect x="333" y="54" width="9" height="18" fill="#ffffff"/><rect x="342" y="54" width="9" height="18" fill="#ffffff"/><rect x="351" y="54" width="9" height="18" fill="#ffffff"/><rect x="360" y="54" width="9" height="18" fill="#ffffff"/><rect x="369" y="54" width="9" height="18" fill="#ffffff"/><rect x="378" y="54" width="9" height="18" fill="#ffffff"/><rect x="387" y="54" width="9" height="18" fill="#ffffff"/><rect x="396" y="54" width="9" height="18" fill="#ffffff"/><rect x="405" y="54" width="9" height="18" fill="#ffffff"/><rect x="414" y="54" width="9" height="18" fill="#ffffff"/><rect x="423" y="54" width="9" height="18" fill="#ffffff"/><rect x="432" y="54" width="9" height="18" fill="#ffffff"/><rect x="441" y="54" width="9" height="18" fill="#ffffff"/><rect x="450" y="54" width="9" height="18" fill="#ffffff"/><rect x="459" y="54" width="9" height="18" fill="#ffffff"/><rect x="468" y="54" width="9" height="18" fill="#ffffff"/><rect x="477" y="54" width="9" height="18" fill="#ffffff"/><rect x="486" y="54" width="9" height="18" fill="#ffffff"/><rect x="495" y="54" width="9" height="18" fill="#ffffff"/><text x="513" y="68" fill="#005012">│</text><text x="0" y="86" fill="#005012">│</text><rect x="18" y="72" width="9" height="18" fill="#ffffff"/><rect x="27" y="72" width="9" height="18" fill="#ffffff"/><rect x="36" y="72" width="9" height="18" fill="#ffffff"/><rect x="45" y="72" width="9" height="18" fill="#ffffff"/><rect x="54" y="72" width="9" height="18" fill="#ffffff"/><rect x="63" y="72" width="9" height="18" fill="#ffffff"/><rect x="72" y="72" width="9" height="18" fill="#ffffff"/><rect x="81" y="72" width="9" height="18" fill="#ffffff"/><rect x="90" y="72" width="9" height="18" fill="#ffffff"/><rect x="99" y="72" width="9" height="18" fill="#ffffff"/><rect x="108" y="72" width="9" height="18" fill="#ffffff"/><rect x="117" y="72" width="9" height="18" fill="#ffffff"/><rect x="126" y="72" width="9" height="18" fill="#ffffff"/><rect x="135" y="72" width="9" height="18" fill="#ffffff"/><rect x="144" y="72" width="9" height="18" fill="#ffffff"/><rect x="153" y="72" width="9" height="18" fill="#ffffff"/><rect x="162" y="72" width="9" height="18" fill="#ffffff"/><rect x="171" y="72" width="9" height="18" fill="#ffffff"/><rect x="180" y="72" width="9" height="18" fill="#ffffff"/><rect x="189" y="72" width="9" height="18" fill="#ffffff"/><rect x="198" y="72" width="9" height="18" fill="#ffffff"/><rect x="207" y="72" width="9" height="18" fill="#ffffff"/><rect x="216" y="72" width="9" height="18" fill="#ffffff"/><rect x="225" y="72" width="9" height="18" fill="#ffffff"/><rect x="234" y="72" width="9" height="18" fill="#ffffff"/><rect x="243" y="72" width="9" height="18" fill="#ffffff"/><rect x="252" y="72" width="9" height="18" fill="#ffffff"/><rect x="261" y="72" width="9" height="18" fill="#ffffff"/><rect x="270" y="72" width="9" height="18" fill="#ffffff"/><rect x="279" y="72" width="9" height="18" fill="#ffffff"/><rect x="288" y="72" width="9" height="18" fill="#ffffff"/><rect x="297" y="72" width="9" height="18" fill="#ffffff"/><rect x="306" y="72" width="9" height="18" fill="#ffffff"/><rect x="315" y="72" width="9" height="18" fill="#ffffff"/><rect x="324" y="72" width="9" height="18" fill="#ffffff"/><rect x="333" y="72" width="9" height="18" fill="#ffffff"/><rect x="342" y="72" width="9" height="18" fill="#ffffff"/><rect x="351" y="72" width="9" height="18" fill="#ffffff"/><rect x="360" y="72" width="9" height="18" fill="#ffffff"/><rect x="369" y="72" width="9" height="18" fill="#ffffff"/><rect x="378" y="72" width="9" height="18" fill="#ffffff"/><rect x="387" y="72" width="9" height="18" fill="#ffffff"/><rect x="396" y="72" width="9" height="18" fill="#ffffff"/><rect x="405" y="72" width="9" height="18" fill="#ffffff"/><rect x="414" y="72" width="9" height="18" fill="#ffffff"/><rect x="423" y="72" width="9" height="18" fill="#ffffff"/><rect x="432" y="72" width="9" height="18" fill="#ffffff"/><rect x="441" y="72" width="9" height="18" fill="#ffffff"/><rect x="450" y="72" width="9" height="18" fill="#ffffff"/><rect x="459" y="72" width="9" height="18" fill="#ffffff"/><rect x="468" y="72" width="9" height="18" fill="#ffffff"/><rect x="477" y="72" width="9" height="18" fill="#ffffff"/><rect x="486" y="72" width="9" height="18" fill="#ffffff"/><rect x="495" y="72" width="9" height="18" fill="#ffffff"/><text x="513" y="86" fill="#005012">│</text><text x="0" y="104" fill="#005012">│</text><text x="513" y="104" fill="#005012">│</text><text x="0" y="122" fill="#005012">└</text><text x="9" y="122" fill="#005012">─</text><text x="18" y="122" fill="#005012">─</text><text x="27" y="122" fill="#005012">─</text><text x="36" y="122" fill="#005012">─</text><text x="45" y="122" fill="#005012">─</text><text x="54" y="122" fill="#005012">─</text><text x="63" y="122" fill="#005012">─</text><text x="72" y="122" fill="#005012">─</text><text x="81" y="122" fill="#005012">─</text><text x="90" y="122" fill="#005012">─</text><text x="99" y="122" fill="#005012">─</text><text x="108" y="122" fill="#005012">─</text><text x="117" y="122" fill="#005012">─</text><text x="126" y="122" fill="#005012">─</text><text x="135" y="122" fill="#005012">─</text><text x="144" y="122" fill="#005012">─</text><text x="153" y="122" fill="#005012">─</text><text x="162" y="122" fill="#005012">─</text><text x="171" y="122" fill="#005012">─</text><text x="180" y="122" fill="#005012">─</text><text x="189" y="122" fill="#005012">─</text><text x="198" y="122" fill="#005012">─</text><text x="207" y="122" fill="#005012">─</text><text x="216" y="122" fill="#005012">─</text><text x="225" y="122" fill="#005012">─</text><text x="234" y="122" fill="#005012">─</text><text x="243" y="122" fill="#005012">─</text><text x="252" y="122" fill="#005012">─</text><text x="261" y="122" fill="#005012">─</text><text x="270" y="122" fill="#005012">─</text><text x="279" y="122" fill="#005012">─</text><text x="288" y="122" fill="#005012">─</text><text x="297" y="122" fill="#005012">─</text><text x="306" y="122" fill="#005012">─</text><text x="315" y="122" fill="#005012">─</text><text x="324" y="122" fill="#005012">─</text><text x="333" y="122" fill="#005012">─</text><text x="342" y="122" fill="#005012">─</text><text x="351" y="122" fill="#005012">─</text><text x="360" y="122" fill="#005012">─</text><text x="369" y="122" fill="#005012">─</text><text x="378" y="122" fill="#005012">─</text><text x="387" y="122" fill="#005012">─</text><text x="396" y="122" fill="#005012">─</text><text x="405" y="122" fill="#005012">─</text><text x="414" y="122" fill="#005012">─</text><text x="423" y="122" fill="#005012">─</text><text x="432" y="122" fill="#005012">─</text><text x="441" y="122" fill="#005012">─</text><text x="450" y="122" fill="#005012">─</text><text x="459" y="122" fill="#005012">─</text><text x="468" y="122" fill="#005012">─</text><text x="477" y="122" fill="#005012">─</text><text x="486" y="122" fill="#005012">─</text><text x="495" y="122" fill="#005012">─</text><text x="504" y="122" fill="#005012">─</text><text x="513" y="122" fill="#005012">┘</text></g></svg>
