<svg xmlns="http://www.w3.org/2000/svg" width="648" height="216" viewBox="0 0 648 216" role="img" aria-label="Container info" style="background:#000000"><rect width="100%" height="100%" fill="#000000"/><g font-family="ui-monospace, SFMono-Regular, Menlo, Consolas, monospace" font-size="14"><text x="0" y="14" fill="#00ff41">┌</text><text x="18" y="14" fill="#ffffff">C</text><text x="27" y="14" fill="#ffffff">o</text><text x="36" y="14" fill="#ffffff">n</text><text x="45" y="14" fill="#ffffff">t</text><text x="54" y="14" fill="#ffffff">a</text><text x="63" y="14" fill="#ffffff">i</text><text x="72" y="14" fill="#ffffff">n</text><text x="81" y="14" fill="#ffffff">e</text><text x="90" y="14" fill="#ffffff">r</text><text x="108" y="14" fill="#ffffff">i</text><text x="117" y="14" fill="#ffffff">n</text><text x="126" y="14" fill="#ffffff">f</text><text x="135" y="14" fill="#ffffff">o</text><text x="153" y="14" fill="#00ff41">─</text><text x="162" y="14" fill="#00ff41">─</text><text x="171" y="14" fill="#00ff41">─</text><text x="180" y="14" fill="#00ff41">─</text><text x="189" y="14" fill="#00ff41">─</text><text x="198" y="14" fill="#00ff41">─</text><text x="207" y="14" fill="#00ff41">─</text><text x="216" y="14" fill="#00ff41">─</text><text x="225" y="14" fill="#00ff41">─</text><text x="234" y="14" fill="#00ff41">─</text><text x="243" y="14" fill="#00ff41">─</text><text x="252" y="14" fill="#00ff41">─</text><text x="261" y="14" fill="#00ff41">─</text><text x="270" y="14" fill="#00ff41">─</text><text x="279" y="14" fill="#00ff41">─</text><text x="288" y="14" fill="#00ff41">─</text><text x="297" y="14" fill="#00ff41">─</text><text x="306" y="14" fill="#00ff41">─</text><text x="315" y="14" fill="#00ff41">─</text><text x="324" y="14" fill="#00ff41">─</text><text x="333" y="14" fill="#00ff41">─</text><text x="342" y="14" fill="#00ff41">─</text><text x="351" y="14" fill="#00ff41">─</text><text x="360" y="14" fill="#00ff41">─</text><text x="369" y="14" fill="#00ff41">─</text><text x="378" y="14" fill="#00ff41">─</text><text x="387" y="14" fill="#00ff41">─</text><text x="396" y="14" fill="#00ff41">─</text><text x="405" y="14" fill="#00ff41">─</text><text x="414" y="14" fill="#00ff41">─</text><text x="423" y="14" fill="#00ff41">─</text><text x="432" y="14" fill="#00ff41">─</text><text x="441" y="14" fill="#00ff41">─</text><text x="450" y="14" fill="#00ff41">─</text><text x="459" y="14" fill="#00ff41">─</text><text x="468" y="14" fill="#00ff41">─</text><text x="477" y="14" fill="#00ff41">─</text><text x="486" y="14" fill="#00ff41">─</text><text x="495" y="14" fill="#00ff41">─</text><text x="504" y="14" fill="#00ff41">─</text><text x="513" y="14" fill="#00ff41">─</text><text x="522" y="14" fill="#00ff41">─</text><text x="531" y="14" fill="#00ff41">─</text><text x="540" y="14" fill="#00ff41">─</text><text x="549" y="14" fill="#00ff41">─</text><text x="558" y="14" fill="#00ff41">─</text><text x="567" y="14" fill="#00ff41">─</text><text x="576" y="14" fill="#00ff41">─</text><text x="585" y="14" fill="#00ff41">─</text><text x="594" y="14" fill="#00ff41">─</text><text x="603" y="14" fill="#00ff41">─</text><text x="612" y="14" fill="#00ff41">─</text><text x="621" y="14" fill="#00ff41">─</text><text x="630" y="14" fill="#00ff41">─</text><text x="639" y="14" fill="#00ff41">┐</text><text x="0" y="32" fill="#00ff41">│</text><text x="639" y="32" fill="#00ff41">│</text><text x="0" y="50" fill="#00ff41">│</text><text x="27" y="50" fill="#008c1e">C</text><text x="36" y="50" fill="#008c1e">o</text><text x="45" y="50" fill="#008c1e">n</text><text x="54" y="50" fill="#008c1e">t</text><text x="63" y="50" fill="#008c1e">a</text><text x="72" y="50" fill="#008c1e">i</text><text x="81" y="50" fill="#008c1e">n</text><text x="90" y="50" fill="#008c1e">e</text><text x="99" y="50" fill="#008c1e">r</text><text x="117" y="50" fill="#008c1e">I</text><text x="126" y="50" fill="#008c1e">D</text><text x="162" y="50" fill="#005012">:</text><text x="180" y="50" fill="#ffffff">j</text><text x="189" y="50" fill="#ffffff">k</text><text x="198" y="50" fill="#ffffff">-</text><text x="207" y="50" fill="#ffffff">s</text><text x="216" y="50" fill="#ffffff">k</text><text x="225" y="50" fill="#ffffff">7</text><text x="234" y="50" fill="#ffffff">6</text><text x="243" y="50" fill="#ffffff">z</text><text x="252" y="50" fill="#ffffff">d</text><text x="261" y="50" fill="#ffffff">a</text><text x="270" y="50" fill="#ffffff">t</text><text x="279" y="50" fill="#ffffff">-</text><text x="288" y="50" fill="#ffffff">t</text><text x="297" y="50" fill="#ffffff">h</text><text x="306" y="50" fill="#ffffff">e</text><text x="315" y="50" fill="#ffffff">a</text><text x="324" y="50" fill="#ffffff">r</text><text x="333" y="50" fill="#ffffff">c</text><text x="342" y="50" fill="#ffffff">h</text><text x="351" y="50" fill="#ffffff">i</text><text x="360" y="50" fill="#ffffff">t</text><text x="369" y="50" fill="#ffffff">e</text><text x="378" y="50" fill="#ffffff">c</text><text x="387" y="50" fill="#ffffff">t</text><text x="639" y="50" fill="#00ff41">│</text><text x="0" y="68" fill="#00ff41">│</text><text x="27" y="68" fill="#008c1e">R</text><text x="36" y="68" fill="#008c1e">o</text><text x="45" y="68" fill="#008c1e">l</text><text x="54" y="68" fill="#008c1e">e</text><text x="162" y="68" fill="#005012">:</text><text x="180" y="68" fill="#ffffff">t</text><text x="189" y="68" fill="#ffffff">h</text><text x="198" y="68" fill="#ffffff">e</text><text x="207" y="68" fill="#ffffff">-</text><text x="216" y="68" fill="#ffffff">a</text><text x="225" y="68" fill="#ffffff">r</text><text x="234" y="68" fill="#ffffff">c</text><text x="243" y="68" fill="#ffffff">h</text><text x="252" y="68" fill="#ffffff">i</text><text x="261" y="68" fill="#ffffff">t</text><text x="270" y="68" fill="#ffffff">e</text><text x="279" y="68" fill="#ffffff">c</text><text x="288" y="68" fill="#ffffff">t</text><text x="639" y="68" fill="#00ff41">│</text><text x="0" y="86" fill="#00ff41">│</text><text x="27" y="86" fill="#008c1e">A</text><text x="36" y="86" fill="#008c1e">g</text><text x="45" y="86" fill="#008c1e">e</text><text x="54" y="86" fill="#008c1e">n</text><text x="63" y="86" fill="#008c1e">t</text><text x="162" y="86" fill="#005012">:</text><text x="180" y="86" fill="#ffffff">c</text><text x="189" y="86" fill="#ffffff">l</text><text x="198" y="86" fill="#ffffff">a</text><text x="207" y="86" fill="#ffffff">u</text><text x="216" y="86" fill="#ffffff">d</text><text x="225" y="86" fill="#ffffff">e</text><text x="639" y="86" fill="#00ff41">│</text><text x="0" y="104" fill="#00ff41">│</text><text x="27" y="104" fill="#008c1e">W</text><text x="36" y="104" fill="#008c1e">o</text><text x="45" y="104" fill="#008c1e">r</text><text x="54" y="104" fill="#008c1e">k</text><text x="63" y="104" fill="#008c1e">d</text><text x="72" y="104" fill="#008c1e">i</text><text x="81" y="104" fill="#008c1e">r</text><text x="162" y="104" fill="#005012">:</text><text x="180" y="104" fill="#ffffff">/</text><text x="189" y="104" fill="#ffffff">U</text><text x="198" y="104" fill="#ffffff">s</text><text x="207" y="104" fill="#ffffff">e</text><text x="216" y="104" fill="#ffffff">r</text><text x="225" y="104" fill="#ffffff">s</text><text x="234" y="104" fill="#ffffff">/</text><text x="243" y="104" fill="#ffffff">j</text><text x="252" y="104" fill="#ffffff">a</text><text x="261" y="104" fill="#ffffff">c</text><text x="270" y="104" fill="#ffffff">k</text><text x="279" y="104" fill="#ffffff">i</text><text x="288" y="104" fill="#ffffff">n</text><text x="297" y="104" fill="#ffffff">/</text><text x="306" y="104" fill="#ffffff">P</text><text x="315" y="104" fill="#ffffff">r</text><text x="324" y="104" fill="#ffffff">o</text><text x="333" y="104" fill="#ffffff">j</text><text x="342" y="104" fill="#ffffff">e</text><text x="351" y="104" fill="#ffffff">c</text><text x="360" y="104" fill="#ffffff">t</text><text x="369" y="104" fill="#ffffff">s</text><text x="378" y="104" fill="#ffffff">/</text><text x="387" y="104" fill="#ffffff">j</text><text x="396" y="104" fill="#ffffff">a</text><text x="405" y="104" fill="#ffffff">c</text><text x="414" y="104" fill="#ffffff">k</text><text x="423" y="104" fill="#ffffff">i</text><text x="432" y="104" fill="#ffffff">n</text><text x="639" y="104" fill="#00ff41">│</text><text x="0" y="122" fill="#00ff41">│</text><text x="27" y="122" fill="#008c1e">j</text><text x="36" y="122" fill="#008c1e">a</text><text x="45" y="122" fill="#008c1e">c</text><text x="54" y="122" fill="#008c1e">k</text><text x="63" y="122" fill="#008c1e">i</text><text x="72" y="122" fill="#008c1e">n</text><text x="162" y="122" fill="#005012">:</text><text x="180" y="122" fill="#ffffff">0</text><text x="189" y="122" fill="#ffffff">.</text><text x="198" y="122" fill="#ffffff">6</text><text x="207" y="122" fill="#ffffff">.</text><text x="216" y="122" fill="#ffffff">0</text><text x="225" y="122" fill="#ffffff">-</text><text x="234" y="122" fill="#ffffff">d</text><text x="243" y="122" fill="#ffffff">e</text><text x="252" y="122" fill="#ffffff">v</text><text x="639" y="122" fill="#00ff41">│</text><text x="0" y="140" fill="#00ff41">│</text><text x="27" y="140" fill="#008c1e">j</text><text x="36" y="140" fill="#008c1e">a</text><text x="45" y="140" fill="#008c1e">c</text><text x="54" y="140" fill="#008c1e">k</text><text x="63" y="140" fill="#008c1e">i</text><text x="72" y="140" fill="#008c1e">n</text><text x="81" y="140" fill="#008c1e">-</text><text x="90" y="140" fill="#008c1e">c</text><text x="99" y="140" fill="#008c1e">a</text><text x="108" y="140" fill="#008c1e">p</text><text x="117" y="140" fill="#008c1e">s</text><text x="126" y="140" fill="#008c1e">u</text><text x="135" y="140" fill="#008c1e">l</text><text x="144" y="140" fill="#008c1e">e</text><text x="162" y="140" fill="#005012">:</text><text x="180" y="140" fill="#ffffff">0</text><text x="189" y="140" fill="#ffffff">.</text><text x="198" y="140" fill="#ffffff">6</text><text x="207" y="140" fill="#ffffff">.</text><text x="216" y="140" fill="#ffffff">0</text><text x="225" y="140" fill="#ffffff">-</text><text x="234" y="140" fill="#ffffff">d</text><text x="243" y="140" fill="#ffffff">e</text><text x="252" y="140" fill="#ffffff">v</text><text x="261" y="140" fill="#ffffff">+</text><text x="270" y="140" fill="#ffffff">4</text><text x="279" y="140" fill="#ffffff">4</text><text x="288" y="140" fill="#ffffff">4</text><text x="297" y="140" fill="#ffffff">0</text><text x="306" y="140" fill="#ffffff">0</text><text x="315" y="140" fill="#ffffff">4</text><text x="324" y="140" fill="#ffffff">b</text><text x="639" y="140" fill="#00ff41">│</text><text x="0" y="158" fill="#00ff41">│</text><text x="27" y="158" fill="#008c1e">R</text><text x="36" y="158" fill="#008c1e">u</text><text x="45" y="158" fill="#008c1e">n</text><text x="63" y="158" fill="#008c1e">I</text><text x="72" y="158" fill="#008c1e">D</text><text x="162" y="158" fill="#005012">:</text><text x="180" y="158" fill="#00ff41">j</text><text x="189" y="158" fill="#00ff41">k</text><text x="198" y="158" fill="#00ff41">-</text><text x="207" y="158" fill="#00ff41">r</text><text x="216" y="158" fill="#00ff41">u</text><text x="225" y="158" fill="#00ff41">n</text><text x="234" y="158" fill="#00ff41">-</text><text x="243" y="158" fill="#00ff41">c</text><text x="252" y="158" fill="#00ff41">c</text><text x="261" y="158" fill="#00ff41">5</text><text x="270" y="158" fill="#00ff41">f</text><text x="279" y="158" fill="#00ff41">f</text><text x="288" y="158" fill="#00ff41">2</text><text x="639" y="158" fill="#00ff41">│</text><text x="0" y="176" fill="#00ff41">│</text><text x="27" y="176" fill="#008c1e">R</text><text x="36" y="176" fill="#008c1e">u</text><text x="45" y="176" fill="#008c1e">n</text><text x="63" y="176" fill="#008c1e">l</text><text x="72" y="176" fill="#008c1e">o</text><text x="81" y="176" fill="#008c1e">g</text><text x="162" y="176" fill="#005012">:</text><text x="180" y="176" fill="#ffffff">~</text><text x="189" y="176" fill="#ffffff">/</text><text x="198" y="176" fill="#ffffff">.</text><text x="207" y="176" fill="#ffffff">j</text><text x="216" y="176" fill="#ffffff">a</text><text x="225" y="176" fill="#ffffff">c</text><text x="234" y="176" fill="#ffffff">k</text><text x="243" y="176" fill="#ffffff">i</text><text x="252" y="176" fill="#ffffff">n</text><text x="261" y="176" fill="#ffffff">/</text><text x="270" y="176" fill="#ffffff">d</text><text x="279" y="176" fill="#ffffff">a</text><text x="288" y="176" fill="#ffffff">t</text><text x="297" y="176" fill="#ffffff">a</text><text x="306" y="176" fill="#ffffff">/</text><text x="315" y="176" fill="#ffffff">d</text><text x="324" y="176" fill="#ffffff">i</text><text x="333" y="176" fill="#ffffff">a</text><text x="342" y="176" fill="#ffffff">g</text><text x="351" y="176" fill="#ffffff">n</text><text x="360" y="176" fill="#ffffff">o</text><text x="369" y="176" fill="#ffffff">s</text><text x="378" y="176" fill="#ffffff">t</text><text x="387" y="176" fill="#ffffff">i</text><text x="396" y="176" fill="#ffffff">c</text><text x="405" y="176" fill="#ffffff">s</text><text x="414" y="176" fill="#ffffff">/</text><text x="423" y="176" fill="#ffffff">j</text><text x="432" y="176" fill="#ffffff">k</text><text x="441" y="176" fill="#ffffff">-</text><text x="450" y="176" fill="#ffffff">r</text><text x="459" y="176" fill="#ffffff">u</text><text x="468" y="176" fill="#ffffff">n</text><text x="477" y="176" fill="#ffffff">-</text><text x="486" y="176" fill="#ffffff">c</text><text x="495" y="176" fill="#ffffff">c</text><text x="504" y="176" fill="#ffffff">5</text><text x="513" y="176" fill="#ffffff">f</text><text x="522" y="176" fill="#ffffff">f</text><text x="531" y="176" fill="#ffffff">2</text><text x="540" y="176" fill="#ffffff">.</text><text x="549" y="176" fill="#ffffff">j</text><text x="558" y="176" fill="#ffffff">s</text><text x="567" y="176" fill="#ffffff">o</text><text x="576" y="176" fill="#ffffff">n</text><text x="585" y="176" fill="#ffffff">l</text><text x="639" y="176" fill="#00ff41">│</text><text x="0" y="194" fill="#00ff41">│</text><text x="639" y="194" fill="#00ff41">│</text><text x="0" y="212" fill="#00ff41">└</text><text x="9" y="212" fill="#00ff41">─</text><text x="18" y="212" fill="#00ff41">─</text><text x="27" y="212" fill="#00ff41">─</text><text x="36" y="212" fill="#00ff41">─</text><text x="45" y="212" fill="#00ff41">─</text><text x="54" y="212" fill="#00ff41">─</text><text x="63" y="212" fill="#00ff41">─</text><text x="72" y="212" fill="#00ff41">─</text><text x="81" y="212" fill="#00ff41">─</text><text x="90" y="212" fill="#00ff41">─</text><text x="99" y="212" fill="#00ff41">─</text><text x="108" y="212" fill="#00ff41">─</text><text x="117" y="212" fill="#00ff41">─</text><text x="126" y="212" fill="#00ff41">─</text><text x="135" y="212" fill="#00ff41">─</text><text x="144" y="212" fill="#00ff41">─</text><text x="153" y="212" fill="#00ff41">─</text><text x="162" y="212" fill="#00ff41">─</text><text x="171" y="212" fill="#00ff41">─</text><text x="180" y="212" fill="#00ff41">─</text><text x="189" y="212" fill="#00ff41">─</text><text x="198" y="212" fill="#00ff41">─</text><text x="207" y="212" fill="#00ff41">─</text><text x="216" y="212" fill="#00ff41">─</text><text x="225" y="212" fill="#00ff41">─</text><text x="234" y="212" fill="#00ff41">─</text><text x="243" y="212" fill="#00ff41">─</text><text x="252" y="212" fill="#00ff41">─</text><text x="261" y="212" fill="#00ff41">─</text><text x="270" y="212" fill="#00ff41">─</text><text x="279" y="212" fill="#00ff41">─</text><text x="288" y="212" fill="#00ff41">─</text><text x="297" y="212" fill="#00ff41">─</text><text x="306" y="212" fill="#00ff41">─</text><text x="315" y="212" fill="#00ff41">─</text><text x="324" y="212" fill="#00ff41">─</text><text x="333" y="212" fill="#00ff41">─</text><text x="342" y="212" fill="#00ff41">─</text><text x="351" y="212" fill="#00ff41">─</text><text x="360" y="212" fill="#00ff41">─</text><text x="369" y="212" fill="#00ff41">─</text><text x="378" y="212" fill="#00ff41">─</text><text x="387" y="212" fill="#00ff41">─</text><text x="396" y="212" fill="#00ff41">─</text><text x="405" y="212" fill="#00ff41">─</text><text x="414" y="212" fill="#00ff41">─</text><text x="423" y="212" fill="#00ff41">─</text><text x="432" y="212" fill="#00ff41">─</text><text x="441" y="212" fill="#00ff41">─</text><text x="450" y="212" fill="#00ff41">─</text><text x="459" y="212" fill="#00ff41">─</text><text x="468" y="212" fill="#00ff41">─</text><text x="477" y="212" fill="#00ff41">─</text><text x="486" y="212" fill="#00ff41">─</text><text x="495" y="212" fill="#00ff41">─</text><text x="504" y="212" fill="#00ff41">─</text><text x="513" y="212" fill="#00ff41">─</text><text x="522" y="212" fill="#00ff41">─</text><text x="531" y="212" fill="#00ff41">─</text><text x="540" y="212" fill="#00ff41">─</text><text x="549" y="212" fill="#00ff41">─</text><text x="558" y="212" fill="#00ff41">─</text><text x="567" y="212" fill="#00ff41">─</text><text x="576" y="212" fill="#00ff41">─</text><text x="585" y="212" fill="#00ff41">─</text><text x="594" y="212" fill="#00ff41">─</text><text x="603" y="212" fill="#00ff41">─</text><text x="612" y="212" fill="#00ff41">─</text><text x="621" y="212" fill="#00ff41">─</text><text x="630" y="212" fill="#00ff41">─</text><text x="639" y="212" fill="#00ff41">┘</text></g></svg>
