<svg xmlns="http://www.w3.org/2000/svg" width="558" height="180" viewBox="0 0 558 180" role="img" aria-label="Error dialog" style="background:#000000"><rect width="100%" height="100%" fill="#000000"/><g font-family="ui-monospace, SFMono-Regular, Menlo, Consolas, monospace" font-size="14"><text x="0" y="14" fill="#ff5e7a">┌</text><text x="18" y="14" fill="#ff5e7a">L</text><text x="27" y="14" fill="#ff5e7a">a</text><text x="36" y="14" fill="#ff5e7a">u</text><text x="45" y="14" fill="#ff5e7a">n</text><text x="54" y="14" fill="#ff5e7a">c</text><text x="63" y="14" fill="#ff5e7a">h</text><text x="81" y="14" fill="#ff5e7a">f</text><text x="90" y="14" fill="#ff5e7a">a</text><text x="99" y="14" fill="#ff5e7a">i</text><text x="108" y="14" fill="#ff5e7a">l</text><text x="117" y="14" fill="#ff5e7a">e</text><text x="126" y="14" fill="#ff5e7a">d</text><text x="144" y="14" fill="#ff5e7a">─</text><text x="153" y="14" fill="#ff5e7a">─</text><text x="162" y="14" fill="#ff5e7a">─</text><text x="171" y="14" fill="#ff5e7a">─</text><text x="180" y="14" fill="#ff5e7a">─</text><text x="189" y="14" fill="#ff5e7a">─</text><text x="198" y="14" fill="#ff5e7a">─</text><text x="207" y="14" fill="#ff5e7a">─</text><text x="216" y="14" fill="#ff5e7a">─</text><text x="225" y="14" fill="#ff5e7a">─</text><text x="234" y="14" fill="#ff5e7a">─</text><text x="243" y="14" fill="#ff5e7a">─</text><text x="252" y="14" fill="#ff5e7a">─</text><text x="261" y="14" fill="#ff5e7a">─</text><text x="270" y="14" fill="#ff5e7a">─</text><text x="279" y="14" fill="#ff5e7a">─</text><text x="288" y="14" fill="#ff5e7a">─</text><text x="297" y="14" fill="#ff5e7a">─</text><text x="306" y="14" fill="#ff5e7a">─</text><text x="315" y="14" fill="#ff5e7a">─</text><text x="324" y="14" fill="#ff5e7a">─</text><text x="333" y="14" fill="#ff5e7a">─</text><text x="342" y="14" fill="#ff5e7a">─</text><text x="351" y="14" fill="#ff5e7a">─</text><text x="360" y="14" fill="#ff5e7a">─</text><text x="369" y="14" fill="#ff5e7a">─</text><text x="378" y="14" fill="#ff5e7a">─</text><text x="387" y="14" fill="#ff5e7a">─</text><text x="396" y="14" fill="#ff5e7a">─</text><text x="405" y="14" fill="#ff5e7a">─</text><text x="414" y="14" fill="#ff5e7a">─</text><text x="423" y="14" fill="#ff5e7a">─</text><text x="432" y="14" fill="#ff5e7a">─</text><text x="441" y="14" fill="#ff5e7a">─</text><text x="450" y="14" fill="#ff5e7a">─</text><text x="459" y="14" fill="#ff5e7a">─</text><text x="468" y="14" fill="#ff5e7a">─</text><text x="477" y="14" fill="#ff5e7a">─</text><text x="486" y="14" fill="#ff5e7a">─</text><text x="495" y="14" fill="#ff5e7a">─</text><text x="504" y="14" fill="#ff5e7a">─</text><text x="513" y="14" fill="#ff5e7a">─</text><text x="522" y="14" fill="#ff5e7a">─</text><text x="531" y="14" fill="#ff5e7a">─</text><text x="540" y="14" fill="#ff5e7a">─</text><text x="549" y="14" fill="#ff5e7a">┐</text><text x="0" y="32" fill="#ff5e7a">│</text><text x="549" y="32" fill="#ff5e7a">│</text><text x="0" y="50" fill="#ff5e7a">│</text><text x="63" y="50" fill="#ffffff">D</text><text x="72" y="50" fill="#ffffff">e</text><text x="81" y="50" fill="#ffffff">r</text><text x="90" y="50" fill="#ffffff">i</text><text x="99" y="50" fill="#ffffff">v</text><text x="108" y="50" fill="#ffffff">e</text><text x="117" y="50" fill="#ffffff">d</text><text x="135" y="50" fill="#ffffff">i</text><text x="144" y="50" fill="#ffffff">m</text><text x="153" y="50" fill="#ffffff">a</text><text x="162" y="50" fill="#ffffff">g</text><text x="171" y="50" fill="#ffffff">e</text><text x="189" y="50" fill="#ffffff">b</text><text x="198" y="50" fill="#ffffff">u</text><text x="207" y="50" fill="#ffffff">i</text><text x="216" y="50" fill="#ffffff">l</text><text x="225" y="50" fill="#ffffff">d</text><text x="243" y="50" fill="#ffffff">f</text><text x="252" y="50" fill="#ffffff">a</text><text x="261" y="50" fill="#ffffff">i</text><text x="270" y="50" fill="#ffffff">l</text><text x="279" y="50" fill="#ffffff">e</text><text x="288" y="50" fill="#ffffff">d</text><text x="306" y="50" fill="#ffffff">w</text><text x="315" y="50" fill="#ffffff">h</text><text x="324" y="50" fill="#ffffff">i</text><text x="333" y="50" fill="#ffffff">l</text><text x="342" y="50" fill="#ffffff">e</text><text x="360" y="50" fill="#ffffff">i</text><text x="369" y="50" fill="#ffffff">n</text><text x="378" y="50" fill="#ffffff">s</text><text x="387" y="50" fill="#ffffff">t</text><text x="396" y="50" fill="#ffffff">a</text><text x="405" y="50" fill="#ffffff">l</text><text x="414" y="50" fill="#ffffff">l</text><text x="423" y="50" fill="#ffffff">i</text><text x="432" y="50" fill="#ffffff">n</text><text x="441" y="50" fill="#ffffff">g</text><text x="459" y="50" fill="#ffffff">r</text><text x="468" y="50" fill="#ffffff">o</text><text x="477" y="50" fill="#ffffff">l</text><text x="486" y="50" fill="#ffffff">e</text><text x="549" y="50" fill="#ff5e7a">│</text><text x="0" y="68" fill="#ff5e7a">│</text><text x="225" y="68" fill="#ffffff">d</text><text x="234" y="68" fill="#ffffff">e</text><text x="243" y="68" fill="#ffffff">p</text><text x="252" y="68" fill="#ffffff">e</text><text x="261" y="68" fill="#ffffff">n</text><text x="270" y="68" fill="#ffffff">d</text><text x="279" y="68" fill="#ffffff">e</text><text x="288" y="68" fill="#ffffff">n</text><text x="297" y="68" fill="#ffffff">c</text><text x="306" y="68" fill="#ffffff">i</text><text x="315" y="68" fill="#ffffff">e</text><text x="324" y="68" fill="#ffffff">s</text><text x="333" y="68" fill="#ffffff">.</text><text x="549" y="68" fill="#ff5e7a">│</text><text x="0" y="86" fill="#ff5e7a">│</text><text x="45" y="86" fill="#ffffff">O</text><text x="54" y="86" fill="#ffffff">p</text><text x="63" y="86" fill="#ffffff">e</text><text x="72" y="86" fill="#ffffff">n</text><text x="90" y="86" fill="#ffffff">d</text><text x="99" y="86" fill="#ffffff">i</text><text x="108" y="86" fill="#ffffff">a</text><text x="117" y="86" fill="#ffffff">g</text><text x="126" y="86" fill="#ffffff">n</text><text x="135" y="86" fill="#ffffff">o</text><text x="144" y="86" fill="#ffffff">s</text><text x="153" y="86" fill="#ffffff">t</text><text x="162" y="86" fill="#ffffff">i</text><text x="171" y="86" fill="#ffffff">c</text><text x="180" y="86" fill="#ffffff">s</text><text x="198" y="86" fill="#ffffff">r</text><text x="207" y="86" fill="#ffffff">u</text><text x="216" y="86" fill="#ffffff">n</text><text x="234" y="86" fill="#ffffff">j</text><text x="243" y="86" fill="#ffffff">k</text><text x="252" y="86" fill="#ffffff">-</text><text x="261" y="86" fill="#ffffff">r</text><text x="270" y="86" fill="#ffffff">u</text><text x="279" y="86" fill="#ffffff">n</text><text x="288" y="86" fill="#ffffff">-</text><text x="297" y="86" fill="#ffffff">3</text><text x="306" y="86" fill="#ffffff">d</text><text x="315" y="86" fill="#ffffff">7</text><text x="324" y="86" fill="#ffffff">e</text><text x="333" y="86" fill="#ffffff">2</text><text x="342" y="86" fill="#ffffff">3</text><text x="360" y="86" fill="#ffffff">f</text><text x="369" y="86" fill="#ffffff">o</text><text x="378" y="86" fill="#ffffff">r</text><text x="396" y="86" fill="#ffffff">t</text><text x="405" y="86" fill="#ffffff">h</text><text x="414" y="86" fill="#ffffff">e</text><text x="432" y="86" fill="#ffffff">f</text><text x="441" y="86" fill="#ffffff">u</text><text x="450" y="86" fill="#ffffff">l</text><text x="459" y="86" fill="#ffffff">l</text><text x="477" y="86" fill="#ffffff">l</text><text x="486" y="86" fill="#ffffff">o</text><text x="495" y="86" fill="#ffffff">g</text><text x="504" y="86" fill="#ffffff">.</text><text x="549" y="86" fill="#ff5e7a">│</text><text x="0" y="104" fill="#ff5e7a">│</text><text x="549" y="104" fill="#ff5e7a">│</text><text x="0" y="122" fill="#ff5e7a">│</text><text x="549" y="122" fill="#ff5e7a">│</text><text x="0" y="140" fill="#ff5e7a">│</text><rect x="252" y="126" width="9" height="18" fill="#ffffff"/><rect x="261" y="126" width="9" height="18" fill="#ffffff"/><rect x="270" y="126" width="9" height="18" fill="#ffffff"/><text x="270" y="140" fill="#000000">O</text><rect x="279" y="126" width="9" height="18" fill="#ffffff"/><text x="279" y="140" fill="#000000">K</text><rect x="288" y="126" width="9" height="18" fill="#ffffff"/><rect x="297" y="126" width="9" height="18" fill="#ffffff"/><text x="549" y="140" fill="#ff5e7a">│</text><text x="0" y="158" fill="#ff5e7a">│</text><text x="549" y="158" fill="#ff5e7a">│</text><text x="0" y="176" fill="#ff5e7a">└</text><text x="9" y="176" fill="#ff5e7a">─</text><text x="18" y="176" fill="#ff5e7a">─</text><text x="27" y="176" fill="#ff5e7a">─</text><text x="36" y="176" fill="#ff5e7a">─</text><text x="45" y="176" fill="#ff5e7a">─</text><text x="54" y="176" fill="#ff5e7a">─</text><text x="63" y="176" fill="#ff5e7a">─</text><text x="72" y="176" fill="#ff5e7a">─</text><text x="81" y="176" fill="#ff5e7a">─</text><text x="90" y="176" fill="#ff5e7a">─</text><text x="99" y="176" fill="#ff5e7a">─</text><text x="108" y="176" fill="#ff5e7a">─</text><text x="117" y="176" fill="#ff5e7a">─</text><text x="126" y="176" fill="#ff5e7a">─</text><text x="135" y="176" fill="#ff5e7a">─</text><text x="144" y="176" fill="#ff5e7a">─</text><text x="153" y="176" fill="#ff5e7a">─</text><text x="162" y="176" fill="#ff5e7a">─</text><text x="171" y="176" fill="#ff5e7a">─</text><text x="180" y="176" fill="#ff5e7a">─</text><text x="189" y="176" fill="#ff5e7a">─</text><text x="198" y="176" fill="#ff5e7a">─</text><text x="207" y="176" fill="#ff5e7a">─</text><text x="216" y="176" fill="#ff5e7a">─</text><text x="225" y="176" fill="#ff5e7a">─</text><text x="234" y="176" fill="#ff5e7a">─</text><text x="243" y="176" fill="#ff5e7a">─</text><text x="252" y="176" fill="#ff5e7a">─</text><text x="261" y="176" fill="#ff5e7a">─</text><text x="270" y="176" fill="#ff5e7a">─</text><text x="279" y="176" fill="#ff5e7a">─</text><text x="288" y="176" fill="#ff5e7a">─</text><text x="297" y="176" fill="#ff5e7a">─</text><text x="306" y="176" fill="#ff5e7a">─</text><text x="315" y="176" fill="#ff5e7a">─</text><text x="324" y="176" fill="#ff5e7a">─</text><text x="333" y="176" fill="#ff5e7a">─</text><text x="342" y="176" fill="#ff5e7a">─</text><text x="351" y="176" fill="#ff5e7a">─</text><text x="360" y="176" fill="#ff5e7a">─</text><text x="369" y="176" fill="#ff5e7a">─</text><text x="378" y="176" fill="#ff5e7a">─</text><text x="387" y="176" fill="#ff5e7a">─</text><text x="396" y="176" fill="#ff5e7a">─</text><text x="405" y="176" fill="#ff5e7a">─</text><text x="414" y="176" fill="#ff5e7a">─</text><text x="423" y="176" fill="#ff5e7a">─</text><text x="432" y="176" fill="#ff5e7a">─</text><text x="441" y="176" fill="#ff5e7a">─</text><text x="450" y="176" fill="#ff5e7a">─</text><text x="459" y="176" fill="#ff5e7a">─</text><text x="468" y="176" fill="#ff5e7a">─</text><text x="477" y="176" fill="#ff5e7a">─</text><text x="486" y="176" fill="#ff5e7a">─</text><text x="495" y="176" fill="#ff5e7a">─</text><text x="504" y="176" fill="#ff5e7a">─</text><text x="513" y="176" fill="#ff5e7a">─</text><text x="522" y="176" fill="#ff5e7a">─</text><text x="531" y="176" fill="#ff5e7a">─</text><text x="540" y="176" fill="#ff5e7a">─</text><text x="549" y="176" fill="#ff5e7a">┘</text></g></svg>
