<svg xmlns="http://www.w3.org/2000/svg" width="486" height="108" viewBox="0 0 486 108" role="img" aria-label="Panel unfocused" style="background:#000000"><rect width="100%" height="100%" fill="#000000"/><g font-family="ui-monospace, SFMono-Regular, Menlo, Consolas, monospace" font-size="14"><text x="0" y="14" fill="#005012">┌</text><text x="18" y="14" fill="#ffffff">S</text><text x="27" y="14" fill="#ffffff">e</text><text x="36" y="14" fill="#ffffff">t</text><text x="45" y="14" fill="#ffffff">t</text><text x="54" y="14" fill="#ffffff">i</text><text x="63" y="14" fill="#ffffff">n</text><text x="72" y="14" fill="#ffffff">g</text><text x="81" y="14" fill="#ffffff">s</text><text x="99" y="14" fill="#005012">─</text><text x="108" y="14" fill="#005012">─</text><text x="117" y="14" fill="#005012">─</text><text x="126" y="14" fill="#005012">─</text><text x="135" y="14" fill="#005012">─</text><text x="144" y="14" fill="#005012">─</text><text x="153" y="14" fill="#005012">─</text><text x="162" y="14" fill="#005012">─</text><text x="171" y="14" fill="#005012">─</text><text x="180" y="14" fill="#005012">─</text><text x="189" y="14" fill="#005012">─</text><text x="198" y="14" fill="#005012">─</text><text x="207" y="14" fill="#005012">─</text><text x="216" y="14" fill="#005012">─</text><text x="225" y="14" fill="#005012">─</text><text x="234" y="14" fill="#005012">─</text><text x="243" y="14" fill="#005012">─</text><text x="252" y="14" fill="#005012">─</text><text x="261" y="14" fill="#005012">─</text><text x="270" y="14" fill="#005012">─</text><text x="279" y="14" fill="#005012">─</text><text x="288" y="14" fill="#005012">─</text><text x="297" y="14" fill="#005012">─</text><text x="306" y="14" fill="#005012">─</text><text x="315" y="14" fill="#005012">─</text><text x="324" y="14" fill="#005012">─</text><text x="333" y="14" fill="#005012">─</text><text x="342" y="14" fill="#005012">─</text><text x="351" y="14" fill="#005012">─</text><text x="360" y="14" fill="#005012">─</text><text x="369" y="14" fill="#005012">─</text><text x="378" y="14" fill="#005012">─</text><text x="387" y="14" fill="#005012">─</text><text x="396" y="14" fill="#005012">─</text><text x="405" y="14" fill="#005012">─</text><text x="414" y="14" fill="#005012">─</text><text x="423" y="14" fill="#005012">─</text><text x="432" y="14" fill="#005012">─</text><text x="441" y="14" fill="#005012">─</text><text x="450" y="14" fill="#005012">─</text><text x="459" y="14" fill="#005012">─</text><text x="468" y="14" fill="#005012">─</text><text x="477" y="14" fill="#005012">┐</text><text x="0" y="32" fill="#005012">│</text><text x="18" y="32" fill="#008c1e">C</text><text x="27" y="32" fill="#008c1e">o</text><text x="36" y="32" fill="#008c1e">-</text><text x="45" y="32" fill="#008c1e">a</text><text x="54" y="32" fill="#008c1e">u</text><text x="63" y="32" fill="#008c1e">t</text><text x="72" y="32" fill="#008c1e">h</text><text x="81" y="32" fill="#008c1e">o</text><text x="90" y="32" fill="#008c1e">r</text><text x="108" y="32" fill="#008c1e">t</text><text x="117" y="32" fill="#008c1e">r</text><text x="126" y="32" fill="#008c1e">a</text><text x="135" y="32" fill="#008c1e">i</text><text x="144" y="32" fill="#008c1e">l</text><text x="153" y="32" fill="#008c1e">e</text><text x="162" y="32" fill="#008c1e">r</text><text x="189" y="32" fill="#008c1e">e</text><text x="198" y="32" fill="#008c1e">n</text><text x="207" y="32" fill="#008c1e">a</text><text x="216" y="32" fill="#008c1e">b</text><text x="225" y="32" fill="#008c1e">l</text><text x="234" y="32" fill="#008c1e">e</text><text x="243" y="32" fill="#008c1e">d</text><text x="477" y="32" fill="#005012">│</text><text x="0" y="50" fill="#005012">│</text><text x="477" y="50" fill="#005012">│</text><text x="0" y="68" fill="#005012">│</text><text x="477" y="68" fill="#005012">│</text><text x="0" y="86" fill="#005012">│</text><text x="477" y="86" fill="#005012">│</text><text x="0" y="104" fill="#005012">└</text><text x="9" y="104" fill="#005012">─</text><text x="18" y="104" fill="#005012">─</text><text x="27" y="104" fill="#005012">─</text><text x="36" y="104" fill="#005012">─</text><text x="45" y="104" fill="#005012">─</text><text x="54" y="104" fill="#005012">─</text><text x="63" y="104" fill="#005012">─</text><text x="72" y="104" fill="#005012">─</text><text x="81" y="104" fill="#005012">─</text><text x="90" y="104" fill="#005012">─</text><text x="99" y="104" fill="#005012">─</text><text x="108" y="104" fill="#005012">─</text><text x="117" y="104" fill="#005012">─</text><text x="126" y="104" fill="#005012">─</text><text x="135" y="104" fill="#005012">─</text><text x="144" y="104" fill="#005012">─</text><text x="153" y="104" fill="#005012">─</text><text x="162" y="104" fill="#005012">─</text><text x="171" y="104" fill="#005012">─</text><text x="180" y="104" fill="#005012">─</text><text x="189" y="104" fill="#005012">─</text><text x="198" y="104" fill="#005012">─</text><text x="207" y="104" fill="#005012">─</text><text x="216" y="104" fill="#005012">─</text><text x="225" y="104" fill="#005012">─</text><text x="234" y="104" fill="#005012">─</text><text x="243" y="104" fill="#005012">─</text><text x="252" y="104" fill="#005012">─</text><text x="261" y="104" fill="#005012">─</text><text x="270" y="104" fill="#005012">─</text><text x="279" y="104" fill="#005012">─</text><text x="288" y="104" fill="#005012">─</text><text x="297" y="104" fill="#005012">─</text><text x="306" y="104" fill="#005012">─</text><text x="315" y="104" fill="#005012">─</text><text x="324" y="104" fill="#005012">─</text><text x="333" y="104" fill="#005012">─</text><text x="342" y="104" fill="#005012">─</text><text x="351" y="104" fill="#005012">─</text><text x="360" y="104" fill="#005012">─</text><text x="369" y="104" fill="#005012">─</text><text x="378" y="104" fill="#005012">─</text><text x="387" y="104" fill="#005012">─</text><text x="396" y="104" fill="#005012">─</text><text x="405" y="104" fill="#005012">─</text><text x="414" y="104" fill="#005012">─</text><text x="423" y="104" fill="#005012">─</text><text x="432" y="104" fill="#005012">─</text><text x="441" y="104" fill="#005012">─</text><text x="450" y="104" fill="#005012">─</text><text x="459" y="104" fill="#005012">─</text><text x="468" y="104" fill="#005012">─</text><text x="477" y="104" fill="#005012">┘</text></g></svg>
