<svg xmlns="http://www.w3.org/2000/svg" width="576" height="162" viewBox="0 0 576 162" role="img" aria-label="Scrollable panel" style="background:#000000"><rect width="100%" height="100%" fill="#000000"/><g font-family="ui-monospace, SFMono-Regular, Menlo, Consolas, monospace" font-size="14"><text x="0" y="14" fill="#00ff41">┌</text><text x="9" y="14" fill="#ffffff">G</text><text x="18" y="14" fill="#ffffff">l</text><text x="27" y="14" fill="#ffffff">o</text><text x="36" y="14" fill="#ffffff">b</text><text x="45" y="14" fill="#ffffff">a</text><text x="54" y="14" fill="#ffffff">l</text><text x="72" y="14" fill="#ffffff">m</text><text x="81" y="14" fill="#ffffff">o</text><text x="90" y="14" fill="#ffffff">u</text><text x="99" y="14" fill="#ffffff">n</text><text x="108" y="14" fill="#ffffff">t</text><text x="117" y="14" fill="#ffffff">s</text><text x="126" y="14" fill="#00ff41">─</text><text x="135" y="14" fill="#00ff41">─</text><text x="144" y="14" fill="#00ff41">─</text><text x="153" y="14" fill="#00ff41">─</text><text x="162" y="14" fill="#00ff41">─</text><text x="171" y="14" fill="#00ff41">─</text><text x="180" y="14" fill="#00ff41">─</text><text x="189" y="14" fill="#00ff41">─</text><text x="198" y="14" fill="#00ff41">─</text><text x="207" y="14" fill="#00ff41">─</text><text x="216" y="14" fill="#00ff41">─</text><text x="225" y="14" fill="#00ff41">─</text><text x="234" y="14" fill="#00ff41">─</text><text x="243" y="14" fill="#00ff41">─</text><text x="252" y="14" fill="#00ff41">─</text><text x="261" y="14" fill="#00ff41">─</text><text x="270" y="14" fill="#00ff41">─</text><text x="279" y="14" fill="#00ff41">─</text><text x="288" y="14" fill="#00ff41">─</text><text x="297" y="14" fill="#00ff41">─</text><text x="306" y="14" fill="#00ff41">─</text><text x="315" y="14" fill="#00ff41">─</text><text x="324" y="14" fill="#00ff41">─</text><text x="333" y="14" fill="#00ff41">─</text><text x="342" y="14" fill="#00ff41">─</text><text x="351" y="14" fill="#00ff41">─</text><text x="360" y="14" fill="#00ff41">─</text><text x="369" y="14" fill="#00ff41">─</text><text x="378" y="14" fill="#00ff41">─</text><text x="387" y="14" fill="#00ff41">─</text><text x="396" y="14" fill="#00ff41">─</text><text x="405" y="14" fill="#00ff41">─</text><text x="414" y="14" fill="#00ff41">─</text><text x="423" y="14" fill="#00ff41">─</text><text x="432" y="14" fill="#00ff41">─</text><text x="441" y="14" fill="#00ff41">─</text><text x="450" y="14" fill="#00ff41">─</text><text x="459" y="14" fill="#00ff41">─</text><text x="468" y="14" fill="#00ff41">─</text><text x="477" y="14" fill="#00ff41">─</text><text x="486" y="14" fill="#00ff41">─</text><text x="495" y="14" fill="#00ff41">─</text><text x="504" y="14" fill="#00ff41">─</text><text x="513" y="14" fill="#00ff41">─</text><text x="522" y="14" fill="#00ff41">─</text><text x="531" y="14" fill="#00ff41">─</text><text x="540" y="14" fill="#00ff41">─</text><text x="549" y="14" fill="#00ff41">─</text><text x="558" y="14" fill="#00ff41">─</text><text x="567" y="14" fill="#00ff41">┐</text><text x="0" y="32" fill="#00ff41">│</text><text x="72" y="32" fill="#00ff41">/</text><text x="81" y="32" fill="#00ff41">j</text><text x="90" y="32" fill="#00ff41">a</text><text x="99" y="32" fill="#00ff41">c</text><text x="108" y="32" fill="#00ff41">k</text><text x="117" y="32" fill="#00ff41">i</text><text x="126" y="32" fill="#00ff41">n</text><text x="135" y="32" fill="#00ff41">/</text><text x="144" y="32" fill="#00ff41">c</text><text x="153" y="32" fill="#00ff41">o</text><text x="162" y="32" fill="#00ff41">d</text><text x="171" y="32" fill="#00ff41">e</text><text x="180" y="32" fill="#00ff41">x</text><text x="531" y="32" fill="#00ff41">r</text><text x="540" y="32" fill="#00ff41">o</text><text x="567" y="32" fill="#005012">·</text><text x="0" y="50" fill="#00ff41">│</text><text x="72" y="50" fill="#00ff41">/</text><text x="81" y="50" fill="#00ff41">j</text><text x="90" y="50" fill="#00ff41">a</text><text x="99" y="50" fill="#00ff41">c</text><text x="108" y="50" fill="#00ff41">k</text><text x="117" y="50" fill="#00ff41">i</text><text x="126" y="50" fill="#00ff41">n</text><text x="135" y="50" fill="#00ff41">/</text><text x="144" y="50" fill="#00ff41">c</text><text x="153" y="50" fill="#00ff41">l</text><text x="162" y="50" fill="#00ff41">a</text><text x="171" y="50" fill="#00ff41">u</text><text x="180" y="50" fill="#00ff41">d</text><text x="189" y="50" fill="#00ff41">e</text><text x="531" y="50" fill="#00ff41">r</text><text x="540" y="50" fill="#00ff41">o</text><text x="567" y="50" fill="#00ff41">█</text><text x="0" y="68" fill="#00ff41">│</text><text x="72" y="68" fill="#00ff41">/</text><text x="81" y="68" fill="#00ff41">j</text><text x="90" y="68" fill="#00ff41">a</text><text x="99" y="68" fill="#00ff41">c</text><text x="108" y="68" fill="#00ff41">k</text><text x="117" y="68" fill="#00ff41">i</text><text x="126" y="68" fill="#00ff41">n</text><text x="135" y="68" fill="#00ff41">/</text><text x="144" y="68" fill="#00ff41">h</text><text x="153" y="68" fill="#00ff41">o</text><text x="162" y="68" fill="#00ff41">s</text><text x="171" y="68" fill="#00ff41">t</text><text x="180" y="68" fill="#00ff41">/</text><text x="189" y="68" fill="#00ff41">c</text><text x="198" y="68" fill="#00ff41">a</text><text x="207" y="68" fill="#00ff41">c</text><text x="216" y="68" fill="#00ff41">h</text><text x="225" y="68" fill="#00ff41">e</text><text x="234" y="68" fill="#00ff41">/</text><text x="243" y="68" fill="#00ff41">c</text><text x="252" y="68" fill="#00ff41">a</text><text x="261" y="68" fill="#00ff41">r</text><text x="270" y="68" fill="#00ff41">g</text><text x="279" y="68" fill="#00ff41">o</text><text x="531" y="68" fill="#00ff41">r</text><text x="540" y="68" fill="#00ff41">w</text><text x="567" y="68" fill="#00ff41">█</text><text x="0" y="86" fill="#00ff41">│</text><text x="72" y="86" fill="#00ff41">/</text><text x="81" y="86" fill="#00ff41">j</text><text x="90" y="86" fill="#00ff41">a</text><text x="99" y="86" fill="#00ff41">c</text><text x="108" y="86" fill="#00ff41">k</text><text x="117" y="86" fill="#00ff41">i</text><text x="126" y="86" fill="#00ff41">n</text><text x="135" y="86" fill="#00ff41">/</text><text x="144" y="86" fill="#00ff41">r</text><text x="153" y="86" fill="#00ff41">u</text><text x="162" y="86" fill="#00ff41">n</text><text x="171" y="86" fill="#00ff41">/</text><text x="180" y="86" fill="#00ff41">j</text><text x="189" y="86" fill="#00ff41">a</text><text x="198" y="86" fill="#00ff41">c</text><text x="207" y="86" fill="#00ff41">k</text><text x="216" y="86" fill="#00ff41">i</text><text x="225" y="86" fill="#00ff41">n</text><text x="234" y="86" fill="#00ff41">.</text><text x="243" y="86" fill="#00ff41">s</text><text x="252" y="86" fill="#00ff41">o</text><text x="261" y="86" fill="#00ff41">c</text><text x="270" y="86" fill="#00ff41">k</text><text x="531" y="86" fill="#00ff41">r</text><text x="540" y="86" fill="#00ff41">w</text><text x="567" y="86" fill="#00ff41">█</text><text x="0" y="104" fill="#00ff41">│</text><text x="9" y="104" fill="#00ff41">t</text><text x="72" y="104" fill="#00ff41">/</text><text x="81" y="104" fill="#00ff41">w</text><text x="90" y="104" fill="#00ff41">o</text><text x="99" y="104" fill="#00ff41">r</text><text x="108" y="104" fill="#00ff41">k</text><text x="117" y="104" fill="#00ff41">s</text><text x="126" y="104" fill="#00ff41">p</text><text x="135" y="104" fill="#00ff41">a</text><text x="144" y="104" fill="#00ff41">c</text><text x="153" y="104" fill="#00ff41">e</text><text x="162" y="104" fill="#00ff41">/</text><text x="171" y="104" fill="#00ff41">j</text><text x="180" y="104" fill="#00ff41">a</text><text x="189" y="104" fill="#00ff41">c</text><text x="198" y="104" fill="#00ff41">k</text><text x="207" y="104" fill="#00ff41">i</text><text x="216" y="104" fill="#00ff41">n</text><text x="225" y="104" fill="#00ff41">.</text><text x="234" y="104" fill="#00ff41">r</text><text x="243" y="104" fill="#00ff41">o</text><text x="252" y="104" fill="#00ff41">l</text><text x="261" y="104" fill="#00ff41">e</text><text x="270" y="104" fill="#00ff41">.</text><text x="279" y="104" fill="#00ff41">t</text><text x="288" y="104" fill="#00ff41">o</text><text x="297" y="104" fill="#00ff41">m</text><text x="306" y="104" fill="#00ff41">l</text><text x="540" y="104" fill="#00ff41">r</text><text x="549" y="104" fill="#00ff41">o</text><text x="567" y="104" fill="#00ff41">█</text><text x="0" y="122" fill="#00ff41">│</text><text x="72" y="122" fill="#00ff41">/</text><text x="81" y="122" fill="#00ff41">j</text><text x="90" y="122" fill="#00ff41">a</text><text x="99" y="122" fill="#00ff41">c</text><text x="108" y="122" fill="#00ff41">k</text><text x="117" y="122" fill="#00ff41">i</text><text x="126" y="122" fill="#00ff41">n</text><text x="135" y="122" fill="#00ff41">/</text><text x="144" y="122" fill="#00ff41">s</text><text x="153" y="122" fill="#00ff41">t</text><text x="162" y="122" fill="#00ff41">a</text><text x="171" y="122" fill="#00ff41">t</text><text x="180" y="122" fill="#00ff41">e</text><text x="189" y="122" fill="#00ff41">/</text><text x="198" y="122" fill="#00ff41">d</text><text x="207" y="122" fill="#00ff41">i</text><text x="216" y="122" fill="#00ff41">a</text><text x="225" y="122" fill="#00ff41">g</text><text x="234" y="122" fill="#00ff41">n</text><text x="243" y="122" fill="#00ff41">o</text><text x="252" y="122" fill="#00ff41">s</text><text x="261" y="122" fill="#00ff41">t</text><text x="270" y="122" fill="#00ff41">i</text><text x="279" y="122" fill="#00ff41">c</text><text x="288" y="122" fill="#00ff41">s</text><text x="297" y="122" fill="#00ff41">/</text><text x="306" y="122" fill="#00ff41">j</text><text x="315" y="122" fill="#00ff41">k</text><text x="324" y="122" fill="#00ff41">-</text><text x="333" y="122" fill="#00ff41">r</text><text x="342" y="122" fill="#00ff41">u</text><text x="351" y="122" fill="#00ff41">n</text><text x="360" y="122" fill="#00ff41">-</text><text x="369" y="122" fill="#00ff41">3</text><text x="378" y="122" fill="#00ff41">d</text><text x="387" y="122" fill="#00ff41">7</text><text x="396" y="122" fill="#00ff41">e</text><text x="405" y="122" fill="#00ff41">2</text><text x="414" y="122" fill="#00ff41">3</text><text x="540" y="122" fill="#00ff41">r</text><text x="549" y="122" fill="#00ff41">w</text><text x="567" y="122" fill="#00ff41">█</text><text x="0" y="140" fill="#00ff41">│</text><text x="72" y="140" fill="#00ff41">/</text><text x="81" y="140" fill="#00ff41">j</text><text x="90" y="140" fill="#00ff41">a</text><text x="99" y="140" fill="#00ff41">c</text><text x="108" y="140" fill="#00ff41">k</text><text x="117" y="140" fill="#00ff41">i</text><text x="126" y="140" fill="#00ff41">n</text><text x="135" y="140" fill="#00ff41">/</text><text x="144" y="140" fill="#00ff41">h</text><text x="153" y="140" fill="#00ff41">o</text><text x="162" y="140" fill="#00ff41">s</text><text x="171" y="140" fill="#00ff41">t</text><text x="180" y="140" fill="#00ff41">/</text><text x="189" y="140" fill="#00ff41">s</text><text x="198" y="140" fill="#00ff41">s</text><text x="207" y="140" fill="#00ff41">h</text><text x="531" y="140" fill="#00ff41">r</text><text x="540" y="140" fill="#00ff41">o</text><text x="567" y="140" fill="#005012">·</text><text x="0" y="158" fill="#00ff41">└</text><text x="9" y="158" fill="#005012">·</text><text x="18" y="158" fill="#005012">·</text><text x="27" y="158" fill="#005012">·</text><text x="36" y="158" fill="#005012">·</text><text x="45" y="158" fill="#005012">·</text><text x="54" y="158" fill="#005012">·</text><text x="63" y="158" fill="#005012">·</text><text x="72" y="158" fill="#005012">·</text><text x="81" y="158" fill="#005012">·</text><text x="90" y="158" fill="#005012">·</text><text x="99" y="158" fill="#00ff41">━</text><text x="108" y="158" fill="#00ff41">━</text><text x="117" y="158" fill="#00ff41">━</text><text x="126" y="158" fill="#00ff41">━</text><text x="135" y="158" fill="#00ff41">━</text><text x="144" y="158" fill="#00ff41">━</text><text x="153" y="158" fill="#00ff41">━</text><text x="162" y="158" fill="#00ff41">━</text><text x="171" y="158" fill="#00ff41">━</text><text x="180" y="158" fill="#00ff41">━</text><text x="189" y="158" fill="#00ff41">━</text><text x="198" y="158" fill="#00ff41">━</text><text x="207" y="158" fill="#00ff41">━</text><text x="216" y="158" fill="#00ff41">━</text><text x="225" y="158" fill="#00ff41">━</text><text x="234" y="158" fill="#00ff41">━</text><text x="243" y="158" fill="#00ff41">━</text><text x="252" y="158" fill="#00ff41">━</text><text x="261" y="158" fill="#00ff41">━</text><text x="270" y="158" fill="#00ff41">━</text><text x="279" y="158" fill="#00ff41">━</text><text x="288" y="158" fill="#00ff41">━</text><text x="297" y="158" fill="#00ff41">━</text><text x="306" y="158" fill="#00ff41">━</text><text x="315" y="158" fill="#00ff41">━</text><text x="324" y="158" fill="#00ff41">━</text><text x="333" y="158" fill="#00ff41">━</text><text x="342" y="158" fill="#00ff41">━</text><text x="351" y="158" fill="#00ff41">━</text><text x="360" y="158" fill="#00ff41">━</text><text x="369" y="158" fill="#00ff41">━</text><text x="378" y="158" fill="#00ff41">━</text><text x="387" y="158" fill="#00ff41">━</text><text x="396" y="158" fill="#00ff41">━</text><text x="405" y="158" fill="#00ff41">━</text><text x="414" y="158" fill="#00ff41">━</text><text x="423" y="158" fill="#00ff41">━</text><text x="432" y="158" fill="#00ff41">━</text><text x="441" y="158" fill="#00ff41">━</text><text x="450" y="158" fill="#00ff41">━</text><text x="459" y="158" fill="#00ff41">━</text><text x="468" y="158" fill="#00ff41">━</text><text x="477" y="158" fill="#00ff41">━</text><text x="486" y="158" fill="#00ff41">━</text><text x="495" y="158" fill="#00ff41">━</text><text x="504" y="158" fill="#00ff41">━</text><text x="513" y="158" fill="#00ff41">━</text><text x="522" y="158" fill="#00ff41">━</text><text x="531" y="158" fill="#00ff41">━</text><text x="540" y="158" fill="#00ff41">━</text><text x="549" y="158" fill="#00ff41">━</text><text x="558" y="158" fill="#005012">·</text><text x="567" y="158" fill="#00ff41">┘</text></g></svg>
