<svg xmlns="http://www.w3.org/2000/svg" width="432" height="126" viewBox="0 0 432 126" role="img" aria-label="Status popup" style="background:#000000"><rect width="100%" height="100%" fill="#000000"/><g font-family="ui-monospace, SFMono-Regular, Menlo, Consolas, monospace" font-size="14"><text x="0" y="14" fill="#00ff41">┌</text><text x="18" y="14" fill="#00ff41">L</text><text x="27" y="14" fill="#00ff41">o</text><text x="36" y="14" fill="#00ff41">a</text><text x="45" y="14" fill="#00ff41">d</text><text x="54" y="14" fill="#00ff41">i</text><text x="63" y="14" fill="#00ff41">n</text><text x="72" y="14" fill="#00ff41">g</text><text x="90" y="14" fill="#00ff41">r</text><text x="99" y="14" fill="#00ff41">o</text><text x="108" y="14" fill="#00ff41">l</text><text x="117" y="14" fill="#00ff41">e</text><text x="135" y="14" fill="#00ff41">─</text><text x="144" y="14" fill="#00ff41">─</text><text x="153" y="14" fill="#00ff41">─</text><text x="162" y="14" fill="#00ff41">─</text><text x="171" y="14" fill="#00ff41">─</text><text x="180" y="14" fill="#00ff41">─</text><text x="189" y="14" fill="#00ff41">─</text><text x="198" y="14" fill="#00ff41">─</text><text x="207" y="14" fill="#00ff41">─</text><text x="216" y="14" fill="#00ff41">─</text><text x="225" y="14" fill="#00ff41">─</text><text x="234" y="14" fill="#00ff41">─</text><text x="243" y="14" fill="#00ff41">─</text><text x="252" y="14" fill="#00ff41">─</text><text x="261" y="14" fill="#00ff41">─</text><text x="270" y="14" fill="#00ff41">─</text><text x="279" y="14" fill="#00ff41">─</text><text x="288" y="14" fill="#00ff41">─</text><text x="297" y="14" fill="#00ff41">─</text><text x="306" y="14" fill="#00ff41">─</text><text x="315" y="14" fill="#00ff41">─</text><text x="324" y="14" fill="#00ff41">─</text><text x="333" y="14" fill="#00ff41">─</text><text x="342" y="14" fill="#00ff41">─</text><text x="351" y="14" fill="#00ff41">─</text><text x="360" y="14" fill="#00ff41">─</text><text x="369" y="14" fill="#00ff41">─</text><text x="378" y="14" fill="#00ff41">─</text><text x="387" y="14" fill="#00ff41">─</text><text x="396" y="14" fill="#00ff41">─</text><text x="405" y="14" fill="#00ff41">─</text><text x="414" y="14" fill="#00ff41">─</text><text x="423" y="14" fill="#00ff41">┐</text><text x="0" y="32" fill="#00ff41">│</text><text x="423" y="32" fill="#00ff41">│</text><text x="0" y="50" fill="#00ff41">│</text><text x="27" y="50" fill="#ffffff">R</text><text x="36" y="50" fill="#ffffff">e</text><text x="45" y="50" fill="#ffffff">s</text><text x="54" y="50" fill="#ffffff">o</text><text x="63" y="50" fill="#ffffff">l</text><text x="72" y="50" fill="#ffffff">v</text><text x="81" y="50" fill="#ffffff">i</text><text x="90" y="50" fill="#ffffff">n</text><text x="99" y="50" fill="#ffffff">g</text><text x="117" y="50" fill="#ffffff">g</text><text x="126" y="50" fill="#ffffff">i</text><text x="135" y="50" fill="#ffffff">t</text><text x="144" y="50" fill="#ffffff">h</text><text x="153" y="50" fill="#ffffff">u</text><text x="162" y="50" fill="#ffffff">b</text><text x="171" y="50" fill="#ffffff">:</text><text x="180" y="50" fill="#ffffff">j</text><text x="189" y="50" fill="#ffffff">a</text><text x="198" y="50" fill="#ffffff">c</text><text x="207" y="50" fill="#ffffff">k</text><text x="216" y="50" fill="#ffffff">i</text><text x="225" y="50" fill="#ffffff">n</text><text x="234" y="50" fill="#ffffff">-</text><text x="243" y="50" fill="#ffffff">p</text><text x="252" y="50" fill="#ffffff">r</text><text x="261" y="50" fill="#ffffff">o</text><text x="270" y="50" fill="#ffffff">j</text><text x="279" y="50" fill="#ffffff">e</text><text x="288" y="50" fill="#ffffff">c</text><text x="297" y="50" fill="#ffffff">t</text><text x="306" y="50" fill="#ffffff">/</text><text x="315" y="50" fill="#ffffff">r</text><text x="324" y="50" fill="#ffffff">o</text><text x="333" y="50" fill="#ffffff">l</text><text x="342" y="50" fill="#ffffff">e</text><text x="351" y="50" fill="#ffffff">s</text><text x="360" y="50" fill="#ffffff">/</text><text x="369" y="50" fill="#ffffff">r</text><text x="378" y="50" fill="#ffffff">u</text><text x="387" y="50" fill="#ffffff">s</text><text x="396" y="50" fill="#ffffff">t</text><text x="423" y="50" fill="#00ff41">│</text><text x="0" y="68" fill="#00ff41">│</text><text x="423" y="68" fill="#00ff41">│</text><text x="0" y="86" fill="#00ff41">│</text><text x="171" y="86" fill="#008c1e">P</text><text x="180" y="86" fill="#008c1e">l</text><text x="189" y="86" fill="#008c1e">e</text><text x="198" y="86" fill="#008c1e">a</text><text x="207" y="86" fill="#008c1e">s</text><text x="216" y="86" fill="#008c1e">e</text><text x="234" y="86" fill="#008c1e">w</text><text x="243" y="86" fill="#008c1e">a</text><text x="252" y="86" fill="#008c1e">i</text><text x="261" y="86" fill="#008c1e">t</text><text x="423" y="86" fill="#00ff41">│</text><text x="0" y="104" fill="#00ff41">│</text><text x="423" y="104" fill="#00ff41">│</text><text x="0" y="122" fill="#00ff41">└</text><text x="9" y="122" fill="#00ff41">─</text><text x="18" y="122" fill="#00ff41">─</text><text x="27" y="122" fill="#00ff41">─</text><text x="36" y="122" fill="#00ff41">─</text><text x="45" y="122" fill="#00ff41">─</text><text x="54" y="122" fill="#00ff41">─</text><text x="63" y="122" fill="#00ff41">─</text><text x="72" y="122" fill="#00ff41">─</text><text x="81" y="122" fill="#00ff41">─</text><text x="90" y="122" fill="#00ff41">─</text><text x="99" y="122" fill="#00ff41">─</text><text x="108" y="122" fill="#00ff41">─</text><text x="117" y="122" fill="#00ff41">─</text><text x="126" y="122" fill="#00ff41">─</text><text x="135" y="122" fill="#00ff41">─</text><text x="144" y="122" fill="#00ff41">─</text><text x="153" y="122" fill="#00ff41">─</text><text x="162" y="122" fill="#00ff41">─</text><text x="171" y="122" fill="#00ff41">─</text><text x="180" y="122" fill="#00ff41">─</text><text x="189" y="122" fill="#00ff41">─</text><text x="198" y="122" fill="#00ff41">─</text><text x="207" y="122" fill="#00ff41">─</text><text x="216" y="122" fill="#00ff41">─</text><text x="225" y="122" fill="#00ff41">─</text><text x="234" y="122" fill="#00ff41">─</text><text x="243" y="122" fill="#00ff41">─</text><text x="252" y="122" fill="#00ff41">─</text><text x="261" y="122" fill="#00ff41">─</text><text x="270" y="122" fill="#00ff41">─</text><text x="279" y="122" fill="#00ff41">─</text><text x="288" y="122" fill="#00ff41">─</text><text x="297" y="122" fill="#00ff41">─</text><text x="306" y="122" fill="#00ff41">─</text><text x="315" y="122" fill="#00ff41">─</text><text x="324" y="122" fill="#00ff41">─</text><text x="333" y="122" fill="#00ff41">─</text><text x="342" y="122" fill="#00ff41">─</text><text x="351" y="122" fill="#00ff41">─</text><text x="360" y="122" fill="#00ff41">─</text><text x="369" y="122" fill="#00ff41">─</text><text x="378" y="122" fill="#00ff41">─</text><text x="387" y="122" fill="#00ff41">─</text><text x="396" y="122" fill="#00ff41">─</text><text x="405" y="122" fill="#00ff41">─</text><text x="414" y="122" fill="#00ff41">─</text><text x="423" y="122" fill="#00ff41">┘</text></g></svg>
