<svg xmlns="http://www.w3.org/2000/svg" width="648" height="18" viewBox="0 0 648 18" role="img" aria-label="Status footer" style="background:#000000"><rect width="100%" height="100%" fill="#000000"/><g font-family="ui-monospace, SFMono-Regular, Menlo, Consolas, monospace" font-size="14"><rect x="0" y="0" width="9" height="18" fill="#ffffff"/><rect x="9" y="0" width="9" height="18" fill="#ffffff"/><text x="9" y="14" fill="#0050b4">B</text><rect x="18" y="0" width="9" height="18" fill="#ffffff"/><text x="18" y="14" fill="#0050b4">u</text><rect x="27" y="0" width="9" height="18" fill="#ffffff"/><text x="27" y="14" fill="#0050b4">i</text><rect x="36" y="0" width="9" height="18" fill="#ffffff"/><text x="36" y="14" fill="#0050b4">l</text><rect x="45" y="0" width="9" height="18" fill="#ffffff"/><text x="45" y="14" fill="#0050b4">d</text><rect x="54" y="0" width="9" height="18" fill="#ffffff"/><text x="54" y="14" fill="#0050b4">i</text><rect x="63" y="0" width="9" height="18" fill="#ffffff"/><text x="63" y="14" fill="#0050b4">n</text><rect x="72" y="0" width="9" height="18" fill="#ffffff"/><text x="72" y="14" fill="#0050b4">g</text><rect x="81" y="0" width="9" height="18" fill="#ffffff"/><rect x="90" y="0" width="9" height="18" fill="#ffffff"/><text x="90" y="14" fill="#0050b4">r</text><rect x="99" y="0" width="9" height="18" fill="#ffffff"/><text x="99" y="14" fill="#0050b4">o</text><rect x="108" y="0" width="9" height="18" fill="#ffffff"/><text x="108" y="14" fill="#0050b4">l</text><rect x="117" y="0" width="9" height="18" fill="#ffffff"/><text x="117" y="14" fill="#0050b4">e</text><rect x="126" y="0" width="9" height="18" fill="#ffffff"/><rect x="135" y="0" width="9" height="18" fill="#ffffff"/><text x="135" y="14" fill="#0050b4">i</text><rect x="144" y="0" width="9" height="18" fill="#ffffff"/><text x="144" y="14" fill="#0050b4">m</text><rect x="153" y="0" width="9" height="18" fill="#ffffff"/><text x="153" y="14" fill="#0050b4">a</text><rect x="162" y="0" width="9" height="18" fill="#ffffff"/><text x="162" y="14" fill="#0050b4">g</text><rect x="171" y="0" width="9" height="18" fill="#ffffff"/><text x="171" y="14" fill="#0050b4">e</text><rect x="180" y="0" width="9" height="18" fill="#ffffff"/><text x="180" y="14" fill="#0050b4">:</text><rect x="189" y="0" width="9" height="18" fill="#ffffff"/><rect x="198" y="0" width="9" height="18" fill="#ffffff"/><text x="198" y="14" fill="#0050b4">r</text><rect x="207" y="0" width="9" height="18" fill="#ffffff"/><text x="207" y="14" fill="#0050b4">u</text><rect x="216" y="0" width="9" height="18" fill="#ffffff"/><text x="216" y="14" fill="#0050b4">s</text><rect x="225" y="0" width="9" height="18" fill="#ffffff"/><text x="225" y="14" fill="#0050b4">t</text><rect x="234" y="0" width="9" height="18" fill="#ffffff"/><text x="234" y="14" fill="#0050b4">-</text><rect x="243" y="0" width="9" height="18" fill="#ffffff"/><text x="243" y="14" fill="#0050b4">d</text><rect x="252" y="0" width="9" height="18" fill="#ffffff"/><text x="252" y="14" fill="#0050b4">e</text><rect x="261" y="0" width="9" height="18" fill="#ffffff"/><text x="261" y="14" fill="#0050b4">v</text><rect x="270" y="0" width="9" height="18" fill="#ffffff"/><rect x="279" y="0" width="9" height="18" fill="#ffffff"/><rect x="288" y="0" width="9" height="18" fill="#ffffff"/><rect x="297" y="0" width="9" height="18" fill="#ffffff"/><rect x="306" y="0" width="9" height="18" fill="#ffffff"/><rect x="315" y="0" width="9" height="18" fill="#ffffff"/><rect x="324" y="0" width="9" height="18" fill="#ffffff"/><rect x="333" y="0" width="9" height="18" fill="#ffffff"/><rect x="342" y="0" width="9" height="18" fill="#ffffff"/><rect x="351" y="0" width="9" height="18" fill="#ffffff"/><rect x="360" y="0" width="9" height="18" fill="#ffffff"/><rect x="369" y="0" width="9" height="18" fill="#ffffff"/><rect x="378" y="0" width="9" height="18" fill="#ffffff"/><rect x="387" y="0" width="9" height="18" fill="#ffffff"/><rect x="396" y="0" width="9" height="18" fill="#ffffff"/><rect x="405" y="0" width="9" height="18" fill="#ffffff"/><rect x="414" y="0" width="9" height="18" fill="#ffffff"/><rect x="423" y="0" width="9" height="18" fill="#ffffff"/><rect x="432" y="0" width="9" height="18" fill="#ffffff"/><text x="432" y="14" fill="#0050b4">s</text><rect x="441" y="0" width="9" height="18" fill="#ffffff"/><text x="441" y="14" fill="#0050b4">7</text><rect x="450" y="0" width="9" height="18" fill="#ffffff"/><text x="450" y="14" fill="#0050b4">f</text><rect x="459" y="0" width="9" height="18" fill="#ffffff"/><text x="459" y="14" fill="#0050b4">8</text><rect x="468" y="0" width="9" height="18" fill="#ffffff"/><text x="468" y="14" fill="#0050b4">a</text><rect x="477" y="0" width="9" height="18" fill="#ffffff"/><text x="477" y="14" fill="#0050b4">2</text><rect x="486" y="0" width="9" height="18" fill="#ffffff"/><text x="486" y="14" fill="#0050b4">c</text><rect x="495" y="0" width="9" height="18" fill="#ffffff"/><text x="495" y="14" fill="#0050b4">1</text><rect x="504" y="0" width="9" height="18" fill="#ffffff"/><rect x="513" y="0" width="9" height="18" fill="#ffffff"/><rect x="522" y="0" width="9" height="18" fill="#ffffff"/><text x="522" y="14" fill="#cc5c00">j</text><rect x="531" y="0" width="9" height="18" fill="#ffffff"/><text x="531" y="14" fill="#cc5c00">k</text><rect x="540" y="0" width="9" height="18" fill="#ffffff"/><text x="540" y="14" fill="#cc5c00">-</text><rect x="549" y="0" width="9" height="18" fill="#ffffff"/><text x="549" y="14" fill="#cc5c00">r</text><rect x="558" y="0" width="9" height="18" fill="#ffffff"/><text x="558" y="14" fill="#cc5c00">u</text><rect x="567" y="0" width="9" height="18" fill="#ffffff"/><text x="567" y="14" fill="#cc5c00">n</text><rect x="576" y="0" width="9" height="18" fill="#ffffff"/><text x="576" y="14" fill="#cc5c00">-</text><rect x="585" y="0" width="9" height="18" fill="#ffffff"/><text x="585" y="14" fill="#cc5c00">3</text><rect x="594" y="0" width="9" height="18" fill="#ffffff"/><text x="594" y="14" fill="#cc5c00">d</text><rect x="603" y="0" width="9" height="18" fill="#ffffff"/><text x="603" y="14" fill="#cc5c00">7</text><rect x="612" y="0" width="9" height="18" fill="#ffffff"/><text x="612" y="14" fill="#cc5c00">e</text><rect x="621" y="0" width="9" height="18" fill="#ffffff"/><text x="621" y="14" fill="#cc5c00">2</text><rect x="630" y="0" width="9" height="18" fill="#ffffff"/><text x="630" y="14" fill="#cc5c00">3</text><rect x="639" y="0" width="9" height="18" fill="#ffffff"/></g></svg>
